<?xml version="1.0" encoding="utf-8"?>
<!-- Generator: Adobe Illustrator 16.0.0, SVG Export Plug-In . SVG Version: 6.00 Build 0)  -->
<!DOCTYPE svg PUBLIC "-//W3C//DTD SVG 1.1//EN" "http://www.w3.org/Graphics/SVG/1.1/DTD/svg11.dtd">
<svg version="1.1" id="Layer_1" xmlns="http://www.w3.org/2000/svg" xmlns:xlink="http://www.w3.org/1999/xlink" x="0px" y="0px"
	 width="250px" height="250px" viewBox="0 0 250 250" enable-background="new 0 0 250 250" xml:space="preserve">
<g>
	<ellipse opacity="0.5" fill="#EEEFED" cx="128.309" cy="226.225" rx="79.198" ry="14.186"/>
	<g>
		<g>
			<path fill="#E63946" d="M146.747,110.497c0.544,3.08-1.511,6.018-4.591,6.562l-51.145,9.034c-3.079,0.543-6.017-1.512-6.56-4.591
				L73.216,57.897c-0.543-3.079,1.512-6.017,4.592-6.563l51.145-9.031c3.079-0.544,6.016,1.511,6.562,4.592L146.747,110.497z"/>
			<path fill="#FFFFFF" d="M129.414,51.303c0.104,0.585-0.287,1.144-0.872,1.248l-17.388,3.089c-0.586,0.104-1.145-0.286-1.25-0.873
				l0,0c-0.104-0.584,0.287-1.144,0.873-1.247l17.389-3.09C128.752,50.327,129.311,50.716,129.414,51.303L129.414,51.303z"/>
			<path fill="#FFFFFF" d="M135.395,87.427c0.104,0.585-0.287,1.145-0.873,1.249L87.87,96.964c-0.586,0.104-1.144-0.286-1.248-0.872
				l0,0c-0.104-0.586,0.286-1.145,0.872-1.249l46.653-8.288C134.731,86.452,135.291,86.84,135.395,87.427L135.395,87.427z"/>
			<path fill="#FFFFFF" d="M136.75,95.061c0.104,0.586-0.285,1.145-0.871,1.249l-46.653,8.288c-0.585,0.104-1.145-0.286-1.249-0.872
				l0,0c-0.103-0.585,0.287-1.146,0.872-1.249l46.652-8.287C136.088,94.085,136.646,94.475,136.75,95.061L136.75,95.061z"/>
			<path fill="#FFFFFF" d="M138.107,102.696c0.104,0.584-0.286,1.144-0.872,1.248l-46.652,8.288
				c-0.586,0.104-1.145-0.286-1.249-0.872l0,0c-0.104-0.586,0.286-1.145,0.872-1.248l46.652-8.288
				C137.443,101.719,138.003,102.11,138.107,102.696L138.107,102.696z"/>
			<path fill="#FFFFFF" d="M139.313,109.48c0.104,0.586-0.287,1.146-0.872,1.25l-46.653,8.287c-0.585,0.104-1.144-0.287-1.249-0.872
				l0,0c-0.104-0.585,0.287-1.144,0.873-1.247l46.652-8.289C138.649,108.505,139.209,108.896,139.313,109.48L139.313,109.48z"/>
			<g>
				<path fill="#FFFFFF" d="M106.088,55.446c0.104,0.586-0.286,1.145-0.871,1.25l-24.175,4.293c-0.585,0.104-1.146-0.285-1.248-0.87
					l0,0c-0.104-0.587,0.286-1.146,0.871-1.249l24.174-4.295C105.425,54.469,105.984,54.861,106.088,55.446L106.088,55.446z"/>
				<path fill="#FFFFFF" d="M110.937,82.736c0.214,1.207-0.591,2.36-1.798,2.574L87.64,89.129c-1.208,0.216-2.36-0.591-2.575-1.799
					l-3.592-20.225c-0.215-1.207,0.59-2.36,1.798-2.575l21.498-3.819c1.208-0.214,2.36,0.591,2.575,1.799L110.937,82.736z"/>
			</g>
			<path fill="#FFFFFF" d="M133.838,78.666c0.215,1.208-0.59,2.362-1.798,2.576l-15.135,2.689c-1.208,0.215-2.361-0.591-2.575-1.799
				l-3.593-20.225c-0.215-1.208,0.59-2.36,1.797-2.576l15.136-2.688c1.207-0.216,2.361,0.591,2.576,1.798L133.838,78.666z"/>
		</g>
		<g>
			<g>
				<path fill="#A8DADC" d="M170.657,129.34c-0.427,3.004-3.205,5.094-6.209,4.668l-49.865-7.072
					c-3.002-0.426-5.092-3.203-4.666-6.206l8.792-62.014c0.425-3.004,3.204-5.093,6.208-4.668l49.867,7.07
					c3.002,0.426,5.091,3.206,4.666,6.208L170.657,129.34z"/>
				<path fill="#F1FAEE" d="M164.448,134.008l-49.865-7.072c-3.002-0.426-5.092-3.203-4.666-6.206l1.858-13.105l15.826-12.449
					c0.279-0.221,0.695-0.181,0.93,0.09c4.018,4.65,14.25,16.715,13.546,15.812c0.574,0.735,2.351-0.719,1.8-1.4
					c-1.609-1.996-4.303-5.417-5.709-7.087c-0.23-0.275-0.195-0.68,0.078-0.909l20.383-17.095c0.274-0.228,0.67-0.183,0.886,0.102
					l14.513,17.606c0.217,0.285,0.351,0.803,0.299,1.154l-3.658,25.814C170.242,132.264,167.452,134.434,164.448,134.008z"/>
				<circle fill="#F1FAEE" cx="135.21" cy="75.727" r="7.749"/>
			</g>
		</g>
		<path fill-rule="evenodd" clip-rule="evenodd" fill="#1D3557" d="M105.194,219.547c0,6.381-5.169,11.549-11.547,11.549
			c-6.377,0-11.549-5.168-11.549-11.549c0-6.375,5.172-11.549,11.549-11.549C100.025,207.998,105.194,213.172,105.194,219.547z"/>
		<path fill-rule="evenodd" clip-rule="evenodd" fill="#1D3557" d="M170.351,219.547c0,6.381-5.176,11.549-11.55,11.549
			c-6.381,0-11.549-5.168-11.549-11.549c0-6.375,5.168-11.549,11.549-11.549C165.175,207.998,170.351,213.172,170.351,219.547z"/>
		<polygon fill-rule="evenodd" clip-rule="evenodd" fill="#60b6fb" points="90.041,220.006 96.484,220.006 104.03,204.881 
			90.041,204.881 		"/>
		<polygon fill-rule="evenodd" clip-rule="evenodd" fill="#60b6fb" points="155.269,220.006 161.708,220.006 169.254,204.881 
			155.269,204.881 		"/>
		<g>
			<g>
				<path fill-rule="evenodd" clip-rule="evenodd" fill="#60b6fb" d="M186.262,123.085c-9.166,18.723-17.002,34.418-25.627,51.573
					c-2.144,4.275-5.947,6.248-10.75,6.248c-15.824-0.006-31.648,0.047-47.458-0.059c-2.022-0.018-3.073,0.549-3.875,2.359
					c-1.413,3.186-3.049,6.275-4.783,9.797c1.584,0,2.724,0,3.862,0c22.774,0,45.539-0.014,68.312,0.018
					c1.479,0.002,3.031,0.072,4.4,0.547c2.762,0.945,4.001,3.129,3.749,6.008c-0.236,2.734-1.756,4.553-4.466,5.166
					c-1.028,0.236-2.113,0.256-3.179,0.256c-23.728,0.014-47.461,0.023-71.197,0.01c-10.979-0.012-16.421-8.693-11.641-18.561
					c1.901-3.93,4.028-7.764,5.79-11.76c0.505-1.139,0.546-2.926,0-4.023c-9.801-19.918-19.747-39.762-29.58-59.667
					c-0.86-1.742-1.648-3.724-3.951-4.011c-2.009-0.251-13.966,0.392-13.966-0.258c0.001-2.566,0-7.381,0-9.944
					c7.272,0,11.546-0.516,21.816,0c4.513,0.225,5.179,5.722,6.818,9.188c1.071,2.272,2.332,2.993,4.837,2.99
					c32.011-0.1,64.03-0.643,96.037-0.065C187.384,109.184,193.034,109.25,186.262,123.085z M78.262,120.838
					c0.383,0.901,0.553,1.373,0.779,1.817c7.401,14.881,14.775,29.776,22.321,44.59c0.491,0.957,2.26,1.771,3.441,1.779
					c14.106,0.121,28.207,0.029,42.307,0.129c2.211,0.016,3.41-0.635,4.41-2.662c7.17-14.547,14.463-29.025,21.703-43.537
					c0.301-0.601,0.42-1.294,0.673-2.117C141.988,120.838,110.388,120.838,78.262,120.838z"/>
				
					<rect x="107.726" y="116.262" transform="matrix(0.9802 -0.1982 0.1982 0.9802 -26.4749 25.0159)" fill-rule="evenodd" clip-rule="evenodd" fill="#60b6fb" width="7.992" height="56.985"/>
				
					<rect x="135.733" y="116.261" transform="matrix(-0.9937 -0.1117 0.1117 -0.9937 262.418 304.2075)" fill-rule="evenodd" clip-rule="evenodd" fill="#60b6fb" width="7.992" height="56.985"/>
				<rect x="82" y="134" fill="#60b6fb" width="88" height="8"/>
				<rect x="89" y="152" fill="#60b6fb" width="74" height="9"/>
			</g>
		</g>
		<path fill-rule="evenodd" clip-rule="evenodd" fill="#1D3557" d="M49,109.301c0,0.895,0.125,1.699-1.047,1.699H26.436
			c-1.172,0-2.436-0.804-2.436-1.699V95.59c0-0.895,1.264-0.59,2.436-0.59h21.517C49.125,95,49,94.696,49,95.59V109.301z"/>
		<g>
			<g>
				<path fill="#C1C1C1" d="M53.248,40.554c0,0,0.505,2.068,1.264,5.171c0.764,3.102,1.717,7.247,2.692,11.392
					c0.248,1.034,0.498,2.071,0.742,3.09c0.252,1.017,0.491,2.019,0.699,2.994c0.2,0.978,0.383,1.924,0.528,2.828
					c0.154,0.901,0.288,1.757,0.4,2.548c0.463,3.162,0.567,5.313,0.567,5.313l-0.146,0.03c0,0-0.758-2.016-1.586-5.103
					c-0.212-0.771-0.427-1.608-0.643-2.498c-0.226-0.887-0.433-1.827-0.636-2.804c-0.196-0.979-0.375-1.993-0.547-3.028
					c-0.179-1.032-0.36-2.081-0.542-3.13c-0.748-4.191-1.518-8.377-2.046-11.525c-0.534-3.149-0.89-5.248-0.89-5.248L53.248,40.554z
					"/>
				<path fill="#C1C1C1" d="M62.624,53.021c0,0,0.444,1.85,1.109,4.623c0.672,2.774,1.502,6.484,2.354,10.189
					c0.218,0.926,0.436,1.853,0.65,2.763c0.223,0.91,0.431,1.808,0.609,2.681c0.172,0.873,0.327,1.721,0.445,2.53
					c0.128,0.808,0.237,1.573,0.324,2.281c0.371,2.833,0.413,4.763,0.413,4.763l-0.146,0.028c0,0-0.697-1.799-1.434-4.56
					c-0.189-0.688-0.38-1.438-0.568-2.233c-0.2-0.794-0.379-1.636-0.554-2.509c-0.167-0.874-0.316-1.784-0.457-2.71
					c-0.149-0.924-0.3-1.863-0.451-2.804c-0.625-3.751-1.271-7.496-1.707-10.316c-0.441-2.818-0.736-4.697-0.736-4.697
					L62.624,53.021z"/>
			</g>
			<path fill="#C1C1C1" d="M194.245,37.767c0,0-0.517,2.787-1.29,6.966c-0.387,2.089-0.834,4.528-1.342,7.135
				c-0.5,2.606-1.033,5.389-1.568,8.172c-0.261,1.392-0.522,2.783-0.779,4.154c-0.245,1.373-0.518,2.717-0.773,4.02
				c-0.277,1.299-0.558,2.551-0.852,3.732c-0.283,1.185-0.563,2.301-0.834,3.329c-1.068,4.115-1.98,6.817-1.98,6.817l-0.146-0.031
				c0,0,0.266-2.839,0.962-7.033c0.172-1.05,0.369-2.184,0.592-3.381c0.213-1.198,0.467-2.457,0.741-3.756
				c0.295-1.294,0.593-2.633,0.928-3.986c0.322-1.357,0.649-2.735,0.978-4.112c0.644-2.759,1.286-5.519,1.89-8.104
				c0.597-2.589,1.179-4.999,1.676-7.064c0.991-4.132,1.653-6.887,1.653-6.887L194.245,37.767z"/>
			<path fill="#C1C1C1" d="M198.211,53.633c0,0-0.516,2.785-1.289,6.963c-0.387,2.091-0.835,4.528-1.342,7.134
				c-0.501,2.609-1.035,5.392-1.569,8.173c-0.261,1.392-0.522,2.785-0.778,4.154c-0.246,1.373-0.519,2.718-0.775,4.021
				c-0.277,1.296-0.557,2.551-0.85,3.733c-0.283,1.183-0.563,2.3-0.834,3.328c-1.07,4.116-1.981,6.816-1.981,6.816l-0.146-0.031
				c0,0,0.266-2.838,0.963-7.032c0.17-1.05,0.368-2.184,0.591-3.382c0.213-1.197,0.468-2.456,0.742-3.755
				c0.294-1.294,0.592-2.634,0.927-3.988c0.322-1.355,0.65-2.733,0.979-4.111c0.643-2.76,1.286-5.518,1.889-8.103
				c0.597-2.589,1.18-4.998,1.676-7.064c0.992-4.132,1.654-6.886,1.654-6.886L198.211,53.633z"/>
		</g>
		<g>
			<circle fill="#E63946" cx="158.137" cy="37.22" r="15.178"/>
			<path fill="#FFFFFF" d="M157.613,34.958c0,0,2.229-5.733,6.393-4.201c4.023,1.478,2.959,8.935-3.848,14.734
				c0,0-12.486-3.552-11.125-9.765C150.215,30.333,156.667,32.766,157.613,34.958z"/>
		</g>
		<g>
			<circle fill="#A8DADC" cx="102.117" cy="24.331" r="14.741"/>
			<path fill-rule="evenodd" clip-rule="evenodd" fill="#FFFFFF" d="M103.783,20.151c0.819-0.143,1.577-0.274,2.335-0.406
				c1.501-0.262,2.231,0.5,2.113,2.022c-0.076,0.984,0.078,1.986,0.108,2.98c0.03,0.961,0.097,1.927,0.034,2.884
				c-0.056,0.831-0.661,1.278-1.444,1.423c-1.726,0.32-3.458,0.605-5.188,0.912c-0.502,0.089-0.734-0.081-0.821-0.612
				c-0.389-2.385-0.825-4.764-1.225-7.147c-0.042-0.254-0.003-0.538,0.062-0.793c0.111-0.44,0.242-0.881,0.418-1.298
				c0.492-1.161,0.522-2.327,0.184-3.536c-0.23-0.824,0.011-1.373,0.594-1.617c0.665-0.279,1.219-0.04,1.705,0.705
				c0.69,1.058,1.049,2.21,1.041,3.479C103.699,19.458,103.75,19.771,103.783,20.151z"/>
			<path fill-rule="evenodd" clip-rule="evenodd" fill="#FFFFFF" d="M99.668,26.379c0.223,1.279,0.433,2.56,0.674,3.836
				c0.114,0.6-0.093,0.898-0.697,0.99c-0.99,0.149-1.979,0.323-2.961,0.517c-0.563,0.111-0.897-0.119-1.025-0.63
				c-0.165-0.661-0.286-1.334-0.406-2.005c-0.295-1.659-0.59-3.319-0.865-4.981c-0.195-1.179,0.011-1.449,1.182-1.654
				c0.853-0.149,1.712-0.27,2.556-0.456c0.568-0.126,0.816-0.005,0.9,0.612C99.197,23.871,99.449,25.123,99.668,26.379z"/>
		</g>
	</g>
	<path fill="#A8DADC" d="M51.981,159.361c0,0-4.095,1.545-6.298,4.055c-2.374,2.705-3.126,6.68-3.126,6.68s-1.145-4.135-3.982-6.625
		c-2.963-2.602-6.752-2.801-6.752-2.801s3.958-1.111,6.286-3.811c2.312-2.684,3.139-6.922,3.139-6.922s1.263,3.895,3.567,5.99
		C47.888,158.721,51.981,159.361,51.981,159.361z"/>
	<g>
		<path fill="#A8DADC" d="M221.574,141.928c0,0-5.338,2.016-8.211,5.287c-3.096,3.527-4.078,8.709-4.078,8.709
			s-1.492-5.389-5.191-8.639c-3.863-3.391-8.805-3.65-8.805-3.65s5.162-1.449,8.197-4.971c3.014-3.498,4.093-9.025,4.093-9.025
			s1.647,5.078,4.651,7.811C216.237,141.092,221.574,141.928,221.574,141.928z"/>
		<path fill="#A8DADC" d="M226.395,124.939c0,0-2.245,0.849-3.453,2.225c-1.301,1.48-1.715,3.66-1.715,3.66
			s-0.627-2.266-2.182-3.633c-1.625-1.426-3.704-1.536-3.704-1.536s2.171-0.608,3.448-2.09c1.268-1.47,1.721-3.794,1.721-3.794
			s0.691,2.135,1.956,3.283C224.15,124.587,226.395,124.939,226.395,124.939z"/>
	</g>
</g>
</svg>
