<?xml version="1.0" encoding="utf-8"?>
<!-- Generator: Adobe Illustrator 16.0.0, SVG Export Plug-In . SVG Version: 6.00 Build 0)  -->
<!DOCTYPE svg PUBLIC "-//W3C//DTD SVG 1.1//EN" "http://www.w3.org/Graphics/SVG/1.1/DTD/svg11.dtd">
<svg version="1.1" id="Layer_1" xmlns="http://www.w3.org/2000/svg" xmlns:xlink="http://www.w3.org/1999/xlink" x="0px" y="0px"
	 width="100px" height="100px" viewBox="0 0 100 100" enable-background="new 0 0 100 100" xml:space="preserve">
<g>
	<circle fill="#E7EDFF" cx="50.153" cy="50" r="50"/>
	<g>
		<g>
			<g>
				<path fill="#2C5EDD" d="M29.971,27h41.072c-0.058-1-0.927-4-3.063-4H26.283C23.181,23,22,25.075,22,27.271v41.767
					c0,1.955,2,3.201,3,3.451V30.959C25,28.764,26.716,27,29.971,27z"/>
			</g>
		</g>
		<path fill="#2C5EDD" d="M77.417,75.184c0,2.195-1.076,3.66-3.29,3.66H32.43c-2.214,0-4.799-1.465-4.799-3.66V33.418
			c0-2.196,1.159-4.361,4.799-4.361h41.697c2.214,0,3.29,2.165,3.29,4.361V75.184z"/>
		<path fill="#E7EDFF" d="M70.527,74.555l-35.282-0.043c-2.086,0-4.058-0.898-4.058-2.986v-6.139l10.129-10.197
			c0.167-0.18,0.657-0.193,0.841-0.033c3.203,2.766,11.484,9.953,10.913,9.408c0.466,0.443,1.577-0.725,1.134-1.135
			c-1.295-1.197-3.447-3.256-4.573-4.252c-0.184-0.164-0.191-0.443-0.025-0.627l12.168-13.688c0.165-0.184,0.444-0.192,0.619-0.02
			l10.75,10.536c0.175,0.172,0.718,0.523,0.718,0.77v15.328C73.861,73.564,72.875,74.555,70.527,74.555z"/>
		<circle fill="#E7EDFF" cx="45.066" cy="42.073" r="5.583"/>
	</g>
</g>
</svg>
