<?xml version="1.0" encoding="utf-8"?>
<!-- Generator: Adobe Illustrator 16.0.0, SVG Export Plug-In . SVG Version: 6.00 Build 0)  -->
<!DOCTYPE svg PUBLIC "-//W3C//DTD SVG 1.1//EN" "http://www.w3.org/Graphics/SVG/1.1/DTD/svg11.dtd">
<svg version="1.1" id="Layer_1" xmlns="http://www.w3.org/2000/svg" xmlns:xlink="http://www.w3.org/1999/xlink" x="0px" y="0px"
	 width="100px" height="100px" viewBox="0 0 100 100" enable-background="new 0 0 100 100" xml:space="preserve">
<g>
	<circle fill="#DCFAF8" cx="50" cy="50" r="50"/>
	<g>
		<g>
			<path fill-rule="evenodd" clip-rule="evenodd" fill="#16DBCC" d="M35.801,44.699c2.763,0,5.107-0.066,7.445,0.025
				c1.219,0.047,1.641-0.242,1.623-1.561c-0.08-5.478,0-10.956-0.062-16.434c-0.013-1.147,0.318-1.454,1.437-1.414
				c2.414,0.083,4.837,0.103,7.247-0.005c1.311-0.059,1.728,0.262,1.704,1.646c-0.086,5.423,0.005,10.849-0.065,16.272
				c-0.02,1.226,0.326,1.546,1.519,1.496c2.355-0.095,4.716-0.025,7.02-0.025c0.272,0.367,0.049,0.558-0.118,0.756
				c-4.23,5.002-8.464,10.002-12.692,15.006c-0.471,0.561-0.81,1.111-1.569,0.207C44.92,55.438,40.5,50.249,35.801,44.699z"/>
			<path fill-rule="evenodd" clip-rule="evenodd" fill="#16DBCC" d="M50.118,65.344c6.394,0,12.788,0.02,19.181-0.021
				c1.015-0.006,1.431,0.215,1.369,1.318c-0.094,1.662-0.114,3.336,0.004,4.992c0.095,1.264-0.375,1.488-1.534,1.484
				c-9.993-0.047-19.991-0.027-29.986-0.027c-2.845,0-5.693-0.037-8.542,0.02c-0.95,0.02-1.337-0.193-1.285-1.236
				c0.087-1.713,0.102-3.441-0.002-5.154c-0.072-1.178,0.359-1.408,1.451-1.4C37.222,65.371,43.67,65.344,50.118,65.344z"/>
		</g>
	</g>
</g>
</svg>
