<?xml version="1.0" encoding="utf-8"?>
<!-- Generator: Adobe Illustrator 16.0.0, SVG Export Plug-In . SVG Version: 6.00 Build 0)  -->
<!DOCTYPE svg PUBLIC "-//W3C//DTD SVG 1.1//EN" "http://www.w3.org/Graphics/SVG/1.1/DTD/svg11.dtd">
<svg version="1.1" id="Layer_1" xmlns="http://www.w3.org/2000/svg" xmlns:xlink="http://www.w3.org/1999/xlink" x="0px" y="0px"
	 width="82px" height="82px" viewBox="0 0 82 82" enable-background="new 0 0 82 82" xml:space="preserve">
<g>
	<circle fill="#FFF5D9" cx="41" cy="41" r="40.86"/>
	<g>
		<path fill="#FFBB38" d="M51.186,53.58c-1.836,1.744-4.5,2.802-7.988,3.172v5.187h-3.796v-5.14
			c-2.285-0.155-4.445-0.571-6.482-1.25c-2.038-0.68-3.658-1.544-4.862-2.594l2.083-4.677c1.143,0.926,2.531,1.706,4.168,2.339
			c1.636,0.633,3.334,1.026,5.094,1.18v-9.261c-2.192-0.524-4.021-1.104-5.487-1.737c-1.467-0.632-2.693-1.558-3.682-2.778
			c-0.988-1.219-1.481-2.832-1.481-4.839c0-2.5,0.91-4.631,2.732-6.391c1.82-1.759,4.46-2.809,7.918-3.149V18.41h3.796v5.14
			c1.729,0.092,3.42,0.386,5.072,0.88c1.65,0.494,3.094,1.142,4.328,1.945l-1.898,4.677c-2.346-1.358-4.846-2.191-7.502-2.5v9.354
			c2.225,0.525,4.068,1.096,5.535,1.713c1.465,0.618,2.701,1.536,3.703,2.755c1.004,1.22,1.506,2.833,1.506,4.839
			C53.941,49.714,53.023,51.836,51.186,53.58z M35.928,35.358c0.802,0.618,1.96,1.143,3.473,1.575V28.69
			c-1.574,0.247-2.748,0.741-3.52,1.481c-0.771,0.741-1.157,1.652-1.157,2.732C34.724,33.923,35.125,34.741,35.928,35.358z
			 M46.834,50.27c0.787-0.71,1.18-1.59,1.18-2.64s-0.416-1.891-1.25-2.524c-0.834-0.632-2.021-1.164-3.566-1.598v8.197
			C44.834,51.458,46.047,50.98,46.834,50.27z"/>
	</g>
</g>
</svg>
