<?xml version="1.0" encoding="utf-8"?>
<!-- Generator: Adobe Illustrator 16.0.0, SVG Export Plug-In . SVG Version: 6.00 Build 0)  -->
<!DOCTYPE svg PUBLIC "-//W3C//DTD SVG 1.1//EN" "http://www.w3.org/Graphics/SVG/1.1/DTD/svg11.dtd">
<svg version="1.1" id="Layer_1" xmlns="http://www.w3.org/2000/svg" xmlns:xlink="http://www.w3.org/1999/xlink" x="0px" y="0px"
	 width="100px" height="100px" viewBox="0 0 100 100" enable-background="new 0 0 100 100" xml:space="preserve">
<g>
	<circle fill="#dcfaf8" cx="50.172" cy="50" r="50"/>
	<g>
		<g>
			<path fill-rule="evenodd" clip-rule="evenodd" fill="#16dbcc" d="M73.282,37.818c-2.896,6.126-5.525,11.188-8.332,16.764
				c-0.695,1.389-1.933,2.031-3.494,2.031c-5.143-0.004-10.286,0.012-15.426-0.021c-0.659-0.004-0.998,0.178-1.26,0.766
				c-0.46,1.039-0.991,2.045-1.557,3.189c0.515,0,0.887,0,1.256,0c7.403,0,14.805-0.01,22.205,0.004
				c0.483,0,0.987,0.021,1.432,0.174c0.898,0.313,1.302,1.023,1.218,1.959c-0.074,0.885-0.567,1.479-1.449,1.678
				c-0.336,0.076-0.688,0.08-1.034,0.08c-7.714,0.01-15.427,0.01-23.143,0.004c-3.571-0.004-5.338-2.822-3.785-6.031
				c0.619-1.277,1.308-2.525,1.883-3.822c0.161-0.371,0.174-0.949,0-1.307c-3.188-6.476-6.419-12.93-9.616-19.396
				c-0.28-0.57-0.622-0.745-1.209-0.711c-0.657,0.039-1.324-0.025-1.98,0.018c-1.191,0.076-2.354-0.243-2.635-1.426
				c-0.191-0.813,0-1.669,0-2.503c2.362,0,3.753-0.166,7.092,0c1.466,0.072,1.681,1.86,2.214,2.988
				c0.349,0.737,0.76,0.971,1.575,0.971c10.404-0.034,20.813-0.208,31.217-0.021C73.647,33.297,74.397,35.451,73.282,37.818z"/>
			<path fill-rule="evenodd" clip-rule="evenodd" fill="#16dbcc" d="M47.595,70.418c0,2.074-1.679,3.756-3.752,3.756
				s-3.752-1.682-3.752-3.756c0-2.068,1.679-3.754,3.752-3.754S47.595,68.35,47.595,70.418z"/>
			<path fill-rule="evenodd" clip-rule="evenodd" fill="#16dbcc" d="M68.776,70.418c0,2.074-1.682,3.756-3.754,3.756
				c-2.075,0-3.753-1.682-3.753-3.756c0-2.068,1.678-3.754,3.753-3.754C67.095,66.664,68.776,68.35,68.776,70.418z"/>
		</g>
	</g>
</g>
</svg>
