<?xml version="1.0" encoding="utf-8"?>
<!-- Generator: Adobe Illustrator 16.0.0, SVG Export Plug-In . SVG Version: 6.00 Build 0)  -->
<!DOCTYPE svg PUBLIC "-//W3C//DTD SVG 1.1//EN" "http://www.w3.org/Graphics/SVG/1.1/DTD/svg11.dtd">
<svg version="1.1" id="Layer_1" xmlns="http://www.w3.org/2000/svg" xmlns:xlink="http://www.w3.org/1999/xlink" x="0px" y="0px"
	 width="100px" height="100px" viewBox="0 0 100 100" enable-background="new 0 0 100 100" xml:space="preserve">
<g>
	<circle fill="#DCFAF8" cx="50.403" cy="50" r="50"/>
	<g>
		<g>
			<path fill-rule="evenodd" clip-rule="evenodd" fill="#16DBCC" d="M68.12,39.208c3.176,0,6.294-0.1,9.403,0.03
				c2.778,0.115,4.55,2.041,4.581,4.874c0.061,5.224,0.025,10.448,0.025,15.674c0.001,4.937-1.114,6.166-6.313,6.647
				c0,1.719,0.035,2.758-0.045,5.224c-0.027,0.854-0.11,1.998-1.041,2.385c-0.448,0.186-1.642-0.272-2.266-0.761
				c-2.41-1.879-4.667-3.956-7.101-5.802c-0.833-0.632-2.009-1.104-3.041-1.133c-4.456-0.122-8.918-0.021-13.377-0.064
				c-3.523-0.033-5.479-2.539-4.816-6.348c1.532,0,3.108,0,4.685,0c3.44,0,6.881,0.02,10.32-0.006
				c5.439-0.045,8.673-3.283,8.706-8.694c0.024-3.819,0.028-7.642,0.048-11.464C67.89,39.656,67.979,39.543,68.12,39.208z"/>
			<path fill-rule="evenodd" clip-rule="evenodd" fill="#16DBCC" d="M65.024,44.975c0-4.969,0.038-9.939-0.019-14.908
				c-0.033-3.075-1.761-5.108-4.507-5.122c-11.848-0.058-23.697-0.053-35.547-0.002c-2.545,0.01-4.468,1.97-4.488,4.528
				c-0.057,7.581-0.057,15.162,0.003,22.741c0.019,2.459,1.897,4.282,4.344,4.497c0.559,0.051,1.121,0.06,1.962,0.102
				c0,3.016-0.127,5.819,0.044,8.61c0.159,2.624,1.435,3.134,3.297,1.249c2.684-2.718,5.053-5.734,7.479-8.686
				c0.763-0.931,1.545-1.291,2.747-1.281c6.497,0.06,12.995,0.045,19.494,0.021c3.244-0.012,5.079-1.805,5.175-5.063
				C65.072,49.435,65.024,47.203,65.024,44.975z"/>
		</g>
	</g>
</g>
</svg>
