<?xml version="1.0" encoding="utf-8"?>
<!-- Generator: Adobe Illustrator 16.0.0, SVG Export Plug-In . SVG Version: 6.00 Build 0)  -->
<!DOCTYPE svg PUBLIC "-//W3C//DTD SVG 1.1//EN" "http://www.w3.org/Graphics/SVG/1.1/DTD/svg11.dtd">
<svg version="1.1" id="Layer_1" xmlns="http://www.w3.org/2000/svg" xmlns:xlink="http://www.w3.org/1999/xlink" x="0px" y="0px"
	 width="100px" height="100px" viewBox="0 0 100 100" enable-background="new 0 0 100 100" xml:space="preserve">
<g>
	<circle fill="#DCFAF8" cx="50" cy="50" r="50"/>
	<g>
		<path fill="#16DBCC" d="M51.947,64.574c5.054,0,9.185-1.998,12.393-5.996l6.591,6.787c-5.23,5.889-11.392,8.832-18.49,8.832
			c-7.094,0-12.939-2.24-17.53-6.723c-4.593-4.48-6.888-10.139-6.888-16.972c0-6.832,2.342-12.533,7.02-17.103
			c4.68-4.569,10.402-6.855,17.17-6.855c7.558,0,13.882,2.879,18.982,8.636L64.8,42.43c-3.251-4.043-7.293-6.064-12.127-6.064
			c-3.867,0-7.173,1.263-9.92,3.789c-2.746,2.528-4.119,5.934-4.119,10.217c0,4.285,1.294,7.723,3.889,10.316
			C45.114,63.279,48.257,64.574,51.947,64.574z"/>
	</g>
</g>
</svg>
