<?xml version="1.0" encoding="utf-8"?>
<!-- Generator: Adobe Illustrator 16.0.0, SVG Export Plug-In . SVG Version: 6.00 Build 0)  -->
<!DOCTYPE svg PUBLIC "-//W3C//DTD SVG 1.1//EN" "http://www.w3.org/Graphics/SVG/1.1/DTD/svg11.dtd">
<svg version="1.1" id="Layer_1" xmlns="http://www.w3.org/2000/svg" xmlns:xlink="http://www.w3.org/1999/xlink" x="0px" y="0px"
	 width="282px" height="250.667px" viewBox="0 0 282 250.667" enable-background="new 0 0 282 250.667" xml:space="preserve">
<g>
	<g>
		<path fill="#F9D7B9" d="M64.332,106.843c-0.188-0.172-0.313-0.276-0.313-0.276l-0.311-17.836
			c-8.718,12.132-24.214-5.373-24.214-5.373l-0.079,22.064c0.068,0.066,0.137,0.128,0.205,0.194
			c11.821,11.466,25.39,11.435,27.471,8.329C68.87,111.29,65.408,107.823,64.332,106.843z"/>
		<path fill="#2583CF" d="M254.506,246.667H27.827c-9.717,0-11.193-11-11.193-11H265.7
			C265.7,235.667,264.223,246.667,254.506,246.667z"/>
		<path fill="#294753" d="M63.713,90.235c0,0,0.845,6.915,9.349,9.127S79.147,98.51,80,95.058
			c0.855-3.453,10.447-21.745,11.108-37.437c0.662-15.691-8.501-44.363-31.852-36.328c0,0-20.102-8.609-33.351,10.145
			c-13.249,18.753-10.948,40.973-6.291,51.799c7.832,18.203,22.06,14.957,24.716,14.395s-2.256-3.413-1.318-9.395L63.713,90.235z"/>
		<path fill="#F9D7B9" d="M79.272,57.493c0,0,1.098,7.198-0.896,12.907c-1.371,3.925-8.021,13.89-14.521,19.71
			c-2.954,2.645-5.876,4.434-8.257,4.411c-3.676-0.036-10.311-3.635-16.109-9.618c-6.222-6.42-11.479-15.585-11.085-26.039
			c0,0,26.025,4.47,32.981-21.501C61.385,37.363,68.206,51.647,79.272,57.493z"/>
		<path fill="#E63946" d="M99.516,188.273l-4.327-21.313C95.189,166.959,96.42,178.548,99.516,188.273z"/>
		<path fill="#E63946" d="M140.917,218.656l13.031-16.493c0,0-24.758-17.003-32.426-23.65c-0.736-0.639-4.09-9.135-7.934-23.776
			c-2.527-9.625-5.908-21.021-11.084-32.968c-1.842-4.251-8.014-7.301-38.173-14.925c1.076,0.979,4.538,4.446,2.759,7.103
			c-2.081,3.105-15.649,3.137-27.471-8.329l-0.21-0.01c0,0-21.097,10.321-27.505,14.843c-6.408,4.522-7.155,10.104-4.803,30.063
			c2.354,19.957,6.715,45.964,7.24,50.33c0.523,4.365,4.178,7.868,10.969,10.197l-1.256,14.436l82.9,1.442l-7.439-38.645
			c-3.096-9.725-4.327-21.313-4.327-21.313l4.327,21.313c1.264,3.972,2.838,7.636,4.768,10.068
			C106.317,200.903,111.678,204.939,140.917,218.656z"/>
		<path fill="#EBCBAE" d="M63.855,90.11c0,0-0.307,0.33-0.844,0.907c-0.554,0.559-1.378,1.352-2.49,2.155
			c-0.555,0.407-1.192,0.807-1.913,1.168c-0.736,0.326-1.543,0.679-2.484,0.754c-0.252,0.01-0.426,0.083-0.75,0.037l-0.641-0.059
			l-0.649-0.059c-0.222-0.035-0.457-0.113-0.687-0.17c-0.458-0.129-0.938-0.244-1.385-0.396l-1.285-0.521
			c-0.871-0.332-1.634-0.842-2.441-1.249c-0.787-0.438-1.492-0.977-2.211-1.439c-0.701-0.485-1.322-1.031-1.935-1.514
			c-0.624-0.468-1.13-1.013-1.626-1.474c-0.484-0.477-0.953-0.885-1.304-1.314c-0.36-0.416-0.675-0.779-0.933-1.078
			c-0.502-0.607-0.789-0.955-0.789-0.955s0.357,0.275,0.983,0.756c0.306,0.245,0.676,0.543,1.101,0.884
			c0.408,0.358,0.936,0.685,1.46,1.095c0.545,0.385,1.097,0.85,1.741,1.256c0.639,0.415,1.291,0.881,1.988,1.322
			c0.713,0.416,1.438,0.867,2.189,1.287c0.773,0.369,1.521,0.85,2.334,1.143l1.191,0.511c0.395,0.142,0.78,0.236,1.166,0.36
			c0.196,0.056,0.377,0.128,0.584,0.171l0.646,0.095l0.638,0.093c0.1,0.044,0.349-0.008,0.515-0.005
			c0.741-0.021,1.48-0.251,2.17-0.485c0.681-0.277,1.323-0.57,1.9-0.89c1.156-0.636,2.083-1.249,2.735-1.688
			C63.483,90.364,63.855,90.11,63.855,90.11z"/>
		<path fill="#F9D7B9" d="M151.85,204.817c0,0,4.945,2.787,8.803,4.136c1.352,0.472,6.021,0.251,6.021,0.251l-3.906,12.997
			l-11.27-0.252l-9.371-5.161L151.85,204.817z"/>
		<path fill="#F9D7B9" d="M78.745,208.011c0,0,6.016,3.385,10.922,3.028c4.907-0.357,11.51-2.767,14.75-1.623
			s11.322,11.618,11.295,12.784c-0.025,1.166-10.613,2.73-22.283,2.809c-11.668,0.077-21.512-3.593-21.512-3.593L78.745,208.011z"/>
		<path fill="#3690D9" d="M5.206,231.167c0,3.221,3.445,5.5,7.696,5.5h256.53c4.25,0,7.695-2.279,7.695-5.5l0,0
			c0-3.221-3.445-5.5-7.695-5.5H12.902C8.651,225.667,5.206,227.946,5.206,231.167L5.206,231.167z"/>
		<path fill="#F1FAEE" d="M17.977,65.532c0.061,3.09,2.615,5.547,5.706,5.486l1.865-0.076c3.091-0.061,5.547-2.615,5.486-5.705
			l-0.022-4.197c-0.061-3.09-2.616-5.547-5.706-5.486l-1.866,0.076c-3.09,0.061-5.547,2.614-5.486,5.705L17.977,65.532z"/>
		<path fill="#F1FAEE" d="M26.975,56.654c0,0,3.005-28.294,29.445-28.48c26.441-0.187,26.114,30.112,26.114,30.112l1.895,0.613
			c0,0,2.118-13.198-3.593-22.035c-5.712-8.836-14.495-12.461-22.875-13.268c-8.379-0.805-21.212,2.797-27.121,11.598
			c-6.804,10.134-6.319,21.678-6.319,21.678L26.975,56.654z"/>
		<path fill="#F1FAEE" d="M28.156,69.801c0,0,1.749,7.279,2.711,7.997c1.273,0.949,14.107,3.177,14.107,3.177l-0.412,2.748
			c0,0-15.076-2.481-16.045-3.566c-1.365-1.53-4.312-9.18-4.312-9.18L28.156,69.801z"/>
		
			<ellipse transform="matrix(-0.9997 -0.0224 0.0224 -0.9997 92.769 166.5368)" fill="#F1FAEE" cx="47.317" cy="82.749" rx="3.903" ry="3.452"/>
		<path fill="#F1FAEE" d="M79.465,58.742c-0.127-2.486,8.386-1.161,7.832,5.628c-0.758,9.278-9.045,6.705-8.577,4.77
			c0.435-1.797,0.676-2.998,0.794-4.939C79.61,62.629,79.6,61.369,79.465,58.742z"/>
		<g>
			<g>
				<path fill="#CE293D" d="M70.868,223.094c0,0-2.942-0.356-7.296-1.162c-2.179-0.395-4.712-0.896-7.414-1.485
					c-2.706-0.574-5.573-1.267-8.439-1.968c-1.427-0.374-2.854-0.748-4.259-1.116c-1.408-0.356-2.775-0.781-4.107-1.154
					c-1.333-0.369-2.607-0.787-3.82-1.162c-1.214-0.371-2.349-0.772-3.398-1.131c-2.097-0.727-3.819-1.421-5.004-1.952
					c-0.599-0.246-1.04-0.526-1.35-0.676c-0.306-0.162-0.469-0.248-0.469-0.248s0.178,0.054,0.51,0.155
					c0.336,0.095,0.808,0.263,1.435,0.42c1.246,0.331,3.033,0.76,5.179,1.273c2.148,0.507,4.654,1.099,7.339,1.732
					c2.687,0.63,5.539,1.353,8.4,2.05c1.426,0.366,2.852,0.732,4.255,1.094c1.401,0.371,2.78,0.736,4.115,1.09
					c2.667,0.718,5.151,1.413,7.273,2.04C68.066,222.129,70.868,223.094,70.868,223.094z"/>
			</g>
			<g>
				<path fill="#CE293D" d="M35.435,158.197c0,0,0.166,1.19,0.419,3.275c0.244,2.085,0.594,5.063,1.013,8.638
					c0.391,3.572,0.846,7.741,1.333,12.207c0.113,1.117,0.244,2.248,0.395,3.387c0.151,1.13,0.266,2.331,0.476,3.378l0.139,0.813
					l0.017,0.103l0.004,0.025c-0.02-0.046,0.05,0.14-0.043-0.097l0.025,0.049c0.015,0.026,0.039,0.083,0.045,0.084
					c0-0.02-0.005-0.038-0.014-0.053c-0.045-0.052,0.015,0.008,0.043,0.032c0.027,0.028,0.071,0.063,0.119,0.098
					c0.371,0.283,0.883,0.568,1.388,0.827c1.024,0.522,2.11,0.998,3.203,1.457c2.182,0.934,4.41,1.799,6.61,2.63
					c2.206,0.823,4.377,1.633,6.479,2.417c4.219,1.543,8.157,2.983,11.532,4.219c3.374,1.252,6.185,2.295,8.153,3.025
					c1.964,0.746,3.086,1.172,3.086,1.172s-1.169-0.28-3.197-0.826c-2.023-0.564-4.928-1.323-8.378-2.354
					c-3.455-1.016-7.468-2.257-11.739-3.685c-2.133-0.724-4.343-1.454-6.563-2.279c-2.223-0.817-4.476-1.666-6.71-2.602
					c-1.113-0.48-2.221-0.977-3.32-1.549c-0.552-0.295-1.091-0.584-1.664-1.024c-0.24-0.167-0.79-0.706-0.808-1.157l-0.162-0.935
					c-0.25-1.271-0.318-2.408-0.44-3.574c-0.121-1.159-0.222-2.302-0.305-3.424c-0.192-2.245-0.331-4.417-0.453-6.476
					c-0.138-2.059-0.231-4.007-0.313-5.805c-0.183-3.595-0.234-6.597-0.31-8.695C35.438,159.398,35.435,158.197,35.435,158.197z"/>
			</g>
			<g>
				<path fill="#CE293D" d="M92.805,158.808c0,0,0.748,1.877,1.63,4.746c0.45,1.433,0.936,3.113,1.417,4.923
					c0.232,0.907,0.498,1.838,0.72,2.795c0.229,0.955,0.461,1.926,0.694,2.896c0.212,0.976,0.424,1.951,0.632,2.911
					c0.218,0.958,0.38,1.912,0.564,2.83c0.353,1.839,0.644,3.563,0.859,5.05c0.45,2.969,0.587,4.984,0.588,4.984
					s-0.75-1.876-1.632-4.746c-0.451-1.433-0.937-3.113-1.417-4.923c-0.231-0.907-0.5-1.837-0.719-2.795
					c-0.229-0.955-0.461-1.926-0.693-2.896c-0.211-0.976-0.423-1.951-0.631-2.911c-0.215-0.959-0.379-1.913-0.563-2.83
					c-0.352-1.84-0.643-3.564-0.859-5.051C92.945,160.824,92.806,158.808,92.805,158.808z"/>
			</g>
		</g>
		<path fill="#CE293D" d="M68.043,219.395c-0.781,2.455,0.574,4.078,3.029,4.86l1.24,0.531c2.455,0.783,5.078-0.573,5.859-3.027
			l4.249-12.332c0.782-2.455-0.573-5.078-3.028-5.86l-1.24-0.531c-2.455-0.783-5.078,0.573-5.86,3.027L68.043,219.395z"/>
		<path fill="#CE293D" d="M139.073,214.284c-1.503,2.093-0.746,4.074,1.346,5.577l0,0c2.092,1.502,5.007,1.024,6.51-1.068
			l8.162-11.365c1.502-2.092,1.024-5.006-1.068-6.509l0,0c-2.092-1.503-4.456-1.355-5.959,0.736L139.073,214.284z"/>
		<g>
			<path fill="#F2F2F2" d="M253.439,225.667h-88.153c-2.576,0-2.855-2.406-2.35-4.932l13.096-65.486
				c0.506-2.526,1.604-4.582,4.18-4.582h88.152c2.576,0,4.256,1.877,3.75,4.402l-13.096,65.752
				C258.512,223.346,256.015,225.667,253.439,225.667z"/>
			<path fill="#FFFFFF" d="M221.397,190.822c1.199-3.551-0.178-7.345-3.121-9.368c1.359-0.156,2.773-0.025,4.155,0.441
				c5.013,1.693,7.702,7.129,6.009,12.141c-1.691,5.012-7.127,7.703-12.139,6.01c-2.191-0.74-3.939-2.195-5.07-4.018
				C215.458,197.325,219.973,195.036,221.397,190.822z"/>
			<rect x="89.667" y="219.667" fill="#E6E6E6" width="75" height="6"/>
			<polygon fill="#E6E6E6" points="179.852,150.405 164.57,224.878 161.448,223.472 176.44,150.411 			"/>
		</g>
	</g>
	<g>
		<path fill="#FFFFFF" d="M195.821,3.667h-74.309c-4.886,0-8.846,3.725-8.846,8.609v30.962v17.897c0,0,6.414-7.469,19.904-7.469
			c17.139,0,46.109,0,63.25,0c4.886,0,8.846-3.773,8.846-8.66v-32.73C204.667,7.391,200.707,3.667,195.821,3.667z"/>
		<g>
			
				<line fill="none" stroke="#60B6FB" stroke-width="3.5" stroke-linecap="round" stroke-linejoin="round" stroke-miterlimit="10" x1="155.052" y1="17.125" x2="188.153" y2="17.159"/>
			
				<line fill="none" stroke="#60B6FB" stroke-width="3.5" stroke-linecap="round" stroke-linejoin="round" stroke-miterlimit="10" x1="155.058" y1="30.51" x2="188.159" y2="30.543"/>
			
				<line fill="none" stroke="#60B6FB" stroke-width="3.5" stroke-linecap="round" stroke-linejoin="round" stroke-miterlimit="10" x1="128.293" y1="42.78" x2="188.166" y2="42.813"/>
		</g>
		<path fill="#60B6FB" d="M138.618,23.147c0.953-1.018,1.539-2.427,1.539-3.93c0-3.139-2.544-5.705-5.683-5.705
			c-3.138,0-5.682,2.533-5.682,5.672c0,1.502,0.585,2.952,1.538,3.968c-3.231,1.548-5.467,4.481-5.467,8.751
			c0,4.981,19.221,4.981,19.221,0C144.084,27.633,141.85,24.694,138.618,23.147z"/>
	</g>
	<g>
		<path fill="#FFFFFF" d="M175.28,74.625c-14.086-4.604-29.241,3.084-33.842,17.172c-1.523,4.656-1.473,9.385-0.742,13.895
			c0.535,3.309,0.814,7.313-3.75,12.871c0,0,6.393-2.261,13.504,2.744l-0.004-0.004c2.383,1.858,5.123,3.345,8.166,4.338
			c14.088,4.604,29.24-3.084,33.842-17.173S189.37,79.229,175.28,74.625z"/>
		<g>
			<g>
				<path fill="#60B6FB" d="M169.181,106.589l-6.237-0.017l0.008-3.077c0.005-1.123,0.15-1.963,0.438-2.523
					c0.288-0.56,0.898-1.316,1.832-2.272l2.799-2.865c0.411-0.491,0.618-1.126,0.62-1.905c0.001-0.78-0.216-1.43-0.65-1.951
					c-0.438-0.521-1.011-0.783-1.722-0.785c-0.712-0.002-1.308,0.305-1.789,0.92c-0.479,0.613-0.775,1.427-0.888,2.438l-6.524-0.019
					c0.307-2.734,1.313-4.879,3.013-6.434s3.829-2.328,6.388-2.322c2.556,0.007,4.635,0.711,6.232,2.109
					c1.596,1.4,2.391,3.331,2.383,5.793c-0.002,1.096-0.143,1.908-0.417,2.441s-0.468,0.914-0.577,1.146s-0.363,0.581-0.763,1.045
					c-0.396,0.464-0.665,0.764-0.802,0.9c-0.658,0.654-1.281,1.268-1.873,1.842c-0.59,0.572-0.979,1.043-1.173,1.412
					c-0.191,0.368-0.289,0.922-0.291,1.662L169.181,106.589z M163.559,114.391c-0.696-0.698-1.042-1.556-1.04-2.567
					s0.354-1.866,1.053-2.562c0.701-0.695,1.556-1.042,2.568-1.04c1.012,0.004,1.866,0.354,2.563,1.054
					c0.694,0.7,1.041,1.556,1.039,2.567c-0.003,1.013-0.354,1.866-1.054,2.563c-0.699,0.695-1.556,1.042-2.567,1.039
					C165.108,115.441,164.253,115.091,163.559,114.391z"/>
			</g>
		</g>
	</g>
</g>
</svg>
