<?xml version="1.0" encoding="utf-8"?>
<!-- Generator: Adobe Illustrator 16.0.0, SVG Export Plug-In . SVG Version: 6.00 Build 0)  -->
<!DOCTYPE svg PUBLIC "-//W3C//DTD SVG 1.1//EN" "http://www.w3.org/Graphics/SVG/1.1/DTD/svg11.dtd">
<svg version="1.1" id="Layer_1" xmlns="http://www.w3.org/2000/svg" xmlns:xlink="http://www.w3.org/1999/xlink" x="0px" y="0px"
	 width="1280px" height="309px" viewBox="0 0 1280 309" enable-background="new 0 0 1280 309" xml:space="preserve">
<g>
	<rect fill="#60B6FB" width="1280" height="309"/>
	<g>
		<g>
			<g>
				<path fill="#3D99D8" d="M1218.115,264.107l-14.732,4.484c-3.236,0.982-6.314,0.48-8.449-1.375
					c-2.133-1.854-3.057-4.828-2.535-8.16c0.135-0.867,0.289-1.732,0.443-2.6c0.238-1.346,0.486-2.738,0.65-4.094
					c0.014-0.129-0.068-0.445-0.148-0.555c-4.49-4.787-9.02-9.58-13.547-14.371c-3.432-3.631-6.863-7.262-10.285-10.9
					c-0.041-0.043-0.074-0.076-0.1-0.1c0,0-0.008,0.002-0.014,0.004l-0.104,0.033c-0.529,0.197-1.072,0.352-1.615,0.508
					c-0.475,0.137-0.947,0.27-1.408,0.441c-0.203,0.078-0.406,0.146-0.607,0.207c-2.803,0.855-5.115,0.143-6.34-1.955
					c-0.594-1.021-0.838-2.105-1.051-3.061c-0.088-0.396-0.176-0.793-0.293-1.176l-0.535-1.754l1.756-0.535
					c1.191-0.363,2.213-0.705,3.232-1.047c1.051-0.352,2.104-0.703,3.332-1.078c1.387-0.422,2.832-0.822,4.42-1.219
					c2.947-0.744,4.668,1.561,5.805,3.086c0.283,0.379,0.553,0.738,0.801,1.014c0.379,0.416,0.379,0.416,0.982,0.232
					c4.475-1.381,8.951-2.779,13.43-4.178c5.98-1.867,12.166-3.801,18.264-5.658c6.025-1.836,11.354-3.414,16.289-4.82
					c4.744-1.354,8.051-1.135,10.107,0.666c1.088,0.951,2.283,2.799,1.789,6.191c-1.211,8.242-2.447,15.309-3.756,22.791
					c-0.4,2.277-0.801,4.572-1.203,6.914c-0.52,3.035-2.541,5.238-5.693,6.199l-3.037,0.924l-7.76,2.365
					c-4.307,1.313-8.611,2.619-12.924,3.902h-0.002c-0.123,0.037-0.203,0.068-0.254,0.09c-0.008,0.035-0.016,0.082-0.023,0.143
					c-0.113,0.93-0.256,1.844-0.412,2.781l18.582-5.666c4.875-1.484,9.748-2.969,14.625-4.443c0.887-0.271,1.854-0.518,2.879-0.482
					c2.336,0.09,4.023,1.545,4.518,3.898c0.467,2.168-0.402,4.127-2.33,5.225c-0.633,0.363-1.27,0.57-1.924,0.77
					C1232,259.873,1225.059,261.992,1218.115,264.107z M1168.328,222.93c1.465-0.445,2.764-0.076,3.861,1.098
					c3.416,3.631,6.844,7.26,10.273,10.889c4.531,4.797,9.063,9.594,13.578,14.406c0.787,0.846,1.236,2.271,1.096,3.475
					c-0.178,1.465-0.436,2.908-0.684,4.303c-0.148,0.842-0.299,1.682-0.43,2.523c-0.326,2.09,0.141,3.803,1.316,4.824
					c1.18,1.025,2.945,1.25,4.977,0.633l14.729-4.482c6.941-2.115,13.883-4.234,20.822-6.355c0.463-0.143,0.869-0.271,1.174-0.447
					c0.551-0.314,0.697-0.648,0.561-1.277c-0.166-0.803-0.516-0.971-1.063-0.992c-0.484-0.018-1.092,0.145-1.678,0.322
					c-4.877,1.479-9.75,2.961-14.623,4.445l-24.25,7.395l0.482-2.916c0.094-0.578,0.191-1.141,0.285-1.688
					c0.23-1.342,0.451-2.609,0.602-3.863c0.213-1.721,1.111-2.766,2.83-3.289c4.35-1.295,8.648-2.598,12.947-3.908l7.758-2.367
					l3.041-0.924c1.828-0.557,2.857-1.641,3.143-3.309c0.402-2.348,0.805-4.645,1.205-6.926c1.305-7.457,2.537-14.5,3.74-22.689
					c0.141-0.969,0.156-2.26-0.574-2.9c-0.467-0.408-2.055-1.217-6.686,0.102c-4.914,1.402-10.221,2.973-16.227,4.803
					c-6.086,1.854-12.264,3.783-18.238,5.65c-4.482,1.4-8.963,2.801-13.449,4.184c-1.959,0.596-3.43,0.203-4.771-1.273
					c-0.369-0.406-0.703-0.854-1.027-1.287c-0.98-1.316-1.471-1.848-1.969-1.723c-1.527,0.385-2.916,0.768-4.244,1.172
					c-1.195,0.365-2.217,0.707-3.238,1.049c-0.549,0.184-1.098,0.367-1.67,0.553c0.146,0.643,0.303,1.238,0.566,1.691
					c0.113,0.193,0.463,0.793,2.1,0.293c0.129-0.039,0.256-0.082,0.385-0.131c0.547-0.207,1.121-0.373,1.695-0.537
					c0.451-0.129,0.908-0.256,1.348-0.42C1168.127,222.996,1168.23,222.961,1168.328,222.93z"/>
			</g>
			<g>
				<path fill="#3D99D8" d="M1207.896,283.549c-4.146,1.264-8.549-1.084-9.813-5.232c-1.264-4.15,1.082-8.553,5.229-9.814
					c4.145-1.264,8.547,1.082,9.813,5.23C1214.389,277.883,1212.043,282.285,1207.896,283.549z M1204.381,272.01
					c-2.211,0.674-3.461,3.023-2.785,5.236c0.674,2.215,3.02,3.467,5.232,2.791c2.211-0.674,3.461-3.02,2.785-5.234
					C1208.939,272.59,1206.592,271.336,1204.381,272.01z"/>
			</g>
			<g>
				<path fill="#3D99D8" d="M1240.436,273.635c-4.146,1.262-8.549-1.084-9.813-5.232c-1.264-4.15,1.082-8.553,5.229-9.816
					c4.148-1.264,8.551,1.082,9.814,5.232C1246.932,267.967,1244.584,272.369,1240.436,273.635z M1236.92,262.096
					c-2.211,0.674-3.461,3.021-2.787,5.236c0.676,2.213,3.021,3.465,5.232,2.791c2.215-0.674,3.465-3.021,2.791-5.236
					C1241.482,262.674,1239.133,261.42,1236.92,262.096z"/>
			</g>
		</g>
	</g>
	<g>
		<path fill="none" stroke="#3D99D8" stroke-width="3.6692" stroke-linejoin="round" stroke-miterlimit="10" d="M1161.096,53.127
			c-17.898-5.849-37.154,3.919-43,21.819c-1.936,5.916-1.871,11.924-0.943,17.654c0.682,4.203,1.035,9.292-4.764,16.354
			c0,0,8.123-2.873,17.158,3.486l-0.006-0.005c3.027,2.361,6.51,4.25,10.377,5.512c17.898,5.85,37.152-3.918,42.998-21.819
			C1188.764,78.227,1178.998,58.977,1161.096,53.127z"/>
		<path fill="none" stroke="#3D99D8" stroke-width="3.6692" stroke-linejoin="round" stroke-miterlimit="10" d="M1181.148,70.601
			c1.873-0.452,3.807-0.751,5.795-0.883c18.787-1.241,35.031,12.984,36.268,31.773c0.414,6.212-1.135,12.017-3.451,17.34
			c-1.697,3.905-3.299,8.749,0.574,17.024c0,0-7.16-4.792-17.488-0.864l0.006-0.004c-3.518,1.54-7.357,2.509-11.416,2.775
			c-14.242,0.94-27.018-7.003-32.908-19.085"/>
		<g>
			<path fill="none" stroke="#3D99D8" stroke-width="3.6692" stroke-linejoin="round" stroke-miterlimit="10" d="M1153.559,91.692
				l-7.926-0.021l0.01-3.91c0.008-1.427,0.191-2.494,0.559-3.206c0.365-0.711,1.141-1.673,2.328-2.888l3.555-3.641
				c0.523-0.624,0.787-1.431,0.789-2.42c0-0.992-0.275-1.817-0.826-2.479c-0.557-0.661-1.285-0.995-2.188-0.998
				c-0.904-0.002-1.662,0.388-2.273,1.169c-0.609,0.779-0.986,1.813-1.129,3.099l-8.289-0.024c0.389-3.474,1.668-6.198,3.828-8.174
				s4.865-2.958,8.115-2.951c3.248,0.009,5.889,0.903,7.92,2.681c2.027,1.779,3.037,4.232,3.027,7.36
				c-0.004,1.393-0.182,2.425-0.531,3.103c-0.348,0.678-0.594,1.161-0.732,1.457c-0.139,0.295-0.461,0.737-0.969,1.327
				c-0.504,0.59-0.846,0.97-1.02,1.144c-0.836,0.832-1.627,1.611-2.379,2.341c-0.75,0.727-1.244,1.325-1.49,1.794
				c-0.244,0.468-0.367,1.172-0.369,2.112L1153.559,91.692z M1146.416,105.276c-0.885-0.887-1.324-1.977-1.322-3.262
				s0.449-2.371,1.338-3.255c0.891-0.883,1.977-1.324,3.264-1.321c1.285,0.005,2.371,0.45,3.256,1.339
				c0.883,0.89,1.322,1.977,1.32,3.262c-0.004,1.287-0.451,2.372-1.34,3.256s-1.977,1.324-3.262,1.32
				C1148.383,106.61,1147.297,106.166,1146.416,105.276z"/>
		</g>
		<path fill="none" stroke="#3D99D8" stroke-width="3.6692" stroke-linejoin="round" stroke-miterlimit="10" d="M1180.104,109.946
			c-0.996-0.977-1.496-2.214-1.496-3.71c0-1.538,0.488-2.786,1.465-3.742s2.193-1.435,3.648-1.435s2.672,0.479,3.648,1.435
			s1.467,2.204,1.467,3.742c0,1.496-0.5,2.733-1.498,3.71c-0.996,0.978-2.203,1.466-3.617,1.466S1181.102,110.924,1180.104,109.946z
			"/>
		<path fill="none" stroke="#3D99D8" stroke-width="3.6692" stroke-linejoin="round" stroke-miterlimit="10" d="M1197.156,109.946
			c-0.998-0.977-1.496-2.214-1.496-3.71c0-1.538,0.488-2.786,1.465-3.742s2.191-1.435,3.648-1.435c1.455,0,2.67,0.479,3.648,1.435
			c0.977,0.956,1.465,2.204,1.465,3.742c0,1.496-0.498,2.733-1.496,3.71c-0.998,0.978-2.205,1.466-3.617,1.466
			C1199.359,111.412,1198.154,110.924,1197.156,109.946z"/>
	</g>
	<g>
		<path fill="none" stroke="#3D99D8" stroke-width="3.6692" stroke-linejoin="round" stroke-miterlimit="10" d="M1037.25,120.527
			c0.48,3.119-0.232,5.375-3.377,5.861l-59.229,9.135c-3.146,0.484-6.887-1.086-7.367-4.204l-9.15-59.327
			c-0.482-3.12,0.441-6.383,5.611-7.181l59.23-9.135c3.145-0.484,4.65,2.403,5.133,5.524L1037.25,120.527z"/>
		<path fill="none" stroke="#3D99D8" stroke-width="3.6692" stroke-linejoin="round" stroke-miterlimit="10" d="M1026.074,120.748
			l-47.596,7.533c-2.963,0.457-4.594-0.768-5.051-3.734l-1.527-7.997l9.992-16.563c0.197-0.291,0.986-0.434,1.281-0.246
			c5.156,3.227,18.541,11.614,17.611,10.968c0.76,0.527,2.105-1.379,1.385-1.865c-2.102-1.417-5.598-3.87-7.416-5.041
			c-0.297-0.191-0.361-0.588-0.166-0.884l14.289-22.11c0.193-0.297,0.592-0.371,0.877-0.164l15.652,13.011
			c0.285,0.207,0.836,0.632,0.889,0.982l3.543,21.053C1030.295,118.654,1029.41,120.233,1026.074,120.748z"/>
		
			<circle fill="none" stroke="#3D99D8" stroke-width="3.6692" stroke-linejoin="round" stroke-miterlimit="10" cx="984.535" cy="80.506" r="8.024"/>
	</g>
</g>
</svg>
