<?xml version="1.0" encoding="utf-8"?>
<!-- Generator: Adobe Illustrator 16.0.0, SVG Export Plug-In . SVG Version: 6.00 Build 0)  -->
<!DOCTYPE svg PUBLIC "-//W3C//DTD SVG 1.1//EN" "http://www.w3.org/Graphics/SVG/1.1/DTD/svg11.dtd">
<svg version="1.1" id="Layer_1" xmlns="http://www.w3.org/2000/svg" xmlns:xlink="http://www.w3.org/1999/xlink" x="0px" y="0px"
	 width="100px" height="100px" viewBox="0 0 100 100" enable-background="new 0 0 100 100" xml:space="preserve">
<g>
	<circle fill="#FDF2C0" cx="50" cy="50" r="50"/>
	<g>
		<path fill="#FDDB3A" d="M36,56.803v25.535l13.951-4.102L63,82.338V57.133c-3,3.43-8.012,5.551-13.33,5.551
			C44.182,62.684,39,60.43,36,56.803z"/>
		<path fill="#FDDB3A" d="M49.757,19.257c-10.859,0-19.662,8.803-19.662,19.662c0,5.37,2.158,10.232,5.648,13.782
			c3.567,3.627,8.525,5.881,14.014,5.881c5.317,0,10.134-2.121,13.673-5.551c3.688-3.574,5.989-8.571,5.989-14.112
			C69.419,28.06,60.615,19.257,49.757,19.257z"/>
		<path fill="#FDF2C0" d="M51.185,29.986l1.6,5.014c0,0,2.315,0,5.173,0c2.856,0,3.3,1.262,0.988,2.932L54.76,40.91
			c0,0,0.715,2.176,1.598,4.89c0.884,2.713-0.274,3.538-2.585,1.856l-4.186-3.051c0,0-1.875,1.359-4.187,3.037
			c-2.311,1.68-3.469,0.843-2.585-1.867l1.597-4.908c0,0-1.872-1.261-4.185-2.933S38.358,35,41.215,35h5.173
			c0,0,0.717-2.25,1.601-4.967C48.87,27.314,50.302,27.268,51.185,29.986z"/>
	</g>
</g>
</svg>
