<?xml version="1.0" encoding="utf-8"?>
<!-- Generator: Adobe Illustrator 16.0.0, SVG Export Plug-In . SVG Version: 6.00 Build 0)  -->
<!DOCTYPE svg PUBLIC "-//W3C//DTD SVG 1.1//EN" "http://www.w3.org/Graphics/SVG/1.1/DTD/svg11.dtd">
<svg version="1.1" id="Layer_1" xmlns="http://www.w3.org/2000/svg" xmlns:xlink="http://www.w3.org/1999/xlink" x="0px" y="0px"
	 width="100px" height="100px" viewBox="0 0 100 100" enable-background="new 0 0 100 100" xml:space="preserve">
<g>
	<circle fill="#FFEECF" cx="50" cy="50" r="50"/>
	<g>
		<g>
			<g>
				<g>
					<path fill="#FFBB38" d="M67.788,58.486c0,3.707-1.338,6.682-4.016,8.928c-2.679,2.248-6.436,3.596-11.252,4.035v7.168h-4.792
						v-7.029c-5.68-0.117-10.664-1.117-14.953-3.002v-9.221c2.032,1,4.468,1.881,7.32,2.648c2.855,0.775,5.397,1.229,7.633,1.367
						V52.549l-2.34-0.91c-4.61-1.814-7.876-3.79-9.796-5.925c-1.924-2.125-2.884-4.763-2.884-7.911c0-3.375,1.325-6.155,3.96-8.33
						c2.651-2.184,6.339-3.501,11.06-3.97v-5.342h4.792v5.203c5.328,0.234,10.154,1.307,14.461,3.217l-3.279,8.175
						c-3.638-1.491-7.365-2.397-11.182-2.728v10.306c4.542,1.754,7.772,3.265,9.691,4.545c1.919,1.283,3.326,2.689,4.226,4.229
						C67.334,54.648,67.788,56.436,67.788,58.486z M43.229,37.803c0,1.022,0.349,1.873,1.062,2.536
						c0.706,0.661,1.855,1.345,3.438,2.043v-8.209C44.726,34.615,43.229,35.822,43.229,37.803z M57.269,59.012
						c0-0.98-0.398-1.803-1.186-2.48c-0.797-0.676-1.982-1.371-3.563-2.098v8.697C55.681,62.602,57.269,61.227,57.269,59.012z"/>
				</g>
			</g>
		</g>
	</g>
</g>
</svg>
