<?xml version="1.0" encoding="utf-8"?>
<!-- Generator: Adobe Illustrator 16.0.0, SVG Export Plug-In . SVG Version: 6.00 Build 0)  -->
<!DOCTYPE svg PUBLIC "-//W3C//DTD SVG 1.1//EN" "http://www.w3.org/Graphics/SVG/1.1/DTD/svg11.dtd">
<svg version="1.1" id="Layer_1" xmlns="http://www.w3.org/2000/svg" xmlns:xlink="http://www.w3.org/1999/xlink" x="0px" y="0px"
	 width="50px" height="50px" viewBox="0 0 50 50" enable-background="new 0 0 50 50" xml:space="preserve">
<path fill="#60B6FB" d="M46.723,41.182L34.021,29.776c3.14-4.38,4.241-10.142,2.468-15.656C33.518,4.884,23.581-0.212,14.347,2.76
	C5.11,5.732,0.013,15.665,2.985,24.901c2.972,9.238,12.905,14.333,22.141,11.362c1.386-0.446,2.676-1.052,3.861-1.786l13.156,11.808
	c0.942,0.845,2.221,1.074,3.343,0.713c0.557-0.181,1.076-0.504,1.497-0.973C48.251,44.614,48.133,42.448,46.723,41.182z
	 M9.513,22.801c-1.815-5.638,1.296-11.701,6.933-13.514c5.641-1.815,11.7,1.295,13.515,6.933c1.813,5.64-1.294,11.701-6.934,13.516
	C17.388,31.551,11.325,28.439,9.513,22.801z"/>
</svg>
