<?xml version="1.0" encoding="utf-8"?>
<!-- Generator: Adobe Illustrator 16.0.0, SVG Export Plug-In . SVG Version: 6.00 Build 0)  -->
<!DOCTYPE svg PUBLIC "-//W3C//DTD SVG 1.1//EN" "http://www.w3.org/Graphics/SVG/1.1/DTD/svg11.dtd">
<svg version="1.1" id="Layer_1" xmlns="http://www.w3.org/2000/svg" xmlns:xlink="http://www.w3.org/1999/xlink" x="0px" y="0px"
	 width="100px" height="100px" viewBox="0 0 100 100" enable-background="new 0 0 100 100" xml:space="preserve">
<g>
	<circle fill="#CAFAE8" cx="50" cy="50" r="50"/>
	<g>
		<path fill-rule="evenodd" clip-rule="evenodd" fill="#28DF99" d="M34.548,40.837c3.075,0,5.684,0.072,8.285-0.029
			c1.355-0.051,1.824,0.27,1.805,1.737c-0.09,6.095,0,12.19-0.069,18.287c-0.016,1.276,0.352,1.617,1.599,1.572
			c2.686-0.093,5.381-0.114,8.065,0.006c1.456,0.066,1.921-0.291,1.896-1.83c-0.097-6.035,0.006-12.073-0.073-18.107
			c-0.02-1.364,0.363-1.72,1.691-1.665c2.62,0.104,5.245,0.029,7.811,0.029c0.302-0.41,0.054-0.621-0.134-0.842
			c-4.708-5.566-9.418-11.129-14.122-16.698c-0.524-0.623-0.9-1.236-1.744-0.229C44.694,28.887,39.777,34.66,34.548,40.837z"/>
		<path fill-rule="evenodd" clip-rule="evenodd" fill="#28DF99" d="M71.823,75.688c1.127,0.008,1.59-0.239,1.521-1.466
			c-0.104-1.846-0.126-3.711,0.006-5.554c0.103-1.404-0.42-1.653-1.71-1.649c-11.119,0.05-39.699,0.07-42.87,0.008
			c-1.058-0.021-1.486,0.217-1.429,1.375c0.101,1.908,0.114,3.828-0.001,5.734c-0.08,1.307,0.397,1.564,1.613,1.557
			C36.13,75.637,64.707,75.644,71.823,75.688z"/>
	</g>
</g>
</svg>
