<?xml version="1.0" encoding="utf-8"?>
<!-- Generator: Adobe Illustrator 16.0.0, SVG Export Plug-In . SVG Version: 6.00 Build 0)  -->
<!DOCTYPE svg PUBLIC "-//W3C//DTD SVG 1.1//EN" "http://www.w3.org/Graphics/SVG/1.1/DTD/svg11.dtd">
<svg version="1.1" id="Layer_1" xmlns="http://www.w3.org/2000/svg" xmlns:xlink="http://www.w3.org/1999/xlink" x="0px" y="0px"
	 width="475px" height="432px" viewBox="0 0 475 432" enable-background="new 0 0 475 432" xml:space="preserve">
<g>
	<ellipse fill="#BDE1E4" cx="275.799" cy="373.479" rx="182.17" ry="54.094"/>
	<g>
		<g>
			<g>
				<path fill-rule="evenodd" clip-rule="evenodd" fill="#BDE1E4" d="M381.896,271.9c0,0,12.92-34.741,40.382-47.266
					c27.458-12.523,37.46-18.643,35.448-42.375c0,0,37.478,44.017,0.711,82.324C434.87,289.139,397.514,288.439,381.896,271.9z"/>
				<path fill-rule="evenodd" clip-rule="evenodd" fill="#CCF3F6" d="M439.23,217.54c0,0-33.578,18.151-47.271,36.618
					c-13.698,18.47-0.544-2.544-0.544-2.544S407.75,225.886,439.23,217.54z"/>
				<g>
					<path fill="#B2D7D8" d="M456.666,211.572c0,0,0.23,1.163,0.193,3.244c-0.049,2.069-0.387,5.069-1.52,8.494
						c-1.096,3.432-3.033,7.248-5.766,10.863c-1.414,1.759-2.896,3.588-4.653,5.182c-1.706,1.653-3.589,3.153-5.507,4.6
						c-0.986,0.682-1.99,1.337-2.985,1.995c-1.026,0.606-2.046,1.211-3.06,1.81c-1.034,0.557-2.07,1.093-3.098,1.608
						c-1.047,0.472-2.08,0.938-3.098,1.399c-1.016,0.457-2.043,0.838-3.043,1.22c-0.997,0.393-1.986,0.734-2.957,1.039
						c-0.97,0.311-1.902,0.637-2.82,0.907c-0.924,0.243-1.815,0.479-2.673,0.707c-1.699,0.49-3.301,0.776-4.704,1.071
						c-1.398,0.314-2.639,0.495-3.657,0.643c-2.038,0.299-3.202,0.438-3.202,0.438s1.107-0.407,3.048-1.064
						c0.973-0.318,2.147-0.72,3.481-1.212c1.334-0.494,2.852-0.998,4.469-1.648c0.811-0.315,1.654-0.644,2.529-0.985
						c0.862-0.36,1.754-0.735,2.67-1.12c0.922-0.372,1.854-0.782,2.789-1.24c0.93-0.465,1.923-0.847,2.877-1.35
						c0.959-0.49,1.933-0.987,2.918-1.493c0.958-0.555,1.932-1.102,2.922-1.639c0.959-0.588,1.924-1.181,2.893-1.775
						c0.935-0.646,1.871-1.292,2.809-1.938c1.834-1.34,3.637-2.729,5.264-4.256c1.664-1.488,3.172-3.078,4.568-4.679
						c1.33-1.648,2.596-3.267,3.629-4.922c1.013-1.659,1.932-3.27,2.631-4.832c0.691-1.562,1.277-3.028,1.691-4.367
						c0.406-1.34,0.721-2.53,0.917-3.524c0.187-0.996,0.32-1.79,0.378-2.335C456.656,211.868,456.666,211.572,456.666,211.572z"/>
				</g>
				<path fill-rule="evenodd" clip-rule="evenodd" fill="#CCF3F6" d="M457.727,182.26c0,0,12.6,24.09,7.748,51.319
					c-2.91,16.342-10.57,38.354-46.22,50.03c0,0,40.976-2.497,53.294-43.666C482.213,207.657,457.727,182.26,457.727,182.26z"/>
				<path fill-rule="evenodd" clip-rule="evenodd" fill="#BDE1E4" d="M380.135,272.417c0,0,26.82-14.461,33.9-38.239
					c7.084-23.773,10.932-32.61,30.48-33.663c0,0-40.088-25.521-67.103,8.758C360.094,231.244,364.902,261.579,380.135,272.417z"/>
				<path fill-rule="evenodd" clip-rule="evenodd" fill="#CCF3F6" d="M417.891,219.575c0,0-10.972,29.396-24.452,42.639
					c-13.479,13.242,2.137,0.154,2.137,0.154S414.662,246.147,417.891,219.575z"/>
				<g>
					<path fill="#B2D7D8" d="M420.771,204.703c0,0-0.24,0.036-0.676,0.157c-0.439,0.091-1.063,0.321-1.855,0.563
						c-0.781,0.306-1.727,0.65-2.76,1.166c-0.525,0.234-1.074,0.5-1.623,0.843c-0.551,0.336-1.16,0.622-1.744,1.015
						c-0.577,0.402-1.176,0.818-1.799,1.251c-0.628,0.414-1.193,0.969-1.818,1.465c-0.308,0.255-0.618,0.515-0.934,0.778
						c-0.314,0.26-0.582,0.586-0.881,0.882c-0.578,0.609-1.191,1.207-1.805,1.823c-0.545,0.681-1.1,1.374-1.66,2.073
						c-0.28,0.351-0.563,0.702-0.846,1.056l-0.756,1.142c-0.504,0.766-1.011,1.537-1.521,2.314
						c-0.511,0.772-0.874,1.646-1.319,2.466c-0.439,0.825-0.879,1.651-1.315,2.474c-0.354,0.866-0.706,1.729-1.056,2.584
						c-0.345,0.857-0.699,1.704-1.064,2.538c-0.279,0.866-0.555,1.722-0.826,2.563c-0.274,0.842-0.525,1.677-0.806,2.484
						c-0.136,0.406-0.27,0.808-0.401,1.204c-0.099,0.406-0.196,0.809-0.292,1.203c-0.373,1.59-0.761,3.088-1.122,4.473
						c-0.4,1.379-0.578,2.683-0.814,3.824c-0.229,1.149-0.428,2.149-0.592,2.974c-0.347,1.648-0.57,2.595-0.57,2.595
						s-0.001-0.961,0.042-2.651c0.032-0.845,0.067-1.871,0.11-3.051c0.066-1.178,0.057-2.52,0.315-3.951
						c0.2-1.439,0.422-3.004,0.692-4.655c0.065-0.412,0.131-0.831,0.198-1.255c0.103-0.418,0.206-0.841,0.31-1.268
						c0.207-0.854,0.453-1.722,0.684-2.606c0.239-0.886,0.482-1.785,0.729-2.694c0.324-0.89,0.664-1.785,1.021-2.684
						c0.353-0.9,0.707-1.808,1.063-2.72c0.446-0.873,0.895-1.752,1.342-2.629c0.485-0.858,0.884-1.766,1.439-2.58
						c0.554-0.815,1.105-1.628,1.652-2.434c0.279-0.399,0.539-0.811,0.83-1.193c0.32-0.364,0.64-0.726,0.956-1.086
						c0.635-0.715,1.26-1.422,1.876-2.117c1.396-1.236,2.656-2.523,4.105-3.441c0.711-0.471,1.338-1.014,2.056-1.378
						c0.702-0.381,1.382-0.749,2.033-1.101c0.657-0.335,1.327-0.585,1.944-0.847c0.615-0.27,1.223-0.465,1.799-0.63
						c1.131-0.387,2.165-0.558,2.996-0.728C419.805,204.662,420.771,204.703,420.771,204.703z"/>
				</g>
				<path fill-rule="evenodd" clip-rule="evenodd" fill="#CCF3F6" d="M444.516,200.515c0,0-21.045-7.525-42.665-0.487
					c-12.967,4.222-30.022,12.953-35.483,43.305c0,0-2.617-33.644,29.508-48.345C421.063,183.456,444.516,200.515,444.516,200.515z"
					/>
			</g>
			<g>
				<g>
					<path fill="#C3E9EC" d="M372.932,265.426c-0.244,0.023-0.499-0.031-0.723-0.169c-0.564-0.348-0.744-1.081-0.401-1.646
						c23.019-37.707,32.104-76.117,35.675-101.701c3.867-27.749,2.266-46.815,2.251-47.005c-0.058-0.656,0.43-1.239,1.088-1.296
						c0,0,0.002,0,0.003,0c0.657-0.057,1.234,0.431,1.295,1.087c0.016,0.191,1.64,19.47-2.255,47.473
						c-3.597,25.823-12.767,64.605-36.014,102.688C373.647,265.198,373.298,265.396,372.932,265.426z"/>
				</g>
				<path fill="#C3E9EC" d="M413.578,144.104c0,0,4.613-24.06,13.844-19.338C436.654,129.489,416.755,141.77,413.578,144.104z"/>
				<path fill="#C3E9EC" d="M411.785,168.378c0,0,4.569-15.021,11.01-19.966c6.441-4.942,14.684-4.506,15.543-1.483
					C440.645,155.047,415.483,162.823,411.785,168.378z"/>
				<path fill="#C3E9EC" d="M406.318,193.191c0,0,2.057-16.673,17.379-26.429c15.321-9.756,16.416-3.747,16.502-2.095
					C440.613,172.985,408.936,186.031,406.318,193.191z"/>
				<path fill="#BDE1E4" d="M406.136,141.012c0,0-3.832-10.514-8.146-13.321c-4.309-2.808-7.902-7.919-5.293-12.275
					c2.612-4.354,9.348,0.493,12.608,8.964C407.494,130.074,407.442,136.984,406.136,141.012z"/>
				<path fill="#C3E9EC" d="M384.061,134.878c2.328-4.005,10.189-1.441,15.35,9.575c5.167,11.017,4.147,22.099,4.147,22.099
					s-6.175-15.742-13.835-20.137C384,143.128,382.621,137.362,384.061,134.878z"/>
				<path fill="#BDE1E4" d="M374.772,149.88c0.626-2.264,11.295-1.81,18.743,9.096c7.451,10.907,6.432,23.84,6.432,23.84
					s-5.204-12.667-9.822-15.957C385.506,163.569,372.729,157.238,374.772,149.88z"/>
				<path fill="#C3E9EC" d="M410.719,119.816c0,0-10.201-4.228-8.567-14.996c1.632-10.767,7.372-21.578,10.69-18.628
					c1.307,1.16,5.963,8.143,7.102,16.536C420.982,110.396,418.99,119.569,410.719,119.816z"/>
			</g>
		</g>
		<g>
			<g>
				<path fill-rule="evenodd" clip-rule="evenodd" fill="#BDE1E4" d="M96.296,362.438c0,0-15.304-33.76-43.571-44.342
					c-28.261-10.585-38.666-15.992-38.311-39.806c0,0-34.325,46.515,5.019,82.172C44.65,383.321,81.868,380.022,96.296,362.438z"/>
				<path fill-rule="evenodd" clip-rule="evenodd" fill="#CCF3F6" d="M35.321,312.196c0,0,34.759,15.774,49.702,33.243
					c14.95,17.472,0.366-2.576,0.366-2.576S67.305,318.335,35.321,312.196z"/>
				<g>
					<path fill="#B2D7D8" d="M17.511,307.459c0,0,0.03,0.293,0.125,0.832c0.095,0.539,0.284,1.321,0.54,2.302
						c0.265,0.98,0.663,2.146,1.159,3.454c0.507,1.305,1.192,2.729,1.99,4.238c0.807,1.509,1.835,3.053,2.962,4.637
						c1.145,1.578,2.521,3.108,3.964,4.657c1.501,1.5,3.118,2.981,4.881,4.351c1.729,1.41,3.624,2.667,5.549,3.878
						c0.979,0.582,1.958,1.161,2.934,1.74c1.008,0.524,2.014,1.049,3.01,1.57c1.025,0.467,2.035,0.944,3.029,1.43
						c1.018,0.437,2.025,0.866,3.014,1.287c0.988,0.436,2.004,0.749,2.965,1.147c0.964,0.392,1.922,0.736,2.867,1.043
						c0.941,0.321,1.857,0.63,2.743,0.932c0.896,0.277,1.761,0.548,2.591,0.807c1.659,0.534,3.208,0.932,4.573,1.332
						c1.365,0.4,2.565,0.72,3.558,0.968c1.98,0.521,3.116,0.85,3.116,0.85s-1.172-0.057-3.226-0.214
						c-1.027-0.076-2.276-0.171-3.693-0.388c-1.421-0.196-3.038-0.369-4.769-0.741c-0.87-0.166-1.777-0.34-2.716-0.518
						c-0.933-0.206-1.887-0.467-2.875-0.711c-0.99-0.236-2-0.507-3.022-0.83c-1.024-0.311-2.076-0.618-3.121-1.007
						c-1.046-0.387-2.109-0.779-3.187-1.181c-1.061-0.441-2.132-0.902-3.204-1.386c-1.052-0.528-2.112-1.059-3.176-1.594
						c-1.039-0.587-2.086-1.172-3.119-1.782c-2.013-1.31-3.996-2.675-5.812-4.205c-1.865-1.469-3.47-3.191-5.004-4.846
						c-2.976-3.418-5.173-7.09-6.507-10.435c-1.369-3.34-1.915-6.308-2.107-8.369C17.362,308.634,17.511,307.459,17.511,307.459z"/>
				</g>
				<path fill-rule="evenodd" clip-rule="evenodd" fill="#CCF3F6" d="M14.415,278.291c0,0-10.893,24.907-4.159,51.732
					c4.041,16.102,13.214,37.529,49.588,46.693c0,0-41.05,0.359-56.2-39.85C-8.247,305.329,14.415,278.291,14.415,278.291z"/>
				<path fill-rule="evenodd" clip-rule="evenodd" fill="#BDE1E4" d="M98.089,362.829c0,0-27.761-12.559-36.476-35.786
					c-8.721-23.225-13.175-31.772-32.75-31.461c0,0,38.216-28.247,67.549,4.067C115.219,320.363,112.531,350.961,98.089,362.829z"/>
				<path fill-rule="evenodd" clip-rule="evenodd" fill="#CCF3F6" d="M56.751,312.743c0,0,12.989,28.56,27.356,40.837
					c14.369,12.271-2.12,0.3-2.12,0.3S61.819,339.027,56.751,312.743z"/>
				<g>
					<path fill="#B2D7D8" d="M52.841,298.106c0,0,0.963-0.106,2.67,0.026c0.843,0.111,1.885,0.211,3.039,0.52
						c0.587,0.123,1.208,0.274,1.839,0.502c0.636,0.219,1.32,0.419,2,0.709c0.674,0.308,1.376,0.626,2.104,0.955
						c0.742,0.316,1.406,0.813,2.147,1.233c1.509,0.815,2.855,2.015,4.334,3.148c0.662,0.65,1.337,1.312,2.02,1.979
						c0.341,0.339,0.684,0.677,1.028,1.019c0.318,0.362,0.604,0.756,0.911,1.132c0.602,0.768,1.209,1.539,1.818,2.314
						c0.612,0.774,1.072,1.648,1.616,2.472c0.508,0.845,1.016,1.689,1.522,2.531c0.418,0.886,0.835,1.765,1.25,2.638
						c0.417,0.872,0.82,1.74,1.205,2.606c0.308,0.892,0.614,1.771,0.915,2.637c0.292,0.868,0.597,1.715,0.862,2.554
						c0.133,0.418,0.267,0.833,0.397,1.243c0.097,0.418,0.191,0.83,0.285,1.239c0.385,1.627,0.715,3.172,1.014,4.594
						c0.358,1.412,0.442,2.752,0.591,3.92c0.124,1.172,0.231,2.194,0.321,3.036c0.16,1.682,0.227,2.641,0.227,2.641
						s-0.29-0.927-0.749-2.55c-0.222-0.81-0.49-1.793-0.799-2.922c-0.316-1.124-0.584-2.411-1.076-3.759
						c-0.459-1.358-0.949-2.826-1.433-4.384c-0.124-0.388-0.249-0.782-0.373-1.182c-0.16-0.386-0.323-0.776-0.486-1.173
						c-0.335-0.785-0.643-1.6-0.976-2.421c-0.329-0.822-0.664-1.656-1.004-2.501c-0.419-0.806-0.833-1.627-1.236-2.457
						c-0.41-0.83-0.82-1.667-1.233-2.505c-0.493-0.79-0.989-1.583-1.483-2.378c-0.501-0.786-0.925-1.631-1.489-2.366
						c-0.562-0.738-1.122-1.475-1.677-2.203c-0.281-0.363-0.549-0.734-0.834-1.089c-0.307-0.332-0.613-0.663-0.917-0.991
						c-0.608-0.66-1.209-1.313-1.801-1.953c-0.655-0.574-1.308-1.125-1.927-1.694c-0.317-0.274-0.608-0.579-0.94-0.818
						c-0.332-0.24-0.66-0.478-0.984-0.711c-0.658-0.451-1.261-0.964-1.919-1.332c-0.648-0.39-1.276-0.765-1.877-1.125
						c-0.612-0.35-1.239-0.594-1.812-0.892c-0.571-0.304-1.138-0.532-1.678-0.728c-1.068-0.443-2.034-0.72-2.833-0.97
						c-0.808-0.188-1.449-0.375-1.892-0.438C53.083,298.128,52.841,298.106,52.841,298.106z"/>
				</g>
				<path fill-rule="evenodd" clip-rule="evenodd" fill="#CCF3F6" d="M28.864,295.582c0,0,20.471-8.971,42.528-3.455
					c13.228,3.31,30.852,10.833,38.41,40.73c0,0,0.27-33.743-32.799-46.175C51.073,276.935,28.864,295.582,28.864,295.582z"/>
			</g>
			<g>
				<g>
					<path fill="#C3E9EC" d="M104.79,355.357c0.245,0.005,0.495-0.066,0.709-0.219c0.539-0.388,0.667-1.132,0.285-1.672
						c-25.586-36.015-37.321-73.701-42.663-98.972c-5.787-27.414-5.517-46.545-5.516-46.737c0.013-0.659-0.513-1.204-1.174-1.217
						c0,0.001-0.001,0.001-0.004,0.003c-0.659-0.013-1.2,0.515-1.215,1.174c-0.004,0.192-0.281,19.536,5.551,47.199
						c5.385,25.512,17.23,63.563,43.068,99.937C104.06,355.179,104.422,355.352,104.79,355.357z"/>
				</g>
				<path fill="#C3E9EC" d="M55.802,237.156c0,0-6.275-23.682-15.154-18.328C31.766,224.183,52.471,235.045,55.802,237.156z"/>
				<path fill="#C3E9EC" d="M59.279,261.246c0,0-5.602-14.669-12.371-19.15c-6.771-4.484-14.963-3.475-15.608-0.399
					C29.562,249.954,55.203,255.963,59.279,261.246z"/>
				<path fill="#C3E9EC" d="M66.459,285.621c0,0-3.212-16.491-19.175-25.158c-15.964-8.665-16.638-2.595-16.608-0.94
					C30.842,267.847,63.351,278.657,66.459,285.621z"/>
				<path fill="#BDE1E4" d="M63.011,233.554c0,0,3.092-10.755,7.199-13.855c4.104-3.102,7.334-8.452,4.428-12.614
					c-2.909-4.163-9.291,1.142-11.954,9.817C60.896,222.736,61.426,229.626,63.011,233.554z"/>
				<path fill="#C3E9EC" d="M84.607,225.898c-2.602-3.836-10.265-0.728-14.647,10.619c-4.388,11.353-2.599,22.334-2.599,22.334
					s5.064-16.134,12.399-21.049C85.242,234.123,86.217,228.278,84.607,225.898z"/>
				<path fill="#BDE1E4" d="M94.917,240.218c-0.783-2.216-11.394-1.019-18.066,10.378c-6.675,11.398-4.757,24.229-4.757,24.229
					s4.311-12.999,8.688-16.602C85.161,254.621,97.468,247.416,94.917,240.218z"/>
				<path fill="#C3E9EC" d="M56.965,212.726c0,0,9.882-4.926,7.503-15.555c-2.376-10.626-8.856-21.013-11.96-17.839
					c-1.223,1.249-5.384,8.541-5.935,16.992C46.071,204.045,48.697,213.056,56.965,212.726z"/>
			</g>
		</g>
		<path fill="#457B9D" d="M208.536,2.214c44.407-11.261,143.06,15.096,167.509,252.997c0,0,65.143,5.869,56.227,62.105
			c-10.843,68.385-101.769,93.954-173.138,92.492c-72.389-1.481-173.182-20.808-182.239-99.32
			C67.858,232.163,83.985,33.796,208.536,2.214z"/>
		<path fill="#F9CB9D" d="M285.557,184.184c0,0,2.452,21.345,3.445,22.501c1.883,2.192,13.117,15.984,13.117,15.984l-10.513,20.564
			c0,0-15.37-14.558-17.019-18.156c-0.729-1.59-4.309-29.844-4.527-39.758L285.557,184.184z"/>
		<g>
			<path fill="#37697C" d="M215.998,292.969c-1.035-0.202-2.071-0.372-3.111-0.519c-1.039-0.155-2.084-0.265-3.123-0.398
				c-1.04-0.129-2.085-0.215-3.126-0.325l-3.129-0.23l-3.129-0.155l-3.128-0.059c-1.042-0.038-2.084,0.032-3.124,0.033l-1.559,0.021
				l-1.557,0.082c-1.036,0.068-2.075,0.08-3.107,0.193l-3.092,0.304c-1.029,0.104-2.048,0.295-3.072,0.422l-1.534,0.214
				c-0.51,0.077-1.013,0.192-1.521,0.287l-3.031,0.594l-2.985,0.773l-1.488,0.389l-1.458,0.485l-2.92,0.945l-1.588,0.514
				l-0.677-1.478c-0.551-1.201-1.021-2.325-1.476-3.495c-0.474-1.157-0.887-2.326-1.307-3.494c-0.438-1.164-0.818-2.342-1.196-3.521
				c-0.372-1.181-0.792-2.353-1.107-3.547c-0.66-2.385-1.342-4.766-1.876-7.179l-0.855-3.608l-0.718-3.636l-0.715-3.638l-0.54-3.665
				l-0.532-3.665c-0.188-1.221-0.27-2.455-0.408-3.68l-0.377-3.683c-0.128-1.229-0.262-2.455-0.31-3.688
				c-0.148-2.463-0.245-4.929-0.368-7.391c-0.071-2.463-0.026-4.931-0.044-7.395l-0.001-3.694l0.209-3.688l0.424-7.371
				c0.253-2.448,0.532-4.895,0.821-7.334l0.426-3.66c0.16-1.219,0.397-2.427,0.592-3.638l1.287-7.249l0.33-1.809l0.427-1.79
				l0.87-3.575c0.565-2.386,1.194-4.752,1.789-7.122c-0.315,2.431-0.598,4.863-0.942,7.278l-0.498,3.626l-0.254,1.809l-0.175,1.822
				l-0.678,7.274c-0.112,1.21-0.268,2.416-0.347,3.63l-0.181,3.642c-0.115,2.429-0.242,4.854-0.393,7.273l-0.071,7.278l-0.032,3.634
				l0.106,3.634c0.088,2.42,0.112,4.841,0.251,7.256c0.179,2.416,0.385,4.827,0.541,7.24c0.059,1.209,0.201,2.409,0.338,3.611
				l0.403,3.605c0.149,1.198,0.237,2.406,0.433,3.599l0.556,3.58l0.549,3.583l0.666,3.561l0.668,3.561l0.801,3.529
				c0.499,2.363,1.142,4.686,1.763,7.017c0.285,1.173,0.651,2.318,0.983,3.477c0.334,1.157,0.671,2.313,1.061,3.449
				c0.375,1.142,0.741,2.287,1.164,3.403c0.397,1.121,0.841,2.264,1.278,3.295l-2.266-0.963l3.11-0.899l1.557-0.435l1.58-0.335
				l3.157-0.659l3.184-0.47c0.53-0.073,1.059-0.166,1.591-0.222l1.599-0.146c1.066-0.091,2.128-0.211,3.196-0.249l3.2-0.103
				c1.065-0.046,2.131,0.009,3.194,0.011l1.596,0.02l1.593,0.085c1.061,0.069,2.123,0.102,3.179,0.223l3.166,0.326l3.149,0.423
				l3.127,0.545c1.036,0.217,2.075,0.408,3.104,0.644C211.951,291.771,213.993,292.328,215.998,292.969z"/>
			<path fill="#37697C" d="M376.045,255.211c0,0-0.294,0.232-0.805,0.568c-0.51,0.341-1.239,0.795-2.116,1.259
				c-0.876,0.47-1.898,0.958-2.993,1.427c-1.094,0.475-2.269,0.91-3.43,1.342c-0.596,0.187-1.162,0.421-1.744,0.599
				c-0.585,0.183-1.13,0.39-1.692,0.55c-0.555,0.167-1.07,0.354-1.594,0.495c-0.51,0.153-0.979,0.32-1.444,0.444
				c-0.463,0.13-0.857,0.289-1.249,0.399c-0.396,0.106-0.726,0.223-1.001,0.328c-0.562,0.201-0.938,0.301-0.938,0.301
				s0.095-0.347,0.362-0.926c0.134-0.288,0.297-0.657,0.557-1.001c0.252-0.352,0.539-0.778,0.904-1.166
				c0.367-0.375,0.777-0.801,1.245-1.186c0.472-0.366,0.978-0.771,1.532-1.109c0.273-0.176,0.562-0.334,0.853-0.501
				c0.288-0.172,0.587-0.328,0.896-0.461c0.607-0.293,1.241-0.56,1.88-0.786c0.644-0.221,1.288-0.431,1.938-0.577
				c0.643-0.174,1.288-0.285,1.914-0.381c1.252-0.188,2.441-0.235,3.469-0.194c1.027,0.042,1.891,0.175,2.5,0.314
				C375.695,255.077,376.045,255.211,376.045,255.211z"/>
		</g>
		<path fill="#1D3557" d="M201.928,259.746c0,0-6.965,25.345,8.403,39.322c14.463,13.153,31.189,12.958,45.672,14.639
			c14.483,1.681,16.344,1.149,16.78,7.705c0.434,6.556,1.111,27.635,7.996,25.783s88.013-29.717,91.457-31.108
			s3.49-3.668,0.314-15.403c-3.174-11.736-6.795-35.604-22.146-40.531l-71.015-21.391L201.928,259.746z"/>
		<path fill="#D32F43" d="M248.592,128.335c0,0,25.843,1.255,31.434,20.156c5.59,18.902,7.238,35.728,7.238,35.728l-17.203,1.101
			C270.061,185.319,273.481,135.295,248.592,128.335z"/>
		<path fill="#E63946" d="M219.117,133.974c0,0-22.363,7.974-26.956,9.873c0,0,9.699,96.29,8.938,105.729
			c-0.763,9.438-0.828,12.569,8.034,10.758c8.862-1.811,62.414-17.51,69.027-20.79c6.613-3.279-0.935-9.982-3.082-16.288
			c-2.149-6.307-5.53-35.766-4.77-45.146c0.732-9.025-0.087-42.177-19.98-49.442c-2.363-0.862-5.021,0.184-5.021,0.184
			L219.117,133.974z"/>
		<path fill="#F9CB9D" d="M243.377,117.419c0,0,0.02,7.979,1.598,14.272c0,0-1.226,12.201-12.594,11.164
			c-9.057-0.827-12.542-6.982-12.542-6.982l0.332-16.218C220.171,119.655,233.691,129.003,243.377,117.419z"/>
		<g>
			<path fill="#1D3557" d="M258.242,82.44c0,0,0.273-21.169-11.544-30.62c-11.822-9.45-32.759-14.446-49.749,6.32
				c-15.547,19.001-3.244,51.8,13.6,57.32L258.242,82.44z"/>
			<path fill="#F9CB9D" d="M258.242,82.44c0,0-3.891,29.345-14.501,41.228c-2.287,2.563-4.888,4.313-7.828,4.784
				c-4.255,0.68-10.278-1.622-15.726-5.083c-6.371-4.05-11.955-9.688-13.004-14.009c-1.531-6.303-1.117-9.763-1.117-9.763
				s-7.392-3.181-7.149-9.614c0.271-7.139,9.159-4.154,10.281,1.184c0,0,19.747,2.866,30.202-28.506
				C239.4,62.662,242.431,80.515,258.242,82.44z"/>
			<path fill="#1D3557" d="M217.879,48.703c0,0,6.273-6.631,2.73-12.721c-3.539-6.092-12.796-9.465-21.129-4.42
				c-11.25,6.812-12.088,25.553,4.454,24.818C203.934,56.38,213.476,49.536,217.879,48.703z"/>
			<path fill="#EAB88C" d="M243.741,123.668c0,0-0.247,0.33-0.682,0.905c-0.224,0.281-0.525,0.605-0.869,0.982
				c-0.368,0.348-0.762,0.771-1.267,1.149c-0.485,0.405-1.057,0.787-1.689,1.154c-0.329,0.164-0.667,0.333-1.013,0.504
				c-0.36,0.14-0.733,0.275-1.116,0.405c-0.414,0.093-0.748,0.203-1.246,0.282c-0.394,0.036-0.791,0.072-1.191,0.108
				c-0.389,0.059-0.842-0.005-1.274-0.023c-0.431-0.04-0.889-0.033-1.3-0.117c-0.825-0.184-1.672-0.3-2.451-0.573
				c-0.795-0.225-1.563-0.494-2.275-0.81c-0.361-0.15-0.715-0.299-1.063-0.443c-0.334-0.169-0.66-0.335-0.979-0.497
				c-0.636-0.322-1.234-0.63-1.754-0.97c-0.532-0.322-1.011-0.629-1.434-0.899c-0.406-0.297-0.761-0.556-1.052-0.769
				c-0.573-0.438-0.899-0.688-0.899-0.688s0.374,0.171,1.03,0.471c0.322,0.155,0.714,0.344,1.163,0.561
				c0.457,0.196,0.973,0.417,1.526,0.671c0.55,0.264,1.171,0.487,1.813,0.753c0.321,0.128,0.652,0.26,0.99,0.395
				c0.344,0.119,0.695,0.239,1.051,0.361c0.357,0.119,0.714,0.264,1.087,0.364c0.372,0.098,0.749,0.2,1.126,0.311
				c0.75,0.251,1.537,0.335,2.311,0.497c0.389,0.088,0.758,0.079,1.138,0.125c0.379,0.024,0.735,0.103,1.151,0.05
				c0.402-0.021,0.801-0.04,1.195-0.061c0.283-0.031,0.704-0.128,1.043-0.186c0.349-0.101,0.692-0.198,1.029-0.296
				c0.33-0.129,0.652-0.255,0.965-0.377c0.609-0.295,1.188-0.578,1.695-0.901c0.519-0.301,0.957-0.642,1.366-0.917
				c0.38-0.309,0.734-0.558,1.007-0.791C243.426,123.936,243.741,123.668,243.741,123.668z"/>
		</g>
		<path fill="#D32F43" d="M192.161,143.847c9.114-3.549,17.727,10.042,19.673,26.307c2.063,17.259,2.535,29.086,2.535,29.086
			l-37.58,3.267c0,0-1.58-20.087-1.752-28.624C174.752,159.93,178.962,148.984,192.161,143.847z"/>
		<polygon fill="#B2B1B1" points="218.4,262.995 289.471,243.19 351.546,256.073 271.16,269.075 		"/>
		<path fill="#F9CB9D" d="M210.107,199.721l-0.455,22.194c0,0,15.326,7.431,25.691,13.904c6.553,4.093,15.73,10.386,26.324,15.342
			c6.166,2.884,11.959,2.806,16.176,8.302c2.131,2.777,3.02,5.777,1.425,6.546c-1.334,0.643-4.472-1.842-10.564-3.176
			c-7.31-1.6-11.839,0.807-15.638-0.127c-8.506-2.086-14.338-5.442-27.166-8.151c-12.829-2.708-38.69-11.467-41.105-18.632
			c-1.766-5.235-4.172-33.766-4.172-33.766L210.107,199.721z"/>
		<polygon fill="#D8D8D8" points="270.785,274.728 218.221,268.69 218.4,262.995 271.16,269.075 		"/>
		<polygon fill="#EAEAEA" points="271.102,268.844 289.287,210.699 370.564,203.848 351.546,256.073 		"/>
		<polygon fill="#D8D8D8" points="351.546,256.073 351.007,261.528 270.785,274.728 271.102,268.844 		"/>
		<path fill="#F9CB9D" d="M264.111,261.777c0,0,7.045,3.002,5.295,4.716c-1.656,1.624-12.66-3.99-14.869-3.578L264.111,261.777z"/>
		<path fill="#F9CB9D" d="M293.244,343.169l26.064,69.652c0,0,15.186,5.728,21.753-2.25l-13.448-79.04L293.244,343.169z"/>
		<path fill="#F9CB9D" d="M336.398,328.525l27.36,72.076c0,0,16.868,3.662,21.683-2.842l-16.704-80.413L336.398,328.525z"/>
		<path fill="#1D3557" d="M385.441,397.76c0,0,24.523,9.519,20.915,17.091c-3.606,7.571-45.298,3.81-47.243-4.267
			c-1.402-5.825,4.646-9.982,4.646-9.982S381.262,402.616,385.441,397.76z"/>
		<path fill="#1D3557" d="M341.062,410.571c0,0,24.253,10.183,20.44,17.653c-3.813,7.469-45.384,2.574-47.108-5.552
			c-1.245-5.861,4.915-9.852,4.915-9.852S336.75,415.312,341.062,410.571z"/>
		<path fill="#A8DADC" d="M328.402,30.925c-20.979-0.429-37.889,13.054-38.555,34.026c-0.399,12.57,8.282,23.734,8.797,32.613
			c0.314,5.452-3.568,12.631-3.568,12.631c4.393-6.025,12.156-7.11,16.735-6.733c3.843,0.318,9.662,3.323,15.035,3.434
			c20.978,0.429,38.334-16.229,38.763-37.208C366.039,48.71,349.381,31.355,328.402,30.925z"/>
		<g>
			<path fill="#FFFFFF" d="M334.64,66.093c-2.122,1.736-4.841,2.761-7.796,2.7c-2.955-0.06-5.63-1.194-7.679-3.017
				c-6.147,2.773-10.484,8.894-10.632,16.083c-0.203,9.96,7.906,8.38,17.868,8.584c9.96,0.204,17.999,2.115,18.202-7.845
				C344.752,75.408,340.67,69.115,334.64,66.093z"/>
			<path fill="#FFFFFF" d="M327.328,45.198c-5.988-0.123-10.943,4.634-11.065,10.62c-0.067,3.303,1.354,6.288,3.644,8.324
				c1.861,1.655,4.291,2.685,6.977,2.741c2.684,0.055,5.154-0.875,7.083-2.453c2.372-1.94,3.914-4.865,3.981-8.167
				C338.07,50.275,333.314,45.32,327.328,45.198z"/>
		</g>
		<path fill="#A8DADC" d="M106.977,83.487c19.832-6.854,40.067,0.782,47.145,20.534c4.242,11.842-0.59,25.132,1.649,33.74
			c1.375,5.283,7.275,10.923,7.275,10.923c-6.031-4.383-13.753-3.032-17.993-1.265c-3.56,1.483-8.176,6.13-13.254,7.885
			c-19.831,6.855-41.465-3.666-48.319-23.498C76.625,111.977,87.146,90.342,106.977,83.487z"/>
		<g>
			<path fill="#FFFFFF" d="M129.419,111.916c3.016,0.639,4.75,2.383,5.227,5.236c0.073,0.437,0.092,0.887,0.083,1.329
				c-0.089,4.801-0.18,9.598-0.298,14.398c-0.06,2.417-1.049,4.346-3.179,5.604c-0.815,0.483-1.721,0.701-2.677,0.681
				c-7.066-0.144-14.131-0.282-21.196-0.436c-2.684-0.062-5.007-2.208-5.471-5.021c-0.081-0.494-0.118-1.003-0.107-1.504
				c0.087-4.798,0.185-9.599,0.292-14.397c0.049-2.278,0.937-4.132,2.855-5.428c0.787-0.532,1.676-0.792,2.656-0.88
				c0.01-0.485,0.007-0.959,0.029-1.43c0.089-1.74,0.05-3.505,0.309-5.223c0.426-2.853,1.594-5.385,3.875-7.283
				c1.44-1.199,3.127-1.835,4.973-2.065c2.104-0.261,4.174-0.125,6.166,0.639c2.998,1.148,4.788,3.423,5.793,6.386
				c0.553,1.625,0.805,3.303,0.764,5.024C129.473,108.995,129.449,110.446,129.419,111.916z M120.377,133.468
				c0.004-0.209,0.008-0.368,0.011-0.528c0.039-1.91,0.086-3.821,0.112-5.731c0.004-0.328,0.073-0.543,0.393-0.699
				c0.314-0.154,0.602-0.376,0.882-0.597c1.757-1.384,2.348-3.162,1.67-5.096c-0.693-1.955-2.11-3.126-4.112-3.515
				c-2.076-0.402-3.891,0.201-5.281,1.807c-1.828,2.111-1.633,4.68,0.439,6.546c0.316,0.287,0.662,0.551,1.026,0.773
				c0.248,0.156,0.324,0.321,0.316,0.609c-0.053,1.951-0.087,3.908-0.126,5.86c-0.003,0.158-0.006,0.314-0.011,0.503
				c1.483,0.03,2.9,0.06,4.32,0.088C120.119,133.491,120.219,133.477,120.377,133.468z M123.971,111.819
				c0.004-0.182,0.007-0.327,0.009-0.472c0.033-1.571,0.073-3.142,0.09-4.712c0.008-0.473-0.007-0.95-0.081-1.415
				c-0.267-1.722-1.041-3.131-2.71-3.843c-0.64-0.271-1.358-0.404-2.055-0.498c-0.932-0.128-1.864-0.023-2.761,0.279
				c-1.883,0.637-3.128,2.363-3.227,4.57c-0.085,1.878-0.097,3.761-0.138,5.642c-0.001,0.07,0.021,0.14,0.032,0.226
				C116.732,111.67,120.31,111.744,123.971,111.819z"/>
		</g>
	</g>
</g>
</svg>
