<?xml version="1.0" encoding="utf-8"?>
<!-- Generator: Adobe Illustrator 16.0.0, SVG Export Plug-In . SVG Version: 6.00 Build 0)  -->
<!DOCTYPE svg PUBLIC "-//W3C//DTD SVG 1.1//EN" "http://www.w3.org/Graphics/SVG/1.1/DTD/svg11.dtd">
<svg version="1.1" id="Layer_1" xmlns="http://www.w3.org/2000/svg" xmlns:xlink="http://www.w3.org/1999/xlink" x="0px" y="0px"
	 width="200px" height="200px" viewBox="0 0 200 200" enable-background="new 0 0 200 200" xml:space="preserve">
<rect fill="#60B6FB" width="200" height="200"/>
<g>
	<g>
		<g>
			<path fill="#FFFFFF" d="M132.42,171.886H51.608c-11.045,0-24.21-4.291-24.21-24.733V66.856c0-3.593,2.914-6.506,6.507-6.506
				s6.506,2.913,6.506,6.506v80.296c0,8.982,2.616,11.722,11.197,11.722h80.812c3.593,0,6.506,2.911,6.506,6.506
				C138.926,168.973,136.013,171.886,132.42,171.886z"/>
		</g>
	</g>
	<g>
		<g>
			<path fill="#FFFFFF" d="M166.094,144.854h-93.32c-9.326,0-16.916-7.589-16.916-16.918V34.62c0-3.593,2.912-6.506,6.506-6.506
				s6.509,2.913,6.509,6.506v93.316c0,2.153,1.749,3.905,3.901,3.905h93.32c3.594,0,6.508,2.913,6.508,6.507
				C172.602,141.94,169.688,144.854,166.094,144.854z"/>
		</g>
	</g>
	<g>
		<g>
			<path fill="#FFFFFF" d="M166.094,93.003c-3.592,0-6.506-2.914-6.506-6.507V45.03c0-2.153-1.752-3.904-3.904-3.904h-41.876
				c-3.594,0-6.507-2.913-6.507-6.507c0-3.593,2.913-6.506,6.507-6.506h41.876c9.329,0,16.918,7.588,16.918,16.917v41.466
				C172.602,90.09,169.688,93.003,166.094,93.003z"/>
		</g>
	</g>
	<path fill="#FFFFFF" d="M132.461,92.72c0,9.391-7.611,17.005-17.004,17.005c-9.389,0-17.005-7.614-17.005-17.005
		c0-9.391,17.005-28.46,17.005-28.46S132.461,83.33,132.461,92.72z"/>
</g>
</svg>
