<?xml version="1.0" encoding="utf-8"?>
<!-- Generator: Adobe Illustrator 16.0.0, SVG Export Plug-In . SVG Version: 6.00 Build 0)  -->
<!DOCTYPE svg PUBLIC "-//W3C//DTD SVG 1.1//EN" "http://www.w3.org/Graphics/SVG/1.1/DTD/svg11.dtd">
<svg version="1.1" id="Layer_1" xmlns="http://www.w3.org/2000/svg" xmlns:xlink="http://www.w3.org/1999/xlink" x="0px" y="0px"
	 width="50px" height="50px" viewBox="0 0 50 50" enable-background="new 0 0 50 50" xml:space="preserve">
<g>
	<path fill="#FFFFFF" d="M36.901,18.754c3.32,0.66,5.264,2.609,5.855,5.857c0.089,0.494,0.121,1.007,0.121,1.515
		c0.021,5.482,0.037,10.961,0.023,16.443c-0.009,2.762-1.046,4.985-3.349,6.471c-0.883,0.57-1.869,0.839-2.918,0.841
		c-7.746-0.001-15.492,0.003-23.241-0.007c-2.941-0.008-5.54-2.404-6.115-5.604c-0.103-0.561-0.155-1.14-0.156-1.713
		c-0.019-5.479-0.029-10.964-0.029-16.444c-0.002-2.603,0.929-4.739,2.998-6.261c0.851-0.628,1.819-0.943,2.891-1.066
		c-0.003-0.556-0.016-1.097-0.001-1.634c0.055-1.988-0.032-4.001,0.21-5.968c0.397-3.266,1.618-6.185,4.069-8.404
		c1.554-1.402,3.382-2.168,5.4-2.474c2.302-0.348,4.572-0.238,6.775,0.588c3.312,1.24,5.328,3.795,6.502,7.156
		c0.646,1.84,0.962,3.75,0.959,5.716C36.889,15.417,36.897,17.074,36.901,18.754z M27.512,43.568c0-0.24,0-0.421,0.001-0.605
		c-0.005-2.182,0.001-4.365-0.017-6.546c-0.005-0.374,0.067-0.619,0.412-0.808c0.342-0.181,0.65-0.442,0.954-0.701
		c1.893-1.62,2.497-3.664,1.706-5.854c-0.805-2.217-2.388-3.521-4.59-3.918c-2.284-0.411-4.258,0.319-5.745,2.185
		c-1.951,2.453-1.676,5.38,0.642,7.464c0.354,0.318,0.738,0.613,1.141,0.858c0.275,0.172,0.363,0.359,0.361,0.688
		c-0.01,2.229,0,4.466,0.003,6.692c0,0.183,0.001,0.361,0,0.574c1.628,0.002,3.182,0.002,4.736,0.002
		C27.23,43.601,27.34,43.582,27.512,43.568z M30.928,18.769c-0.001-0.206,0-0.374-0.003-0.538c-0.001-1.794,0.005-3.59-0.013-5.38
		c-0.006-0.541-0.032-1.083-0.123-1.616c-0.334-1.958-1.218-3.548-3.064-4.322c-0.709-0.296-1.501-0.43-2.265-0.521
		c-1.023-0.125-2.043,0.016-3.018,0.382c-2.048,0.771-3.372,2.772-3.426,5.292c-0.047,2.146-0.015,4.295-0.017,6.444
		c0.001,0.079,0.027,0.16,0.044,0.257C22.991,18.768,26.913,18.77,30.928,18.769z"/>
</g>
</svg>
