<?xml version="1.0" encoding="utf-8"?>
<!-- Generator: Adobe Illustrator 16.0.0, SVG Export Plug-In . SVG Version: 6.00 Build 0)  -->
<!DOCTYPE svg PUBLIC "-//W3C//DTD SVG 1.1//EN" "http://www.w3.org/Graphics/SVG/1.1/DTD/svg11.dtd">
<svg version="1.1" id="Layer_1" xmlns="http://www.w3.org/2000/svg" xmlns:xlink="http://www.w3.org/1999/xlink" x="0px" y="0px"
	 width="50px" height="50px" viewBox="0 0 50 50" enable-background="new 0 0 50 50" xml:space="preserve">
<g>
	<path fill="#FFFFFF" d="M35.883,23.298c-0.425,0.449-0.869,0.878-1.348,1.271c-2.513,2.04-5.733,3.245-9.229,3.172
		c-3.499-0.071-6.662-1.404-9.087-3.546c-0.479-0.421-0.915-0.885-1.331-1.366c-5.823,3.387-9.793,9.599-9.943,16.789
		c-0.227,11.004,8.976,9.98,20.055,10.206c11.076,0.226,19.827,1.615,20.053-9.389C45.202,33.271,41.521,26.927,35.883,23.298z"/>
	<path fill="#FFFFFF" d="M25.853,0.003C18.959-0.14,13.258,5.301,13.115,12.147c-0.066,3.172,1.089,6.079,3.018,8.313
		c0.371,0.424,0.753,0.834,1.178,1.208c2.142,1.892,4.937,3.07,8.03,3.133c3.086,0.063,5.932-1.001,8.155-2.805
		c0.425-0.345,0.813-0.725,1.189-1.122c2.041-2.155,3.326-5.028,3.391-8.219C38.22,5.809,32.744,0.143,25.853,0.003z"/>
</g>
</svg>
