<?xml version="1.0" encoding="utf-8"?>
<!-- Generator: Adobe Illustrator 16.0.0, SVG Export Plug-In . SVG Version: 6.00 Build 0)  -->
<!DOCTYPE svg PUBLIC "-//W3C//DTD SVG 1.1//EN" "http://www.w3.org/Graphics/SVG/1.1/DTD/svg11.dtd">
<svg version="1.1" id="Layer_1" xmlns="http://www.w3.org/2000/svg" xmlns:xlink="http://www.w3.org/1999/xlink" x="0px" y="0px"
	 width="50px" height="50px" viewBox="0 0 50 50" enable-background="new 0 0 50 50" xml:space="preserve">
<g>
	<g>
		<path fill-rule="evenodd" clip-rule="evenodd" fill="#60b6fb" d="M49.529,10.391c-3.05,6.454-5.821,11.789-8.777,17.662
			c-0.733,1.465-2.036,2.14-3.683,2.14c-5.418-0.002-10.836,0.016-16.251-0.02c-0.693-0.005-1.052,0.188-1.328,0.807
			c-0.484,1.093-1.043,2.15-1.64,3.357c0.543,0,0.933,0,1.323,0c7.8,0,15.597-0.007,23.395,0.007c0.509,0,1.041,0.022,1.509,0.184
			c0.947,0.327,1.371,1.074,1.283,2.062c-0.078,0.935-0.599,1.559-1.527,1.769c-0.354,0.081-0.725,0.086-1.09,0.086
			c-8.127,0.007-16.254,0.009-24.383,0.004c-3.761-0.007-5.625-2.976-3.987-6.357c0.652-1.346,1.379-2.657,1.985-4.027
			c0.17-0.391,0.184-1.001,0-1.377C12.998,19.863,9.594,13.066,6.225,6.251C5.932,5.652,5.57,5.466,4.952,5.504
			C4.259,5.544,3.557,5.475,2.866,5.52C1.61,5.603,0.386,5.264,0.09,4.02c-0.202-0.856,0-1.758,0-2.637c2.489,0,3.954-0.177,7.472,0
			c1.545,0.076,1.771,1.96,2.332,3.146c0.368,0.778,0.801,1.025,1.66,1.025c10.961-0.036,21.928-0.22,32.89-0.022
			C49.915,5.63,50.704,7.899,49.529,10.391z"/>
		<path fill-rule="evenodd" clip-rule="evenodd" fill="#60b6fb" d="M22.287,44.74c0,2.185-1.77,3.956-3.954,3.956
			c-2.185,0-3.954-1.771-3.954-3.956c0-2.182,1.769-3.956,3.954-3.956C20.517,40.784,22.287,42.559,22.287,44.74z"/>
		<path fill-rule="evenodd" clip-rule="evenodd" fill="#60b6fb" d="M44.603,44.74c0,2.185-1.774,3.956-3.956,3.956
			c-2.187,0-3.954-1.771-3.954-3.956c0-2.182,1.768-3.956,3.954-3.956C42.828,40.784,44.603,42.559,44.603,44.74z"/>
	</g>
</g>
</svg>
