<?xml version="1.0" encoding="utf-8"?>
<!-- Generator: Adobe Illustrator 16.0.0, SVG Export Plug-In . SVG Version: 6.00 Build 0)  -->
<!DOCTYPE svg PUBLIC "-//W3C//DTD SVG 1.1//EN" "http://www.w3.org/Graphics/SVG/1.1/DTD/svg11.dtd">
<svg version="1.1" id="Layer_1" xmlns="http://www.w3.org/2000/svg" xmlns:xlink="http://www.w3.org/1999/xlink" x="0px" y="0px"
	 width="50px" height="50px" viewBox="0 0 50 50" enable-background="new 0 0 50 50" xml:space="preserve">
<path fill="#60b6fb" d="M34.618,21.018c1.847-2.167,2.977-4.964,2.977-8.033c0-6.856-5.562-12.413-12.417-12.413
	c-6.857,0-12.413,5.556-12.413,12.413c0,3.171,1.197,6.057,3.154,8.25C8.972,24.604,4.184,30.19,4.184,41c0,11,41.987,11,41.987,0
	C46.171,30.286,41.465,24.412,34.618,21.018z"/>
<path fill="#33376b" d="M26.764,28.76L28.028,33c0,0,1.831,0,4.091,0c2.259,0,2.608,0.721,0.781,2.041l-3.31,2.218
	c0,0,0.565,1.65,1.264,3.797c0.698,2.146-0.218,2.764-2.045,1.434l-3.31-2.431c0,0-1.482,1.066-3.31,2.394
	c-1.828,1.327-2.743,0.661-2.044-1.481l1.263-3.882c0,0-1.48-0.723-3.309-2.045C16.271,33.722,16.622,33,18.88,33h4.09
	c0,0,0.567-1.917,1.266-4.064C24.934,26.785,26.065,26.609,26.764,28.76z"/>
</svg>
