<?xml version="1.0" encoding="utf-8"?>
<!-- Generator: Adobe Illustrator 16.0.0, SVG Export Plug-In . SVG Version: 6.00 Build 0)  -->
<!DOCTYPE svg PUBLIC "-//W3C//DTD SVG 1.1//EN" "http://www.w3.org/Graphics/SVG/1.1/DTD/svg11.dtd">
<svg version="1.1" id="Layer_1" xmlns="http://www.w3.org/2000/svg" xmlns:xlink="http://www.w3.org/1999/xlink" x="0px" y="0px"
	 width="50px" height="50px" viewBox="0 0 50 50" enable-background="new 0 0 50 50" xml:space="preserve">
<g>
	<path fill-rule="evenodd" clip-rule="evenodd" fill="#60b6fb" d="M10.152,20.282c2.89,0,5.341-0.068,7.786,0.028
		c1.274,0.049,1.716-0.256,1.697-1.632c-0.085-5.73,0-11.459-0.065-17.187c-0.013-1.199,0.333-1.521,1.502-1.479
		c2.524,0.087,5.06,0.108,7.58-0.004c1.369-0.063,1.805,0.273,1.781,1.72c-0.09,5.671,0.006,11.348-0.067,17.018
		c-0.02,1.279,0.34,1.615,1.587,1.564c2.463-0.101,4.931-0.028,7.342-0.028c0.283,0.385,0.05,0.585-0.124,0.792
		c-4.426,5.233-8.851,10.458-13.271,15.693c-0.493,0.584-0.85,1.16-1.643,0.214C19.689,31.511,15.066,26.086,10.152,20.282z"/>
	<path fill-rule="evenodd" clip-rule="evenodd" fill="#60b6fb" d="M25.124,41.872c6.687,0,13.374,0.021,20.061-0.021
		c1.059-0.009,1.495,0.227,1.43,1.378c-0.099,1.739-0.118,3.487,0.004,5.223c0.099,1.321-0.392,1.557-1.604,1.548
		c-10.45-0.044-20.904-0.026-31.357-0.026c-2.976,0-5.955-0.039-8.934,0.021C3.73,50.015,3.325,49.79,3.38,48.7
		c0.092-1.79,0.106-3.598-0.003-5.39c-0.074-1.231,0.376-1.474,1.519-1.465C11.637,41.902,18.382,41.872,25.124,41.872z"/>
</g>
</svg>
