<?xml version="1.0" encoding="utf-8"?>
<!-- Generator: Adobe Illustrator 16.0.0, SVG Export Plug-In . SVG Version: 6.00 Build 0)  -->
<!DOCTYPE svg PUBLIC "-//W3C//DTD SVG 1.1//EN" "http://www.w3.org/Graphics/SVG/1.1/DTD/svg11.dtd">
<svg version="1.1" id="Layer_1" xmlns="http://www.w3.org/2000/svg" xmlns:xlink="http://www.w3.org/1999/xlink" x="0px" y="0px"
	 width="50px" height="50px" viewBox="0 0 50 50" enable-background="new 0 0 50 50" xml:space="preserve">
<g>
	<path fill="#60b6fb" d="M25.153,0C11.367,0,0.154,11.214,0.154,24.999C0.154,38.783,11.367,50,25.153,50
		c13.786,0,24.999-11.217,24.999-25.001C50.152,11.214,38.939,0,25.153,0z M25.153,46.869c-12.06,0-21.873-9.808-21.873-21.87
		c0-12.061,9.813-21.873,21.873-21.873c12.06,0,21.873,9.813,21.873,21.873C47.026,37.062,37.213,46.869,25.153,46.869z"/>
	<circle fill="#60b6fb" cx="25.153" cy="25" r="17.611"/>
	<g>
		<path fill="#33376b" d="M30.938,27.708c0,1.204-0.436,2.171-1.306,2.899c-0.87,0.73-2.09,1.168-3.655,1.312v2.328h-1.556v-2.283
			c-1.846-0.038-3.464-0.363-4.857-0.976v-2.996c0.659,0.325,1.451,0.612,2.377,0.861c0.928,0.251,1.753,0.399,2.48,0.444v-3.519
			l-0.76-0.296c-1.498-0.59-2.559-1.231-3.182-1.924c-0.625-0.691-0.937-1.548-0.937-2.57c0-1.097,0.431-2,1.287-2.706
			c0.861-0.709,2.059-1.138,3.592-1.29v-1.735h1.556v1.69c1.731,0.076,3.299,0.424,4.698,1.045l-1.065,2.655
			c-1.182-0.484-2.393-0.778-3.633-0.886v3.348c1.476,0.57,2.525,1.062,3.148,1.476c0.624,0.417,1.081,0.875,1.372,1.375
			C30.79,26.461,30.938,27.042,30.938,27.708z M22.959,20.989c0,0.332,0.114,0.607,0.345,0.823c0.229,0.215,0.603,0.438,1.117,0.664
			V19.81C23.446,19.953,22.959,20.346,22.959,20.989z M27.521,27.878c0-0.318-0.13-0.585-0.386-0.805
			c-0.258-0.22-0.644-0.446-1.157-0.682v2.825C27.005,29.044,27.521,28.598,27.521,27.878z"/>
	</g>
</g>
</svg>
