<?xml version="1.0" encoding="utf-8"?>
<!-- Generator: Adobe Illustrator 16.0.0, SVG Export Plug-In . SVG Version: 6.00 Build 0)  -->
<!DOCTYPE svg PUBLIC "-//W3C//DTD SVG 1.1//EN" "http://www.w3.org/Graphics/SVG/1.1/DTD/svg11.dtd">
<svg version="1.1" id="Layer_1" xmlns="http://www.w3.org/2000/svg" xmlns:xlink="http://www.w3.org/1999/xlink" x="0px" y="0px"
	 width="50px" height="50px" viewBox="0 0 50 50" enable-background="new 0 0 50 50" xml:space="preserve">
<g>
	<g>
		<path fill-rule="evenodd" clip-rule="evenodd" fill="#60b6fb" d="M28.969,45.907c0-3.928,0-7.836,0-11.783
			c-2.656,0-5.268,0-7.929,0c0,0.182,0,0.353,0,0.527c0,3.604-0.004,7.207,0.005,10.812c0,0.359-0.076,0.482-0.465,0.482
			c-3.698-0.018-7.397-0.009-11.098-0.011c-1.461-0.003-2.266-0.809-2.267-2.274c0-4.729,0.004-9.46-0.004-14.191
			c-0.003-0.345,0.095-0.572,0.365-0.795c5.661-4.651,11.313-9.316,16.966-13.975c0.543-0.446,0.366-0.449,0.918,0.006
			c5.656,4.656,11.302,9.319,16.964,13.973c0.255,0.209,0.361,0.423,0.361,0.756c-0.009,4.772-0.005,9.542-0.007,14.315
			c0,1.337-0.823,2.18-2.152,2.182c-3.766,0.007-7.527,0.003-11.295,0C29.223,45.932,29.12,45.919,28.969,45.907z"/>
		<path fill-rule="evenodd" clip-rule="evenodd" fill="#60b6fb" d="M24.996,9.327c-1.817,1.514-3.605,3-5.389,4.491
			c-5.24,4.366-10.479,8.738-15.72,13.106c-0.73,0.607-1.239,0.558-1.841-0.161c-0.507-0.607-1.014-1.209-1.518-1.814
			c-0.589-0.712-0.553-1.212,0.161-1.806c3.569-2.978,7.142-5.951,10.714-8.928c3.571-2.973,7.146-5.946,10.711-8.929
			c0.739-0.62,1.506-1.145,2.516-1.218c1.071-0.08,2.013,0.192,2.836,0.882c2.337,1.953,4.671,3.904,7.009,5.854
			c0.105,0.085,0.207,0.168,0.401,0.321c0-0.223,0-0.361,0-0.502c0-1.725,0-3.453,0-5.178c0-0.991,0.331-1.319,1.318-1.319
			c1.756-0.002,3.508-0.002,5.262,0c0.989,0,1.324,0.33,1.324,1.317c0,3.958,0,7.911-0.007,11.87
			c-0.002,0.282,0.074,0.471,0.299,0.654c2.013,1.659,4.016,3.333,6.024,5c0.137,0.114,0.274,0.221,0.403,0.344
			c0.445,0.421,0.519,0.938,0.137,1.422c-0.606,0.768-1.231,1.52-1.884,2.25c-0.447,0.497-0.989,0.481-1.554,0.014
			c-1.954-1.625-3.905-3.25-5.858-4.879c-4.814-4.014-9.625-8.026-14.435-12.038C25.614,9.835,25.321,9.595,24.996,9.327z"/>
	</g>
</g>
</svg>
