<?xml version="1.0" encoding="utf-8"?>
<!-- Generator: Adobe Illustrator 16.0.0, SVG Export Plug-In . SVG Version: 6.00 Build 0)  -->
<!DOCTYPE svg PUBLIC "-//W3C//DTD SVG 1.1//EN" "http://www.w3.org/Graphics/SVG/1.1/DTD/svg11.dtd">
<svg version="1.1" id="Layer_1" xmlns="http://www.w3.org/2000/svg" xmlns:xlink="http://www.w3.org/1999/xlink" x="0px" y="0px"
	 width="50px" height="50px" viewBox="0 0 50 50" enable-background="new 0 0 50 50" xml:space="preserve">
<g>
	<path fill-rule="evenodd" clip-rule="evenodd" fill="#60b6fb" d="M50,46.27C50,48.33,48.33,50,46.268,50H13.733
		C11.671,50,10,48.33,10,46.27V13.73C10,11.67,11.671,10,13.733,10h32.535C48.33,10,50,11.67,50,13.73V46.27z"/>
	<path fill="#60b6fb" d="M8.72,5.288L40,5.24V2.727C40,0.667,39.498,0,37.438,0H3.917C1.856,0,0,0.911,0,3.868v32.438
		C0,38.364-0.014,40,2.047,40H5V8.324C5,6.262,6.659,5.288,8.72,5.288z"/>
</g>
</svg>
