<?xml version="1.0" encoding="utf-8"?>
<!-- Generator: Adobe Illustrator 16.0.0, SVG Export Plug-In . SVG Version: 6.00 Build 0)  -->
<!DOCTYPE svg PUBLIC "-//W3C//DTD SVG 1.1//EN" "http://www.w3.org/Graphics/SVG/1.1/DTD/svg11.dtd">
<svg version="1.1" id="Layer_1" xmlns="http://www.w3.org/2000/svg" xmlns:xlink="http://www.w3.org/1999/xlink" x="0px" y="0px"
	 width="50px" height="50px" viewBox="0 0 50 50" enable-background="new 0 0 50 50" xml:space="preserve">
<g>
	<g>
		<path fill="#60b6fb" d="M31.622,43H6.051C3.42,43,2,40.513,2,38.173V6.505C2,3.853,3.666,2,6.051,2h26.612
			C34.877,2,36,3.516,36,6.505V16c0,0.552-0.447,1-1,1s-1-0.448-1-1V6.505C34,4,33.259,4,32.663,4H6.051C4.539,4,4,5.294,4,6.505
			v31.667C4,39.543,4.719,41,6.051,41h25.571C32.707,41,34,40.673,34,39.115V33c0-0.553,0.447-1,1-1s1,0.447,1,1v6.115
			C36,41.476,34.281,43,31.622,43z"/>
	</g>
	<g>
		<g>
			<path fill-rule="evenodd" clip-rule="evenodd" fill="#60b6fb" d="M38.537,20.304c0-1.037-0.141-3.405-0.149-3.617
				c-0.044-1.671,0.796-1.435,1.738-0.6c2.063,1.738,4.1,3.511,6.14,5.28c1.048,0.904,2.081,1.827,3.195,2.81
				c-0.834,0.739-1.614,1.445-2.406,2.132c-2.265,1.97-4.525,3.946-6.818,5.882c-0.982,0.706-1.61,1.122-1.652-0.727
				c-0.022-1.103-0.024-2.209-0.024-3.386c-0.45-0.02-3.724-0.042-5.944-0.048c-1.048-0.002-1.5-0.473-1.5-1.528
				c0.002-1.59-0.002-3.181,0.005-4.77c0.002-0.937,0.496-1.425,1.446-1.427c2.225-0.006,2.685-0.002,4.905-0.002
				C37.767,20.304,38.065,20.304,38.537,20.304z"/>
		</g>
	</g>
	<path fill="#60b6fb" d="M28.041,44.328c0,1.942-1.612,3.9-3.518,3.519c-6.703-1.334-12.228-2.232-19.018-3.98
		c-1.881-0.484-4.63-2.66-4.63-5.29V6.177c0-1.942,1.074-4.071,4.295-4.071c0,0,13.31,3.328,19.353,5.276
		c1.849,0.598,3.518,1.579,3.518,3.521V44.328z"/>
</g>
</svg>
