<?xml version="1.0" encoding="utf-8"?>
<!-- Generator: Adobe Illustrator 16.0.0, SVG Export Plug-In . SVG Version: 6.00 Build 0)  -->
<!DOCTYPE svg PUBLIC "-//W3C//DTD SVG 1.1//EN" "http://www.w3.org/Graphics/SVG/1.1/DTD/svg11.dtd">
<svg version="1.1" id="Layer_1" xmlns="http://www.w3.org/2000/svg" xmlns:xlink="http://www.w3.org/1999/xlink" x="0px" y="0px"
	 width="50px" height="50px" viewBox="0 0 50 50" enable-background="new 0 0 50 50" xml:space="preserve">
<g>
	<g>
		<g>
			<g>
				<circle fill="#60b6fb" cx="24.912" cy="25" r="25"/>
			</g>
		</g>
	</g>
	<g>
		<path fill-rule="evenodd" clip-rule="evenodd" fill="#FFFFFF" d="M23.514,13.87c0-0.787-0.02-1.537,0.007-2.285
			c0.031-1.228,0.849-2.104,1.949-2.135c1.147-0.033,2.026,0.854,2.078,2.135c0.027,0.751,0.007,1.501,0.007,2.297
			c2.351,0.669,4.351,1.797,5.784,3.783c1.115,1.549,1.748,3.245,1.886,5.173c0.15,2.135,0.304,3.488,0.521,5.619
			c0.081,0.787,0.456,1.28,0.957,2.045c0.456,0.697,0.588,1.406,0.504,2.171c-0.101,0.907-1.093,0.868-1.854,0.868
			c-6.554,0.008-13.109,0.024-19.665-0.028c-0.62-0.003-1.453,0.036-1.764-0.756c-0.28-0.712-0.156-1.666,0.183-2.419
			c0.53-1.178,1.005-1.429,1.085-2.031c0.306-2.24,0.336-4.205,0.73-6.432c0.66-3.735,2.885-6.264,6.43-7.62
			C22.72,14.113,23.096,14.007,23.514,13.87z"/>
		<path fill-rule="evenodd" clip-rule="evenodd" fill="#FFFFFF" d="M22.109,35.164c2.335,0,4.59,0,6.833,0
			c0.175,1.992-1.709,3.452-3.335,3.491C23.7,38.697,22.171,37.218,22.109,35.164z"/>
	</g>
</g>
</svg>
