<?xml version="1.0" encoding="utf-8"?>
<!-- Generator: Adobe Illustrator 16.0.0, SVG Export Plug-In . SVG Version: 6.00 Build 0)  -->
<!DOCTYPE svg PUBLIC "-//W3C//DTD SVG 1.1//EN" "http://www.w3.org/Graphics/SVG/1.1/DTD/svg11.dtd">
<svg version="1.1" id="Layer_1" xmlns="http://www.w3.org/2000/svg" xmlns:xlink="http://www.w3.org/1999/xlink" x="0px" y="0px"
	 width="50px" height="50px" viewBox="0 0 50 50" enable-background="new 0 0 50 50" xml:space="preserve">
<g>
	<g>
		<path fill="#60b6fb" d="M13.123,41.872c0,2.068-1.679,3.748-3.75,3.748H3.749C1.679,45.62,0,43.94,0,41.872V8.127
			C0,6.059,1.679,4.38,3.749,4.38h5.624c2.071,0,3.75,1.679,3.75,3.748V41.872z"/>
	</g>
	<g>
		<path fill="#60b6fb" d="M31.562,41.872c0,2.068-1.68,3.748-3.748,3.748h-5.625c-2.07,0-3.75-1.68-3.75-3.748V15.627
			c0-2.07,1.679-3.75,3.75-3.75h5.625c2.068,0,3.748,1.679,3.748,3.75V41.872z"/>
	</g>
	<g>
		<path fill="#60b6fb" d="M50,41.872c0,2.068-1.679,3.748-3.748,3.748h-5.624c-2.071,0-3.75-1.68-3.75-3.748V26.875
			c0-2.071,1.679-3.75,3.75-3.75h5.624c2.069,0,3.748,1.679,3.748,3.75V41.872z"/>
	</g>
</g>
</svg>
