<?xml version="1.0" encoding="utf-8"?>
<!-- Generator: Adobe Illustrator 16.0.0, SVG Export Plug-In . SVG Version: 6.00 Build 0)  -->
<!DOCTYPE svg PUBLIC "-//W3C//DTD SVG 1.1//EN" "http://www.w3.org/Graphics/SVG/1.1/DTD/svg11.dtd">
<svg version="1.1" id="Layer_1" xmlns="http://www.w3.org/2000/svg" xmlns:xlink="http://www.w3.org/1999/xlink" x="0px" y="0px"
	 width="299px" height="227px" viewBox="0 0 299 227" enable-background="new 0 0 299 227" xml:space="preserve">
<g>
	<g>
		<path fill="#568FD4" d="M151.953,75.365c17.436,0,32.047,0.883,48.047,3.616v-75c0,0-13.593-3.625-50.583-3.625
			c-35.759,0-50.417,3.6-50.417,3.6v75C116.183,76.508,132.506,75.365,151.953,75.365z"/>
		<path fill="#568FD4" d="M82,81.891v-75C31.5,16.875,0,37.393,0,37.393v75C21.417,99,51,88.202,82,81.891z"/>
		<path fill="#568FD4" d="M217,81.925v-75c53.625,10.825,82,30.569,82,30.569v75C271.5,96.024,243,87.119,217,81.925z"/>
		<path fill="#FFFFFF" d="M104.539,72.268l0.014-11.491L126.82,39c0.251-0.262,0.757-0.225,1.062-0.032
			c5.681,3.595,15.59,10.708,20.405,13.403c0.749,0.419,2.151-0.871,1.444-1.317c-3.616-2.282-5.28-3.333-7.855-5.204
			c-0.294-0.214-0.298-0.646-0.05-0.912l27.177-20.976c0.246-0.269,0.66-0.281,0.922-0.03l22.893,18.836
			c0.26,0.251,1.184,0.764,1.184,1.123v28.361c0,0-19.48-3.131-41.008-3.124C124.862,69.137,104.539,72.268,104.539,72.268z"/>
		<ellipse transform="matrix(1 -0.0054 0.0054 1 -0.1087 0.7445)" fill="#FFFFFF" cx="137.645" cy="20.471" rx="9.483" ry="9.371"/>
		<path fill="#FFFFFF" d="M5.928,101.953L5.898,85.25l11.331-20.744c0.155-0.328,0.644-0.437,0.997-0.365
			c7.319,1.492,17.554,4.58,22.972,5.622C42.041,69.925,43,67.75,41.5,67.375c-4.147-1.037-4.987-1.114-8.826-2.106
			c-0.353-0.091-0.486-0.52-0.334-0.851l16.192-26.464c0.149-0.333,0.539-0.474,0.866-0.319c0,0,26.996,16.202,27.101,16.545
			l-0.111,22.833c0,0-11.931,1.148-32.224,8.331C16.5,95.134,5.928,101.953,5.928,101.953z"/>
		
			<ellipse transform="matrix(0.9198 -0.3924 0.3924 0.9198 -16.1135 11.8843)" fill="#FFFFFF" cx="21.014" cy="45.358" rx="8.481" ry="8.618"/>
		<g>
			<path fill="#FFFFFF" d="M293.469,102.953l0.029-16.703l-11.33-20.744c-0.156-0.328-0.645-0.437-0.998-0.365
				c-7.318,1.492-17.554,4.58-22.972,5.622c-0.843,0.162-1.802-2.013-0.302-2.388c4.147-1.037,4.987-1.114,8.826-2.106
				c0.352-0.091,0.485-0.52,0.334-0.851l-16.191-26.464c-0.15-0.333-0.539-0.474-0.867-0.319c0,0-26.996,16.202-27.101,16.545
				l0.11,22.833c0,0,11.932,1.148,32.225,8.331C282.896,96.134,293.469,102.953,293.469,102.953z"/>
			
				<ellipse transform="matrix(-0.9198 -0.3924 0.3924 -0.9198 516.2482 198.233)" fill="#FFFFFF" cx="278.383" cy="46.358" rx="8.481" ry="8.618"/>
		</g>
	</g>
	<g opacity="0.7">
		<path fill="#E3E5E6" d="M192.002,177.964c0,0,1.209-8.91,9.078-13.256c7.867-4.345,2.24-1.856,9.562-9.088
			c7.321-7.229,12.757-5.136,16.099-6.336c6.074-2.182,8.621-6.123,13.605-7.374c6.219-1.562,8.285,11.927-3.525,18.642
			c-9.517,5.411-6.756,16.066-27.662,16.213c-7.01,0.049-4.212,1.452-6.463,4.836C200.446,184.983,187.1,190.574,192.002,177.964z"
			/>
		<g>
			<path fill="#D9D9D9" d="M234.494,151.727c0,0-0.519,0.356-1.427,0.979c-0.905,0.625-2.197,1.518-3.749,2.59
				c-0.772,0.537-1.609,1.119-2.49,1.74c-0.44,0.31-0.894,0.631-1.356,0.956c-0.231,0.163-0.463,0.328-0.7,0.495
				c-0.234,0.169-0.469,0.338-0.709,0.509c-0.479,0.342-0.963,0.692-1.453,1.044c-0.489,0.355-0.984,0.717-1.482,1.08
				c-0.992,0.732-2,1.474-2.995,2.234c-0.499,0.379-0.999,0.756-1.491,1.14c-0.244,0.19-0.49,0.382-0.736,0.571
				c-0.243,0.191-0.486,0.383-0.728,0.574c-0.966,0.764-1.908,1.525-2.81,2.275c-0.113,0.092-0.227,0.186-0.338,0.276
				c-0.109,0.097-0.221,0.188-0.332,0.282c-0.219,0.188-0.438,0.371-0.652,0.553c-0.217,0.182-0.424,0.366-0.633,0.547
				c-0.207,0.182-0.412,0.361-0.614,0.538c-0.804,0.712-1.556,1.396-2.235,2.042c-0.348,0.316-0.66,0.639-0.969,0.936
				c-0.152,0.15-0.301,0.295-0.447,0.438c-0.141,0.145-0.277,0.285-0.41,0.423s-0.264,0.271-0.386,0.397
				c-0.125,0.129-0.247,0.25-0.356,0.371c-0.225,0.244-0.431,0.467-0.617,0.67c-0.092,0.101-0.182,0.195-0.262,0.289
				c-0.08,0.092-0.156,0.178-0.225,0.26c-0.141,0.16-0.259,0.297-0.355,0.408c-0.195,0.224-0.299,0.342-0.299,0.342
				s0.086-0.133,0.248-0.379c0.08-0.124,0.183-0.275,0.301-0.453c0.061-0.089,0.123-0.186,0.19-0.288
				c0.07-0.102,0.151-0.204,0.231-0.316c0.162-0.222,0.345-0.468,0.543-0.736c0.049-0.067,0.098-0.138,0.154-0.204
				c0.053-0.067,0.108-0.138,0.164-0.206c0.111-0.14,0.23-0.286,0.35-0.436c0.123-0.149,0.247-0.306,0.375-0.464
				c0.133-0.156,0.27-0.316,0.412-0.479c0.283-0.325,0.576-0.673,0.902-1.018c0.161-0.174,0.324-0.353,0.492-0.532
				c0.085-0.092,0.17-0.182,0.256-0.273c0.085-0.091,0.174-0.181,0.263-0.272c0.179-0.183,0.362-0.368,0.548-0.556
				c0.184-0.189,0.371-0.381,0.567-0.569c0.194-0.188,0.392-0.378,0.594-0.571c0.2-0.195,0.401-0.392,0.614-0.582
				c0.209-0.195,0.42-0.391,0.635-0.586c0.105-0.1,0.215-0.199,0.322-0.297c0.109-0.098,0.221-0.194,0.33-0.293
				c0.443-0.393,0.893-0.794,1.361-1.185c0.232-0.196,0.465-0.396,0.701-0.595c0.234-0.199,0.477-0.391,0.717-0.589
				c0.241-0.196,0.484-0.393,0.723-0.591c0.248-0.193,0.494-0.388,0.74-0.582c0.492-0.391,0.995-0.773,1.496-1.156
				s1.011-0.754,1.516-1.129c0.251-0.188,0.508-0.369,0.762-0.551c0.253-0.182,0.506-0.363,0.76-0.545
				c1.014-0.715,2.02-1.405,3.005-2.059c0.246-0.163,0.491-0.324,0.732-0.484c0.245-0.158,0.485-0.313,0.724-0.468
				c0.479-0.31,0.947-0.608,1.405-0.894c0.46-0.288,0.909-0.564,1.343-0.83c0.437-0.262,0.855-0.518,1.263-0.758
				c0.813-0.481,1.563-0.914,2.234-1.287c0.667-0.377,1.259-0.693,1.745-0.953c0.484-0.261,0.871-0.457,1.134-0.591
				C234.352,151.797,234.494,151.727,234.494,151.727z"/>
		</g>
		<path fill="#D9D9D9" d="M212.967,134.446c0,0-0.101,0.271-0.304,0.775c-0.101,0.252-0.228,0.563-0.382,0.925
			c-0.152,0.364-0.33,0.782-0.535,1.245c-0.205,0.465-0.435,0.977-0.688,1.533c-0.259,0.555-0.539,1.154-0.847,1.791
			c-0.077,0.158-0.154,0.32-0.233,0.484c-0.081,0.164-0.163,0.33-0.246,0.498c-0.167,0.336-0.341,0.682-0.519,1.035
			c-0.358,0.707-0.738,1.451-1.15,2.217c-0.408,0.77-0.844,1.564-1.297,2.387c-0.463,0.816-0.941,1.659-1.449,2.52
			c-1.006,1.723-2.118,3.512-3.316,5.329c-1.203,1.815-2.496,3.659-3.866,5.488c-1.368,1.833-2.792,3.667-4.272,5.458
			c-1.477,1.791-3.002,3.543-4.556,5.221s-3.14,3.274-4.722,4.769c-1.584,1.493-3.168,2.884-4.715,4.143
			c-1.545,1.259-3.055,2.392-4.48,3.39c-1.429,0.996-2.767,1.865-3.98,2.588c-0.153,0.093-0.301,0.183-0.447,0.27
			c-0.145,0.089-0.292,0.171-0.436,0.254c-0.287,0.162-0.563,0.32-0.828,0.473c-0.133,0.077-0.265,0.147-0.395,0.219
			c-0.127,0.066-0.255,0.135-0.378,0.201c-0.247,0.133-0.483,0.26-0.706,0.379c-0.451,0.232-0.857,0.433-1.208,0.611
			c-0.087,0.043-0.173,0.086-0.253,0.128c-0.082,0.038-0.164,0.075-0.238,0.11c-0.15,0.07-0.287,0.136-0.411,0.193
			c-0.491,0.23-0.753,0.354-0.753,0.354l-0.045-0.092c0,0,0.259-0.131,0.744-0.375c0.121-0.06,0.256-0.127,0.405-0.201
			c0.075-0.037,0.152-0.076,0.233-0.117c0.08-0.042,0.163-0.086,0.25-0.133c0.347-0.187,0.746-0.396,1.188-0.639
			c0.222-0.125,0.453-0.256,0.695-0.395c0.121-0.069,0.246-0.14,0.373-0.213c0.127-0.072,0.257-0.145,0.388-0.225
			c0.261-0.156,0.532-0.32,0.813-0.49c0.141-0.086,0.285-0.168,0.43-0.26c0.143-0.092,0.289-0.184,0.439-0.279
			c1.193-0.744,2.506-1.639,3.904-2.66s2.875-2.181,4.385-3.465c1.511-1.287,3.061-2.69,4.606-4.204
			c1.547-1.513,3.089-3.132,4.609-4.819c1.518-1.688,3.008-3.45,4.45-5.252c1.432-1.809,2.818-3.654,4.131-5.505
			c1.314-1.853,2.563-3.706,3.75-5.513c0.6-0.9,1.17-1.799,1.734-2.671c0.278-0.44,0.559-0.873,0.824-1.306
			c0.271-0.431,0.541-0.855,0.802-1.276c0.524-0.843,1.022-1.669,1.502-2.469s0.942-1.575,1.376-2.324
			c0.436-0.749,0.848-1.468,1.24-2.154c0.389-0.688,0.751-1.342,1.094-1.958c0.343-0.614,0.658-1.193,0.945-1.73
			c0.291-0.536,0.556-1.028,0.791-1.477c0.473-0.895,0.836-1.603,1.084-2.084c0.242-0.486,0.374-0.742,0.374-0.742L212.967,134.446z
			"/>
		<path fill="#E3E5E6" d="M210.531,139.121c0,0,7.201-8.407,10.721-5.507C224.773,136.513,216.491,142.157,210.531,139.121z"/>
		<path fill="#E3E5E6" d="M206.612,146.667c0,0,7.13-7.951,10.667-5.164C220.816,144.292,212.588,149.604,206.612,146.667z"/>
		<path fill="#E3E5E6" d="M202.748,153.63c0,0,7.131-7.954,10.668-5.165C216.953,151.253,208.725,156.565,202.748,153.63z"/>
		<path fill="#E3E5E6" d="M197.111,161.471c0,0,7.648-7.456,10.99-4.437C211.443,160.055,202.876,164.801,197.111,161.471z"/>
		<path fill="#E3E5E6" d="M190.344,169.163c0,0,7.805-7.293,11.082-4.204S196.039,172.614,190.344,169.163z"/>
		<path fill="#E3E5E6" d="M186.131,173.911c0,0,9.852-4.125,11.852-0.09C199.982,177.858,190.27,179.126,186.131,173.911z"/>
		<path fill="#E3E5E6" d="M209.977,141.425c0,0,3.553-10.484-0.736-12.031C204.951,127.846,204.324,137.848,209.977,141.425z"/>
		<path fill="#E3E5E6" d="M205.389,147.991c0,0,3.224-10.184-0.974-11.813C200.217,134.549,199.822,144.336,205.389,147.991z"/>
		<path fill="#E3E5E6" d="M201.434,155.528c0,0,2.982-10.256-1.254-11.785C195.943,142.215,195.782,152.008,201.434,155.528z"/>
		<path fill="#E3E5E6" d="M196.048,162.806c0,0,4.114-9.857,0.075-11.852C192.086,148.958,190.827,158.673,196.048,162.806z"/>
		<path fill="#E3E5E6" d="M190.502,169.632c0,0,5.369-9.233,1.627-11.74C188.386,155.384,185.867,164.852,190.502,169.632z"/>
		<path fill="#E3E5E6" d="M185.346,175.088c0,0,5.012-9.433,1.176-11.794C182.687,160.933,180.531,170.487,185.346,175.088z"/>
		<path fill="#D9D9D9" d="M70.645,154.661c0,0,0.26,0.215,0.757,0.605c0.25,0.195,0.558,0.434,0.924,0.711s0.786,0.594,1.265,0.942
			c0.476,0.349,1.006,0.731,1.585,1.143c0.583,0.409,1.215,0.849,1.895,1.313c0.17,0.115,0.342,0.233,0.519,0.353
			c0.177,0.117,0.355,0.237,0.537,0.358c0.364,0.243,0.741,0.487,1.126,0.741c0.772,0.504,1.588,1.031,2.449,1.564
			c0.859,0.537,1.761,1.085,2.697,1.648c0.94,0.555,1.914,1.123,2.926,1.696c2.017,1.149,4.178,2.306,6.444,3.438
			c2.269,1.129,4.645,2.233,7.091,3.28c2.445,1.048,4.949,2.069,7.481,3.011c2.531,0.946,5.089,1.822,7.63,2.607
			c2.542,0.788,5.07,1.475,7.534,2.057c2.466,0.584,4.869,1.063,7.161,1.43c2.292,0.369,4.472,0.633,6.491,0.807
			c2.017,0.174,3.872,0.271,5.517,0.292c0.205,0.004,0.407,0.009,0.605,0.012c0.2,0.005,0.395,0.001,0.587,0.001
			c0.384-0.003,0.754-0.004,1.11-0.006c0.178,0.002,0.353-0.005,0.523-0.01c0.17-0.004,0.336-0.011,0.5-0.016
			c0.326-0.01,0.637-0.021,0.932-0.029c0.589-0.029,1.116-0.063,1.573-0.088c0.114-0.007,0.224-0.014,0.329-0.02
			c0.106-0.009,0.208-0.018,0.305-0.026c0.193-0.017,0.368-0.032,0.526-0.044c0.63-0.054,0.966-0.082,0.966-0.082l-0.011-0.119
			c0,0-0.335,0.02-0.965,0.057c-0.157,0.01-0.333,0.021-0.527,0.032c-0.097,0.007-0.198,0.012-0.303,0.019
			c-0.106,0.004-0.215,0.008-0.33,0.01c-0.458,0.016-0.983,0.036-1.57,0.049c-0.294,0.002-0.604,0.004-0.929,0.007
			c-0.163,0.001-0.329,0.003-0.5,0.003c-0.17,0.002-0.342,0.003-0.521-0.002c-0.354-0.005-0.723-0.013-1.105-0.02
			c-0.192-0.004-0.387-0.004-0.585-0.011c-0.197-0.009-0.399-0.017-0.604-0.026c-1.637-0.055-3.481-0.191-5.484-0.406
			c-2.003-0.217-4.166-0.523-6.436-0.939c-2.27-0.416-4.65-0.93-7.088-1.555c-2.439-0.625-4.936-1.355-7.45-2.172
			c-2.513-0.818-5.04-1.727-7.54-2.703c-2.497-0.986-4.967-2.039-7.369-3.142c-2.403-1.101-4.74-2.241-6.988-3.37
			c-1.128-0.56-2.225-1.132-3.302-1.682c-0.538-0.283-1.07-0.557-1.592-0.836c-0.523-0.277-1.042-0.547-1.549-0.82
			c-1.019-0.545-2.001-1.086-2.951-1.613c-0.95-0.525-1.866-1.038-2.74-1.54c-0.874-0.503-1.709-0.985-2.503-1.449
			c-0.792-0.466-1.539-0.915-2.242-1.335c-0.704-0.421-1.358-0.82-1.961-1.193c-0.605-0.373-1.16-0.715-1.656-1.028
			c-0.998-0.626-1.776-1.128-2.306-1.47c-0.527-0.347-0.809-0.531-0.809-0.531L70.645,154.661z"/>
		<path fill="#E3E5E6" d="M75.821,157.954c0,0-12.151-4.278-14.009,0.692C59.953,163.618,71.582,164.482,75.821,157.954z"/>
		<path fill="#E3E5E6" d="M84.163,163.276c0,0-11.814-3.861-13.755,1.008C68.466,169.152,79.851,169.714,84.163,163.276z"/>
		<path fill="#E3E5E6" d="M92.108,168.043c0,0-11.814-3.864-13.756,1.007C76.411,173.918,87.796,174.479,92.108,168.043z"/>
		<path fill="#E3E5E6" d="M102.354,172.661c0,0-12.048-3.059-13.657,1.929S98.484,179.374,102.354,172.661z"/>
		<path fill="#E3E5E6" d="M113.65,176.473c0,0-12.109-2.806-13.614,2.216C98.532,183.709,109.922,183.266,113.65,176.473z"/>
		<path fill="#E3E5E6" d="M77.72,159.952c0,0-9.684-8.494-6.262-12.551S81.333,153.058,77.72,159.952z"/>
		<path fill="#E3E5E6" d="M86.166,163.897c0,0-9.177-8.383-5.896-12.469C83.552,147.343,89.646,156.976,86.166,163.897z"/>
		<path fill="#E3E5E6" d="M94.54,169.191c0,0-8.976-8.599-5.598-12.606C92.32,152.579,98.184,162.353,94.54,169.191z"/>
		<path fill="#E3E5E6" d="M104.202,173.388c0,0-9.884-7.537-6.976-11.898C100.134,157.128,107.056,166.185,104.202,173.388z"/>
		<path fill="#E3E5E6" d="M113.764,177.038c0,0-10.786-6.179-8.474-10.883C107.602,161.449,115.651,169.522,113.764,177.038z"/>
		<path fill="#E3E5E6" d="M122.136,179.534c0,0-10.541-6.588-8.051-11.2C116.575,163.722,124.308,172.096,122.136,179.534z"/>
		<path fill="#E3E5E6" d="M125.711,183.653c0,0-18.865-7.396-28.913-19.03c-0.386-0.446,4.977-2.992,4.977-2.992
			s-6.612,0.956-6.859,0.61c-1.551-2.16-2.767-4.445-3.493-6.84c-5.097-16.807,5.071-24.704,9.891-22.717
			c1.698,0.7,3.714,2.064,5.841,4.037c0.453,0.416-1.394,5.208-1.394,5.208s3.332-3.277,3.619-2.964
			c3.5,3.822,7.105,9.158,9.967,15.773c5.254,12.154,9.475,17.811,9.475,17.811l2.424,6.104L125.711,183.653z"/>
		<path fill="#D9D9D9" d="M98.021,141.4c0,0,0.079,0.149,0.226,0.427c0.146,0.279,0.367,0.684,0.647,1.199
			c0.281,0.516,0.632,1.135,1.035,1.845s0.869,1.503,1.378,2.367c0.262,0.427,0.523,0.88,0.809,1.339
			c0.14,0.23,0.284,0.465,0.429,0.703c0.148,0.238,0.297,0.479,0.449,0.721c0.302,0.488,0.622,0.984,0.942,1.492
			c0.332,0.504,0.658,1.025,1.005,1.547c0.69,1.044,1.414,2.115,2.166,3.192c0.368,0.542,0.767,1.072,1.146,1.618
			c0.389,0.539,0.784,1.076,1.18,1.612c0.403,0.532,0.796,1.071,1.205,1.595c0.204,0.262,0.406,0.523,0.609,0.785
			c0.101,0.133,0.202,0.263,0.302,0.395c0.102,0.127,0.206,0.256,0.308,0.384c0.818,1.028,1.634,2.032,2.443,2.985
			c0.806,0.959,1.605,1.869,2.369,2.728c0.385,0.427,0.761,0.841,1.125,1.241c0.371,0.395,0.728,0.776,1.071,1.143
			c0.338,0.371,0.681,0.709,0.999,1.04c0.321,0.329,0.618,0.646,0.909,0.935c0.29,0.288,0.563,0.556,0.811,0.809
			c0.251,0.25,0.476,0.488,0.691,0.688c0.427,0.405,0.755,0.733,0.982,0.952c0.224,0.223,0.344,0.342,0.344,0.342
			s-0.137-0.099-0.394-0.283c-0.255-0.188-0.635-0.457-1.108-0.812c-0.474-0.354-1.034-0.806-1.679-1.321
			c-0.163-0.125-0.323-0.265-0.49-0.406c-0.167-0.143-0.339-0.289-0.515-0.439c-0.35-0.301-0.724-0.613-1.097-0.957
			c-0.374-0.343-0.764-0.699-1.169-1.068c-0.392-0.38-0.799-0.774-1.216-1.178c-0.824-0.821-1.68-1.699-2.532-2.641
			c-0.437-0.46-0.853-0.953-1.285-1.443c-0.435-0.485-0.85-0.998-1.276-1.51c-0.107-0.129-0.213-0.257-0.32-0.385
			c-0.104-0.131-0.208-0.262-0.313-0.393c-0.208-0.263-0.417-0.525-0.626-0.789c-0.21-0.264-0.411-0.533-0.616-0.804
			c-0.204-0.267-0.409-0.538-0.614-0.806c-0.396-0.547-0.794-1.092-1.186-1.641c-0.191-0.275-0.382-0.553-0.573-0.827
			c-0.095-0.138-0.189-0.276-0.284-0.413c-0.093-0.139-0.185-0.277-0.277-0.415c-0.185-0.276-0.367-0.553-0.549-0.827
			c-0.182-0.277-0.355-0.553-0.53-0.827c-0.174-0.276-0.351-0.547-0.518-0.82c-0.167-0.274-0.333-0.548-0.497-0.817
			c-0.166-0.27-0.323-0.54-0.48-0.807c-0.157-0.27-0.312-0.535-0.465-0.798c-0.149-0.265-0.297-0.527-0.443-0.786
			c-0.072-0.129-0.146-0.258-0.217-0.387c-0.069-0.129-0.138-0.256-0.207-0.385c-0.557-1.017-1.05-1.993-1.497-2.898
			c-0.439-0.911-0.832-1.749-1.157-2.502c-0.167-0.375-0.316-0.729-0.451-1.056c-0.133-0.329-0.258-0.631-0.363-0.905
			c-0.221-0.546-0.371-0.984-0.479-1.279C98.071,141.562,98.021,141.4,98.021,141.4z"/>
	</g>
	<ellipse opacity="0.3" fill="#E8E8E8" cx="157" cy="211.827" rx="72" ry="14.775"/>
	<g>
		<path fill="#F9D7AF" d="M137.813,81.036c0,0,7.336,10.774,14.141,10.339c6.806-0.434,12.646-13.814,12.646-18.737
			s-0.724-8.108-0.724-8.108s0.724-8.253-10.426-9.266c-11.148-1.014-12.741-2.751-16.36,2.751c0,0-1.303,9.528-1.303,13.176
			S136.667,79.642,137.813,81.036z"/>
		<path fill="#264653" d="M138.054,58.063c0,0,3.475-1.641,5.984,0c2.51,1.641,3.736,3.851,6.154,4.633
			c4.175,1.351,6.395-2.027,8.808-0.676s2.777,3.072,5.143,4.23c0,0,0.952,5.313,0.341,7.545c-0.612,2.232-2.347,8.253-5.966,12.257
			l3.113,8.304c2.22,0.965,8.663-0.193,8.663-0.193s9.073-2.896,10.231-11.776c0,0-8.107-5.212-9.459-11.004
			s-4.537-19.981-11.197-23.553s-18.63-5.792-25.29,5.791c0,0-5.502-0.589-6.95,6.752c-1.448,7.341,1.738,12.36,0.772,18.924
			c-0.965,6.564-5.02,12.935-5.02,12.935s4.73,5.984,11.487,5.019s9.556-2.027,9.556-2.027l0.667-6.745c0,0-6.191-4.612-7.352-8.024
			s-2.156-9.006-1.726-13.146C136.444,63.171,136.702,58.526,138.054,58.063z"/>
		<polygon fill="#568FD4" points="134.95,78.68 137.161,75.75 139.55,77.995 136.991,80.38 		"/>
		<path fill="#E76F51" d="M161.559,93.994c0,0,4.488,0,11.185,1.701c4.353,1.106,10.257,2.73,12.204,8.631
			c0.568,1.722,11.553,24.443,12.65,27.953c1.139,3.645,2.043,5.088-1.336,9.432c-3.377,4.344-16.799,21.854-16.799,21.854
			l-2.412-18.399c0,0,4.588-7.693,4.343-8.677c-0.868-3.489-6.56-15.989-6.56-15.989l4.629,43.065L127,165.158v-41.266
			c0,0-15.516,11.149-22.755,9.268c-7.24-1.883,14.732-33.013,40.119-37.936L161.559,93.994z"/>
		<path fill="#F9D7AF" d="M158.518,86.052l3.113,8.304c0,0-3.307,9.86-7.844,9.86c-4.826,0-9.362-8.991-9.362-8.991l0.667-6.745
			c0,0,3.338,2.537,6.283,2.107C154.318,90.157,156.49,88.771,158.518,86.052z"/>
		<g>
			<path fill="#D35E46" d="M131.492,99.953c0,0-0.13,0.636-0.443,1.714c-0.302,1.083-0.794,2.606-1.471,4.396
				c-0.322,0.903-0.731,1.854-1.155,2.865c-0.421,1.012-0.898,2.064-1.421,3.139c-0.514,1.079-1.089,2.174-1.681,3.282
				c-0.61,1.101-1.241,2.212-1.92,3.3c-0.674,1.09-1.383,2.162-2.129,3.19c-0.726,1.031-1.542,2.02-2.309,2.927
				c-0.75,0.9-1.43,1.816-2.178,2.654c-0.736,0.839-1.471,1.617-2.21,2.269c-1.483,1.309-2.903,2.127-3.914,2.62
				c-0.507,0.247-0.915,0.415-1.194,0.525c-0.279,0.108-0.428,0.167-0.428,0.167s0.125-0.1,0.36-0.286
				c0.239-0.178,0.583-0.448,1-0.81c0.843-0.709,1.998-1.767,3.138-3.208c0.571-0.721,1.154-1.524,1.724-2.423
				c0.584-0.916,1.2-1.882,1.837-2.881c0.607-0.996,1.235-2.025,1.872-3.071c0.628-1.049,1.262-2.122,1.884-3.204
				c1.262-2.164,2.523-4.329,3.706-6.358c0.603-1.012,1.178-1.998,1.755-2.917c0.571-0.922,1.088-1.807,1.61-2.603
				c1.011-1.608,1.892-2.935,2.536-3.852C131.096,100.467,131.492,99.953,131.492,99.953z"/>
		</g>
		<path fill="#E76F51" d="M119.527,93.02l11.965,6.933c0,0-7.138,15.659-13.322,23.94c-6.185,8.281-11.251,11.023-15.324,8.774
			c-5.596-3.091-4.125-9.196,0.529-18.668C106.813,107.003,119.527,93.02,119.527,93.02z"/>
		<path fill="#F9D7AF" d="M120.07,93.333c0,0,3.24-4.045,3.312-5.493c0.073-1.448,0.41-5.396,2.654-7.061
			c2.245-1.665,8.084-3.436,10.401-1.337c1.445,1.309,1.521,8.326-0.579,10.425c-2.099,2.099-4.054,1.312-4.054,1.312l-2.946,7.246
			L120.07,93.333z"/>
		<path fill="#264653" d="M182.148,162.793c0,0,13.001-0.965,21.543,0.772c8.543,1.737,9.531,7.071,8.108,12.692
			c-2.847,11.245-29.392,27.993-59.798,38.563l-3.765-13.755c0,0-7.529,0-21.718-3.62c-14.189-3.619-29.537-7.238-28.813-17.953
			s16.94-15.348,27.22-14.334L182.148,162.793z"/>
		<path fill="#F2F2F2" d="M179.946,174.569c0,1.599-1.297,2.896-2.896,2.896H129.56c-1.599,0-2.896-1.297-2.896-2.896l-6.95-31.854
			c0-1.6,1.297-2.896,2.896-2.896H184c1.6,0,2.896,1.296,2.896,2.896L179.946,174.569z"/>
		<g>
			<path fill="#17323A" d="M148.237,201.065c0,0,0.449-0.358,1.234-0.986c0.798-0.607,1.914-1.514,3.299-2.532
				c1.386-1.018,2.981-2.234,4.729-3.483c0.872-0.622,1.773-1.265,2.688-1.917c0.944-0.663,1.781-1.313,2.604-2.098
				c0.837-0.748,1.628-1.561,2.401-2.367c0.774-0.818,1.536-1.623,2.273-2.402c1.481-1.564,2.984-2.947,4.385-3.988
				c0.701-0.519,1.377-0.955,2.015-1.268c0.615-0.352,1.201-0.559,1.665-0.756c0.469-0.189,0.866-0.259,1.121-0.342
				c0.259-0.071,0.397-0.109,0.397-0.109s-0.131,0.059-0.377,0.169c-0.243,0.117-0.61,0.258-1.051,0.488
				c-0.434,0.247-0.977,0.509-1.534,0.92c-0.578,0.374-1.18,0.87-1.83,1.408c-1.299,1.09-2.621,2.569-4.041,4.169
				c-1.415,1.604-2.923,3.351-4.645,4.933c-0.844,0.79-1.83,1.536-2.739,2.155c-0.943,0.653-1.866,1.245-2.762,1.846
				c-1.788,1.188-3.493,2.246-4.937,3.18c-1.444,0.932-2.688,1.65-3.539,2.181C148.732,200.774,148.237,201.065,148.237,201.065z"/>
		</g>
		<g>
			<path fill="#17323A" d="M161.355,192.011c0,0-0.451-0.157-1.23-0.458c-0.772-0.313-1.888-0.737-3.203-1.298
				c-1.319-0.553-2.833-1.257-4.452-2.016c-0.804-0.398-1.634-0.834-2.468-1.283c-0.852-0.43-1.648-0.963-2.452-1.465
				c-0.796-0.527-1.591-1.046-2.375-1.533c-0.794-0.474-1.56-0.962-2.34-1.365c-0.779-0.404-1.526-0.813-2.269-1.133
				c-0.731-0.345-1.429-0.663-2.091-0.916c-0.661-0.256-1.252-0.536-1.795-0.735c-0.543-0.2-1.017-0.374-1.407-0.518
				c-0.78-0.292-1.224-0.475-1.224-0.475s0.469,0.083,1.287,0.258c0.409,0.09,0.905,0.198,1.475,0.323
				c0.571,0.122,1.199,0.318,1.89,0.521c0.345,0.104,0.704,0.211,1.076,0.323c0.364,0.137,0.741,0.277,1.127,0.423
				c0.782,0.272,1.581,0.629,2.397,1.021c0.816,0.389,1.644,0.833,2.457,1.317c0.814,0.49,1.62,0.998,2.416,1.513
				c0.803,0.517,1.582,1.055,2.399,1.479c0.805,0.456,1.598,0.905,2.364,1.341c1.574,0.827,3.025,1.639,4.276,2.324
				c1.256,0.676,2.279,1.289,3.011,1.69C160.947,191.762,161.355,192.011,161.355,192.011z"/>
		</g>
		<path fill="#D65C45" d="M148.505,200.887c0,0-3.279,0.037-6.754-0.396c-3.475-0.435-14.219-3.578-19.287,1.25
			c-5.067,4.827-3.475,11.777,3.186,13.805s20.271-0.324,25.772-3.999L148.505,200.887z"/>
		<path fill="#D65C45" d="M185.84,199.65c0,0,6.559,1.561,5.545,7.063s-8.486,8.407-25.223,2.632L185.84,199.65z"/>
		<path fill="#568FD4" d="M128.064,88.336l2.376,1.865c0,0-2.973,3.477-4.304,2.708C124.799,92.136,128.064,88.336,128.064,88.336z"
			/>
		<circle fill="#568FD4" cx="144.135" cy="70.127" r="9.314"/>
		<circle fill="#FFFFFF" cx="144.135" cy="70.127" r="6.854"/>
	</g>
</g>
</svg>
