<?xml version="1.0" encoding="utf-8"?>
<!-- Generator: Adobe Illustrator 16.0.0, SVG Export Plug-In . SVG Version: 6.00 Build 0)  -->
<!DOCTYPE svg PUBLIC "-//W3C//DTD SVG 1.1//EN" "http://www.w3.org/Graphics/SVG/1.1/DTD/svg11.dtd">
<svg version="1.1" id="Layer_1" xmlns="http://www.w3.org/2000/svg" xmlns:xlink="http://www.w3.org/1999/xlink" x="0px" y="0px"
	 width="322.667px" height="286.258px" viewBox="0 0 322.667 286.258" enable-background="new 0 0 322.667 286.258"
	 xml:space="preserve">
<polygon fill="#1B8C89" points="220.076,223.694 221.703,188 97.42,188 98.716,229 219.83,229 "/>
<polygon fill="#CE4F3E" points="100.51,286.258 217.24,286.258 219.486,236.82 98.954,236.82 "/>
<path fill="#7E90E1" d="M319.668,191.567c0,1.896-1.537,3.434-3.434,3.434H6.102c-1.896,0-3.434-1.537-3.434-3.434V6.434
	C2.668,4.538,4.205,3,6.102,3h310.133c1.896,0,3.434,1.537,3.434,3.434V191.567z"/>
<path fill="#364F6B" d="M302.668,172.567c0,1.896-1.537,3.434-3.433,3.434H25.101c-1.896,0-3.433-1.537-3.433-3.434V25.434
	c0-1.896,1.537-3.434,3.433-3.434h274.135c1.896,0,3.433,1.537,3.433,3.434V172.567z"/>
<path fill="#FFFFFF" d="M264.961,146.182c0,1.896-1.536,3.433-3.432,3.433h-19.227c-1.896,0-3.434-1.536-3.434-3.433V52.111
	c0-1.896,1.537-3.433,3.434-3.433h19.227c1.896,0,3.432,1.537,3.432,3.433V146.182z"/>
<rect x="241.668" y="53" fill="#7E90E1" width="20" height="19"/>
<rect x="241.303" y="77.518" fill="#F47457" width="20.363" height="19.227"/>
<rect x="241.668" y="102" fill="#4BD0D0" width="20" height="20"/>
<rect x="242.668" y="126" fill="#D275C7" width="20" height="18"/>
<g>
	<path fill="#7E90E1" d="M99.668,146.13c0,1.896-1.943,3.87-3.839,3.87H61.844c-1.896,0-3.176-1.975-3.176-3.87V51.892
		c0-1.897,1.28-3.892,3.176-3.892h33.984c1.896,0,3.839,1.995,3.839,3.892V146.13z"/>
	<path fill="#FFFFFF" d="M83.938,96.955l-15.624-4.655l9.366,9.684c0,0,0.884-0.436,1.516,0.183
		c0.489,0.479,0.506,1.275,0.014,1.753c-0.493,0.475-1.467,0.601-1.895,0.066c-0.458-0.572-0.258-1.442-0.258-1.442l-9.368-9.686
		c0.069,0.07,4.473,15.488,4.473,15.488c0.305,0.886,1.206,1.479,2.139,1.55l6.465,0.334l-1.826,1.765
		c-0.448,0.433-0.471,0.974-0.036,1.423l1.951,2.126c0.434,0.447,1.336,0.29,1.785-0.143l8.248-7.927
		c0.438-0.638,0.091-1.345-0.342-1.794l-1.666-1.639c-0.434-0.447-1.136-0.515-1.585-0.082l-1.701,1.601l-0.142-6.447
		C85.41,98.174,84.812,97.291,83.938,96.955z"/>
	<path fill="#FFFFFF" d="M98.802,51.425c0-1.896-1.194-3.09-3.09-3.09H62.4c-1.896,0-3.776,1.194-3.776,3.09v5.836h40.177V51.425z"
		/>
	<g>
		<path fill="#FFFFFF" d="M86.791,125.899v4.613h-0.452c-0.269-1.065-0.566-1.829-0.893-2.294c-0.327-0.466-0.775-0.837-1.345-1.112
			c-0.319-0.15-0.876-0.228-1.672-0.228H81.16v13.147c0,0.871,0.048,1.416,0.145,1.634c0.096,0.217,0.285,0.408,0.565,0.571
			c0.281,0.164,0.664,0.246,1.15,0.246h0.565v0.465h-8.923v-0.465h0.565c0.494,0,0.892-0.089,1.194-0.266
			c0.218-0.116,0.39-0.317,0.516-0.602c0.092-0.202,0.138-0.73,0.138-1.584v-13.147h-1.232c-1.148,0-1.981,0.245-2.5,0.73
			c-0.729,0.678-1.19,1.646-1.383,2.903h-0.478v-4.613H86.791z"/>
	</g>
	<g>
		<path fill="#FFFFFF" d="M74.052,65.004c-1.008-1.157-2.775-1.266-3.932-0.258c-1.156,1.007-1.29,2.772-0.282,3.931l1.112,1.276
			l4.214-3.671L74.052,65.004z"/>
		<g>
			<path fill="#FFFFFF" d="M86.095,85.21L86.095,85.21c-0.854,0-1.709-0.421-2.348-1.152L73.201,71.951l4.214-3.671l10.547,12.107
				c1.165,1.335,1.123,3.076-0.098,4.14C87.351,84.974,86.739,85.21,86.095,85.21z M73.989,72.006l10.18,11.685
				c0.532,0.61,1.233,0.96,1.926,0.96h0c0.507,0,0.991-0.189,1.4-0.545c0.993-0.866,1.011-2.243,0.045-3.352l-10.18-11.686
				L73.989,72.006z"/>
		</g>
		<path fill="#FFFFFF" d="M70.824,69.376l-0.476,0.414c-0.25,0.218-0.451,0.804-0.018,1.319l2.122,2.434
			c0.217,0.249,0.748,0.456,1.2,0.04l0.475-0.414l3.818-3.326l0.829-0.722c0.506-0.415,0.217-0.836-0.001-1.085l-2.36-2.708
			c-0.217-0.25-0.645-0.259-0.894-0.041l-0.878,0.764L70.824,69.376z"/>
		<path fill="#FFFFFF" d="M85.941,85.087c0.725,0.831,1.938,1.133,2.654,0.508c0.717-0.624,0.68-2.039-0.045-2.87
			c0,0-0.175,1.218-0.873,1.686C86.786,85.01,85.941,85.087,85.941,85.087z"/>
	</g>
</g>
<path fill="#F9D7AF" d="M60.735,188.56l-13.784-15.254c0,0,10.986-32.045,15.106-43.489c4.12-11.443,8.24-16.079,12.017-19.854
	c3.776-3.777,5.321-15.107,1.888-17.854c0,0,7.79-16.057,5.042-18.288c-2.747-2.232-12.08,14.511-12.08,14.511
	s-8.877-3.26-13.512,1.889c-4.635,5.15-4.169,8.411-4.169,13.389c0,4.978,0,6.009-0.687,7.383
	c-0.687,1.373-21.974,35.877-28.84,47.721c-6.866,11.845-11.615,18.025-7.267,25.35c4.349,7.323,25.343,27.107,25.343,27.107
	S46.092,194.762,60.735,188.56z"/>
<path fill="#F47457" d="M218.27,273.213c0-3.034-2.459-5.494-5.493-5.494h-106.43c-3.035,0-5.494,2.46-5.494,5.494l-3.344,13.045
	h124.107L218.27,273.213z"/>
<path fill="#7E90E1" d="M225.668,146.568c0,1.896-1.537,3.433-3.434,3.433H115.102c-1.896,0-3.434-1.537-3.434-3.433V52.433
	c0-1.896,1.537-3.433,3.434-3.433h107.133c1.896,0,3.434,1.537,3.434,3.433V146.568z"/>
<circle fill="#FFFFFF" cx="156.78" cy="77.236" r="15.027"/>
<path fill="#FFFFFF" d="M226.627,143.893c-0.081-5.092-0.117-19.34-0.117-19.34v-15.933l-27.908-22.373
	c-1.342-1.339-3.516-1.339-4.855,0l-34.34,31.729l-18.483-15.249c-1.341-1.339-3.515-1.339-4.855,0l-24.228,19.989
	c0,0,0,17.49,0,18.772c0,9.328,1.842,7.733,5.836,8.125c3.995,0.394,96.02-0.218,102.883-0.004
	C226.224,149.788,226.68,147.222,226.627,143.893z"/>
<g>
	<path fill="#F9D7AF" d="M253.128,179.293c0,0,8.911-9.925,8.897-11.643c-0.012-1.717-28.951-40.869-39.035-53.47
		c-5.066-6.331-22.398-10.367-26.297-14.645c-0.726-0.797-0.985-1.602-0.613-2.431c0.932-2.082,5.814-1.312,10.651-0.486
		c4.505,0.77,8.971,1.588,10.175,0.199c1.976-2.28,5.281-9.258-4.758-8.534c-4.941,0.356-15.219,5.732-15.243,2.641
		c-0.028-3.785,10.832-8.609,15.179-11.109c5.242-3.017,7.099-1.823,12.763,0.246c6.14,2.243,6.855,2.351,6.259,10.252
		c-0.288,3.801,1.965,10.114,7.15,14.708c5.184,4.596,38.943,33.921,46.792,42.788c7.849,8.866,19.57,14.958,13.019,26.223
		s-21.956,28.707-21.956,28.707L253.128,179.293z"/>
	<g>
		<path fill="#333333" d="M196.776,99.524c-0.468,0.103-9.63,0.511-9.782-0.404c-0.15-0.9,7.861-6.188,7.861-6.188l39.342-10.901
			c1.82-0.531,3.727,0.517,4.256,2.336l0,0c0.529,1.821-0.516,3.727-2.336,4.256L196.776,99.524z"/>
		<path d="M188.181,97.754c0,0,1.042,0.645,0.521,1.846c0,0-1.602-0.08-1.708-0.48C186.904,98.782,188.181,97.754,188.181,97.754z"
			/>
		<path d="M194.365,93.126c0,0,0.439,0.183,0.956,0.663c0.266,0.233,0.536,0.547,0.792,0.914c0.114,0.189,0.248,0.381,0.345,0.597
			c0.098,0.215,0.201,0.432,0.27,0.663c0.079,0.229,0.128,0.465,0.167,0.699c0.057,0.23,0.043,0.469,0.057,0.693
			c0.02,0.225-0.029,0.442-0.048,0.646c-0.015,0.205-0.071,0.389-0.123,0.56c-0.052,0.17-0.087,0.326-0.153,0.456
			c-0.063,0.128-0.119,0.239-0.164,0.332c-0.095,0.181-0.154,0.279-0.154,0.279s0.009-0.116,0.023-0.319
			c0.012-0.099,0.023-0.219,0.041-0.354c0.02-0.134,0.005-0.291,0.02-0.456c0.005-0.166,0.016-0.341,0-0.529
			c-0.018-0.185-0.009-0.381-0.046-0.578c-0.056-0.397-0.124-0.818-0.272-1.217c-0.114-0.41-0.305-0.797-0.479-1.163
			c-0.193-0.356-0.386-0.688-0.571-0.965C194.658,93.49,194.365,93.126,194.365,93.126z"/>
	</g>
	<path fill="#F9D7AF" d="M196.693,99.537c-0.726-0.797-0.985-1.602-0.613-2.431c0.932-2.082,5.814-1.312,10.651-0.486l-2.503,3.455
		L196.693,99.537z"/>
</g>
<path fill="#4BD0D0" d="M188.646,200.821c0,0,21.041,1.594,27.222,5.75l32.615-29.146c0,0,25.749,9.539,27.809,29.146
	c0,0-39.294,36.639-48.752,42.951c-13.732,9.168-36.73,17.854-65.227,17.854c-28.496,0-42.233-2.162-62.489-9.613
	c-20.256-7.449-35.706-13.274-61.111-43.944c0,0,8.24-23.347,25.406-26.094l26.436,25.063c0,0,8.237-6.989,25.232-8.816
	L188.646,200.821z"/>
<path fill="#333333" d="M152.067,153.393c5.722,1.144,6.579,7.093,9.326,8.01c2.746,0.915,9.155-0.915,12.817,2.976
	s2.747,9.155,6.638,13.504c3.891,4.35,6.18,7.096,5.951,15.106c-0.229,8.01,6.268,14.334,10.758,18.998
	c16.599,17.236,11.629,30.697,2.746,33.188c-14.743,4.133-21.397,12.576-29.068,14.648c-12.739,3.442-10.696-2.856-28.61-6.638
	c-9.058-1.912-28.153,4.576-37.537-2.061c-9.384-6.638-8.697-16.021-5.951-21.974c2.747-5.95,12.119-16.519,15.564-22.429
	c3.205-5.495,0.916-16.481,2.976-23.575c2.06-7.097,8.698-12.591,10.529-16.252C132.096,159.114,142.168,151.414,152.067,153.393z"
	/>
</svg>
