<?xml version="1.0" encoding="utf-8"?>
<!-- Generator: Adobe Illustrator 16.0.0, SVG Export Plug-In . SVG Version: 6.00 Build 0)  -->
<!DOCTYPE svg PUBLIC "-//W3C//DTD SVG 1.1//EN" "http://www.w3.org/Graphics/SVG/1.1/DTD/svg11.dtd">
<svg version="1.1" id="Layer_1" xmlns="http://www.w3.org/2000/svg" xmlns:xlink="http://www.w3.org/1999/xlink" x="0px" y="0px"
	 width="582px" height="240px" viewBox="0 0 582 240" enable-background="new 0 0 582 240" xml:space="preserve">
<g>
	<g>
		<path fill="#3974B5" d="M324.793,224.665c0,3.739-2.75,7.335-6.152,7.335h-51.317c-3.396,0-6.148-3.596-6.148-7.335l6.989-34.853
			c0-4.172,2.146-7.813,4.797-7.813h40.047c2.65,0,4.797,3.641,4.797,7.813L324.793,224.665z"/>
		<path fill="#2D69A5" d="M332,231.953c0,3.359-1.076,8.047-4.277,8.047h-70.545c-3.2,0-6.178-4.688-6.178-8.047V231.2
			c0-3.358,2.978-5.2,6.178-5.2h70.545c3.201,0,4.277,1.842,4.277,5.2V231.953z"/>
		<path fill="#2D69A5" d="M425,183.725c0,3.736-0.83,7.275-4.559,7.275H155.687c-3.732,0-7.687-3.539-7.687-7.275V10.984
			C148,7.25,151.954,5,155.687,5h264.755C424.17,5,425,7.25,425,10.984V183.725z"/>
		<path fill="#3974B5" d="M425,159.672c0,3.736,1.198,6.796-2.878,6.796l-269.536-0.032c-5.681,0.398-4.586-3.027-4.586-6.764
			V12.535C148,8.8,150.46,5,154.194,5h265.647C423.58,5,425,8.8,425,12.535V159.672z"/>
		<path fill="#364F6B" d="M412,145.396c0,3.647-2.956,6.604-6.604,6.604H164.604c-3.647,0-6.604-2.957-6.604-6.604V22.604
			c0-3.647,2.957-6.604,6.604-6.604h240.793c3.647,0,6.604,2.957,6.604,6.604V145.396z"/>
		<circle fill="#7AD3FF" cx="292.983" cy="178.299" r="5.426"/>
	</g>
	<g>
		<polygon fill="#52C0A7" points="350.498,233.033 354.775,145.676 374.326,145.676 376.768,145.676 385.014,145.676 
			383.793,233.033 376.768,233.033 372.174,161.645 357.887,231.813 		"/>
		<path fill-rule="evenodd" clip-rule="evenodd" fill="#F9D7AF" d="M350.498,113.298c0,0-5.498,7.942-6.107,7.942
			c-0.613,0-9.572-12.218-9.572-13.44c0-1.222-4.48-6.74-4.48-6.74v4.092c-1.018,0-7.488,1.338-7.488,1.338s5.373,1.024,8.102,4.659
			c1.223,1.631,10.18,18.644,14.049,18.236c2.65-0.28,7.764-6.42,10.691-9.367c1.348-1.358,2.412-1.183,2.412-1.183L350.498,113.298
			z"/>
		<path fill-rule="evenodd" clip-rule="evenodd" fill="#F9D7AF" d="M359.666,105.217c0,0-1.836-7.577-4.891-9.064
			c0,0,1.221,4.441,0,4.533c-1.221,0.09-7.791,1.312-7.791,1.312s7.896,2.825,8.531,5.841L359.666,105.217z"/>
		<g>
			<path fill="#7E90E1" d="M298.191,105.72c0.582,3.18,3.42,5.324,6.628,4.738l60.399-11.049c3.207-0.586,5.57-3.682,4.988-6.862
				l-11.068-60.5c-0.58-3.181-3.885-5.239-7.094-4.653l-60.398,11.048c-3.208,0.587-5.104,3.598-4.522,6.777L298.191,105.72z"/>
			<path fill="#FFFFFF" d="M304.819,110.458l60.399-11.049c3.551-0.628,5.637-3.313,4.988-6.862l-1.908-10.429l-19.822-14.284
				c-0.34-0.25-0.893-0.175-1.158,0.155c-4.584,5.695-16.281,20.456-15.477,19.354c-0.654,0.897-2.838-0.755-2.213-1.589
				c1.832-2.437,4.883-6.612,6.486-8.655c0.262-0.335,0.203-0.815-0.135-1.076l-24.928-19.476c-0.336-0.26-0.805-0.191-1.051,0.155
				l-16.523,21.522c-0.244,0.347-0.383,0.966-0.308,1.383l4.397,24.986C298.199,108.146,300.829,111.188,304.819,110.458z"/>
			<path fill="#FFFFFF" d="M327.561,52.02c0.887,5.011,5.67,8.353,10.68,7.464c5.012-0.887,8.354-5.671,7.469-10.682
				c-0.891-5.01-5.672-8.351-10.684-7.463S326.672,47.007,327.561,52.02z"/>
		</g>
		<path fill="#F9D7AF" d="M360.578,82.753c0,0-5.193,8.552,0,15.579h4.889l-0.307,5.193c0,0,0-0.611,4.58-0.001
			c4.586,0.611,4.586,0.611,4.586,0.611l-3.973-13.745C370.354,90.39,369.74,83.975,360.578,82.753z"/>
		<path fill="#333333" d="M366.297,76.645c-4.141,0.53-6.975-3.666-8.025-1.527c-1.053,2.138-0.029,6.327,4.014,7.944
			c4.041,1.616,9.734,13.091,9.734,13.091s10.553-5.457,4.443-13.399C376.463,82.753,374.654,75.574,366.297,76.645z"/>
		<path fill="#F9CA82" d="M353.326,148.167c0,0,7.527,2.594,16.395,2.594c4.713,0,17.945,0,17.945,0s-0.986-45.065-13.508-47.203
			c-5.766-0.984-8.063-0.745-12.023-0.104c-4.154,0.672-9.689,5.842-12.656,9.798l8.063,5.313l-1.85,1.454L353.326,148.167z"/>
		<path fill="#F7F0E7" d="M357.66,231.813c0,0,2.725,6.413,0.227,6.413c-2.502,0-13.982,1.109-15.898-0.897
			c-1.033-1.081,8.51-4.296,8.51-4.296L357.66,231.813z"/>
		<path fill="#F7F0E7" d="M383.793,233.033c0,0,0,4.275-1.527,5.193s-12.967,1.18-15.969,0c-2.719-1.068,10.471-5.193,10.471-5.193
			H383.793z"/>
	</g>
	<g>
		<path fill="#FFFFFF" d="M118.934,45.025c0,0-5.351,2.021-8.229,5.298c-3.103,3.534-4.086,8.727-4.086,8.727
			s-1.495-5.4-5.203-8.657c-3.871-3.399-8.822-3.658-8.822-3.658s5.172-1.452,8.214-4.982c3.021-3.504,4.102-9.042,4.102-9.042
			s1.65,5.09,4.661,7.827C113.586,44.188,118.934,45.025,118.934,45.025z"/>
		<path fill="#FFFFFF" d="M123.764,28.001c0,0-2.25,0.85-3.46,2.228c-1.305,1.485-1.719,3.669-1.719,3.669s-0.629-2.271-2.188-3.64
			c-1.627-1.43-3.71-1.539-3.71-1.539s2.176-0.61,3.455-2.094c1.271-1.474,1.725-3.803,1.725-3.803s0.693,2.14,1.96,3.292
			C121.516,27.648,123.764,28.001,123.764,28.001z"/>
		<path fill="#FFFFFF" d="M581.68,33.53c0,0-2.248,0.849-3.461,2.227c-1.303,1.485-1.717,3.669-1.717,3.669s-0.629-2.271-2.189-3.64
			c-1.625-1.429-3.707-1.539-3.707-1.539s2.174-0.61,3.453-2.094c1.271-1.474,1.723-3.803,1.723-3.803s0.695,2.141,1.961,3.292
			C579.432,33.177,581.68,33.53,581.68,33.53z"/>
		<path fill="#FFFFFF" d="M570.605,56.952c0,0-5.354,2.02-8.229,5.297c-3.104,3.533-4.086,8.728-4.086,8.728
			s-1.496-5.402-5.203-8.658c-3.873-3.399-8.822-3.658-8.822-3.658s5.172-1.453,8.213-4.981c3.021-3.505,4.102-9.043,4.102-9.043
			s1.652,5.088,4.66,7.826C565.256,56.114,570.605,56.952,570.605,56.952z"/>
	</g>
	<g>
		<path fill="#FFFFFF" d="M19.982,72.691c0,0-19.617,2.741-19.617,4.297s19.157,7.662,19.157,7.662L19.982,72.691z"/>
		<path fill="#D275C7" d="M6.973,74.864l-0.23,5.351c0,0-6.422-2.22-6.422-2.995C0.32,76.144,6.973,74.864,6.973,74.864z"/>
		<g>
			<polygon fill="#F9D7AF" points="77.264,188.578 70.355,234.238 65.756,233.354 65.756,187.488 			"/>
			<polygon fill="#F9D7AF" points="98.757,187.488 110.628,232.324 106.173,232.74 84.615,188.896 			"/>
			<path fill="#F47457" d="M63.636,129.002c0,0-7.594,18.015-17.561,54.797c0,0,50.35,17.686,66.579,0.301
				c0,0-10.492-33.098-26.415-55.098H63.636z"/>
			<path fill="#FFFFFF" d="M65.756,233.354c0,0-5.849,2.203-5.852,3.828c-0.003,1.189,6.581,1.294,10.746,0.721
				c2.904-0.402-0.295-3.664-0.295-3.664L65.756,233.354z"/>
			<path fill="#FFFFFF" d="M106.173,232.74c0,0-1.898,3.059-0.475,3.438c0.889,0.239,6.17,0.417,9.304-0.295
				c1.388-0.315-4.374-3.632-4.374-3.632L106.173,232.74z"/>
			<path fill="#F9D687" d="M78.28,95.962c0,0-1.248-0.263-5.686,0.442c-2.611,0.416-11.308,7.159-12.875,5.014
				c-0.958-1.313-2.017-15.397-2.017-15.397l-5.458-0.376c0,0-1.607,17.595,2.83,22.399c2.851,3.087,10.518,2.005,10.518,2.005
				s-6.304,18.595-2.39,18.827c3.912,0.23,16.989-0.021,23.036,0.113c4.094,0.09,2.059-8.79,2.009-11.375
				c-0.104-5.458,4.991-18.244-6.142-20.096L78.28,95.962z"/>
			<path fill="#D275C7" d="M108.17,82.989c-0.171,3.145-2.793,5.567-5.912,5.533l0.636-11.678
				C105.998,77.15,108.342,79.843,108.17,82.989z"/>
			<polygon fill="#D275C7" points="19.522,84.65 101.958,88.697 102.659,77.165 19.982,72.691 			"/>
			<path fill="#F9D7AF" d="M79.046,78.667c-1.185,0.372-9.004,7.416-1.706,14.831l-0.554,2.372l-1.913,0.222
				c0,0,1.381,6.713,2.823,7.107c1.443,0.394,5.591-3.988,5.843-5.355l-1.433-0.324l0.046-2.934c0,0,6.295-5.01,4.63-11.642
				C85.114,76.311,80.913,78.081,79.046,78.667z"/>
			<rect x="97.5" y="76.5" fill="none" stroke="#F1924F" stroke-miterlimit="10" width="4" height="14"/>
			<path fill="#333333" d="M84.207,92.464c0,0,4.768-3.127,5.361-8.605c0.885-8.19-6.513-13.146-12.77-9.029
				c-5.847,3.846-2.364,12.719-2.364,12.719c-0.755-3.509,2.786-7.018,4.929-8.285c1.98-1.17,6.633-2.745,7.557,4.354
				C87.54,88.379,84.207,92.464,84.207,92.464z"/>
			<path fill="#333333" d="M85.767,74.614c0,0,8.802-8.689,17.81,2.683c9.009,11.373,4.865,17.941,11.456,20.456
				c0,0-14.339,7.282-19.441-5.289C90.488,79.893,88.3,77.556,88.3,77.556L85.767,74.614z"/>
			<path fill="#333333" d="M84.061,78.503c0,0-3.904,4.211-9.058,4.564C75.003,83.068,78.58,73.361,84.061,78.503z"/>
			<path fill="#333333" d="M84.061,78.503c0,0,1.76,6.316,3.398,6.956C87.459,85.459,88.785,77.957,84.061,78.503z"/>
			<path fill="#F9D7AF" d="M113.711,76.497c0,0,1.125-1.631,3.448-2.494c2.324-0.864,2.515-0.74,3.826-2.658
				c1.313-1.917,2.39-1.995,2.381-0.772c-0.009,1.222-1.615,4.754-3.225,6.118c-1.523,1.292-3.331,2.215-3.331,2.215L113.711,76.497
				z"/>
			<path fill="#F9D687" d="M86.476,99.253c0,0,10.314-3.64,10.799-3.977c6.435-4.479,15.484-20.111,15.484-20.111l6.113,4.87
				c0,0-9.145,14.25-13.055,20.048c-3.095,4.587-9.705,6.889-17.897,10.631"/>
		</g>
	</g>
	<g>
		<path fill-rule="evenodd" clip-rule="evenodd" fill="#D275C7" d="M528,67.494c0,2.783-1.799,5.506-4.58,5.506h-67.324
			c-2.781,0-5.096-2.723-5.096-5.506V5.333C451,2.551,453.314,0,456.096,0h67.324c2.781,0,4.58,2.551,4.58,5.333V67.494z"/>
		<g>
			<polygon fill="#F9D7AF" points="515.176,188.064 516.988,187.61 518.564,194.355 516.869,194.806 			"/>
			<path fill="#F7F0E7" d="M516.988,187.61c0,0,5.061-5.62,7.869-4.047c2.811,1.574,13.154,8.769,11.805,10.343
				c-1.348,1.572-10.686-1.835-11.354-1.687c-1.508,0.337-6.744,2.136-6.744,2.136L516.988,187.61z"/>
			<polygon fill="#F9D7AF" points="514.359,203.285 520.283,204.076 519.738,210.816 514.35,211.074 			"/>
			<path fill="#F7F0E7" d="M520.283,204.076c0,0,8.758-3.48,10.963,0.072c2.207,3.554,8.023,13.363,5.246,14.275
				c-2.775,0.914-7.955-5.143-9.781-6.168c-3.494-1.963-6.973-1.439-6.973-1.439L520.283,204.076z"/>
			<path fill="#1B8C89" d="M476.746,146.566c0,0-8.994,32.951-11.02,40.596c-2.021,7.644-2.922,17.934,5.621,17.848
				c5.293-0.053,45.641-9.08,45.641-9.08l-2.021-8.768c0,0-9.303,0.448-18.66,2.023c-6.244,1.051-16.592,2.419-17.268-5.9
				c-0.676-8.318,6.926-36.58,6.926-36.58L476.746,146.566z"/>
			<path fill="#1F9C9C" d="M485.496,146.724c-7.545,32.683-7.715,32.487-9.707,43.248c-1.123,6.07-2.892,13.706,8.028,16.356
				c11.129,2.701,31.183,6.018,31.183,6.018v-10.34c0,0-23.552-4.769-26.175-5.217c-2.623-0.449-1.73-3.782,2.092-12.999
				c3.822-9.22,11.911-18.05,7.862-37.58L485.496,146.724z"/>
			<path fill="#F9D7AF" d="M522.902,76.319c0,0-0.801-1.793,0.797-4.345c1.594-2.554,1.773-2.358,2.289-5.636
				c0.469-2.989,3.402,3.666,1.809,5.899c-1.596,2.234-1.701,4.082-1.701,4.082H522.902z"/>
			<path fill="#333333" d="M504.354,92.293c-6.744-9.592-16.559-8.136-21.014-2.56c-4.795,6.006-1.127,12.625-1.127,12.625
				l10.953,5.263c0,0,0.861,18.304,10.938,24.63c21.381,13.424,32.68-14.683,32.68-14.683
				C526.289,116.67,511.098,101.886,504.354,92.293z M500.299,95.301c-0.002-0.02-0.004-0.039-0.004-0.058
				C500.297,95.261,500.299,95.294,500.299,95.301z"/>
			<path fill="#F9D7AF" d="M459.576,76.319c0,0,0.801-1.793-0.797-4.345c-1.596-2.554-1.75-2.05-2.289-5.636
				c-0.449-2.993-3.404,3.666-1.809,5.899c1.596,2.234,1.701,4.082,1.701,4.082H459.576z"/>
			<path fill="#F9D7AF" d="M483.057,94.833c0,0-1.135,1.753-0.803,6.331c0.373,5.167,4.045,9.555,7.307,9.105
				c3.258-0.45,6.857-4.383,6.744-10.792c0,0-9.188-3.203-9.076-8.599C487.229,90.877,485.979,94.127,483.057,94.833z"/>
			<path fill="#4BD0D0" d="M494.445,114.722c0,0,18.01-8.447,21.457-19.726C519.35,83.717,520.664,75,520.664,75h7.342
				c0,0-0.598,23.331-8.842,33.373c-8.244,10.043-15.441,13.613-17.838,18.26c-2.398,4.646,0.451,19.547,0.451,19.547
				s-24.701,1.473-26.051,0.408c-3.105-2.455,2.967-22.658,1.768-27.453c0,0-15.139-6.704-19.184-18.846
				C454.262,88.148,453.813,75,453.813,75h6.746c0,0,2.598,30.192,25.16,37.684c0,0-1.838,7.25,2.908,6.419
				C492.059,118.501,493.922,116.97,494.445,114.722z"/>
			<path fill="#F9D7AF" d="M486.715,108.754c0,0-3.658,10.06,1.271,11.408c3.59,0.981,6.52-5.112,6.52-5.112l-1.34-7.427
				L486.715,108.754z"/>
		</g>
		<g>
			<path fill-rule="evenodd" clip-rule="evenodd" fill="#FFFFFF" d="M489.611,31.295c0,2.663,0.029,5.326-0.027,7.987
				c-0.01,0.426-0.293,0.962-0.625,1.246c-1.066,0.915-1.279,2.196-0.418,3.184c0.85,0.977,2.336,0.986,3.197,0.019
				c0.871-0.977,0.67-2.276-0.389-3.19c-0.332-0.286-0.637-0.815-0.639-1.237c-0.045-5.36-0.037-10.721-0.008-16.08
				c0.002-0.344,0.293-0.685,0.447-1.027c0.254,0.249,0.596,0.452,0.748,0.751c3.199,6.352,6.369,12.716,9.566,19.069
				c0.287,0.573,0.326,1.045,0.018,1.64c-1.1,2.112-2.154,4.25-3.193,6.392c-0.258,0.531-0.564,0.75-1.18,0.747
				c-4.635-0.028-9.268-0.026-13.902-0.001c-0.6,0.002-0.924-0.179-1.191-0.727c-1.047-2.177-2.174-4.317-3.197-6.505
				c-0.186-0.393-0.193-1.028-0.002-1.413c3.174-6.441,6.387-12.862,9.617-19.275c0.139-0.277,0.518-0.434,0.787-0.646
				c0.129,0.325,0.369,0.648,0.375,0.975C489.623,25.9,489.611,28.597,489.611,31.295z"/>
			<path fill-rule="evenodd" clip-rule="evenodd" fill="#FFFFFF" d="M496.746,18.411c6.664,3.231,10.344,8.439,10.936,15.897
				c0.295,0.021,0.627-0.036,0.879,0.084c0.26,0.123,0.607,0.404,0.625,0.638c0.07,0.963,0.07,1.937,0.002,2.901
				c-0.016,0.223-0.391,0.581-0.617,0.598c-0.928,0.069-1.865,0.02-2.801,0.034c-0.594,0.01-0.787-0.294-0.768-0.839
				c0.02-0.553,0.004-1.107,0.004-1.66c0-1.593,0-1.593,1.473-1.78c0.281-6.182-4.898-14.5-14.029-15.655
				c-0.439,1.404-0.439,1.404-2.01,1.404c-0.277,0-0.557-0.032-0.828,0.006c-1.059,0.145-1.791-0.095-1.635-1.371
				c-7.656,0.681-14.223,7.758-14.209,15.564c1.521,0.317,1.521,0.317,1.521,1.968c0,2.361,0,2.372-2.357,2.358
				c-2.008-0.012-1.855,0.305-1.863-1.907c-0.002-0.277-0.002-0.554,0-0.831c0.004-1.403,0.004-1.403,1.523-1.505
				c0.574-7.374,4.236-12.672,10.977-15.902c-2.645,0-5.289-0.012-7.936,0.023c-0.217,0.004-0.477,0.309-0.635,0.533
				c-0.623,0.874-1.504,1.252-2.412,0.964c-0.969-0.307-1.49-0.981-1.512-1.995c-0.016-0.974,0.486-1.651,1.369-2.001
				c0.938-0.371,1.848,0.006,2.537,0.9c0.18,0.233,0.496,0.511,0.752,0.513c4.012,0.024,8.021,0.007,12.033-0.004
				c0.061-0.001,0.123-0.057,0.182-0.087c0.184-1.426,0.184-1.426,1.697-1.427c0.381,0,0.76,0,1.143,0
				c1.412,0.002,1.412,0.002,1.537,1.47c0.273,0.022,0.566,0.069,0.859,0.069c3.666,0.004,7.33-0.002,10.996,0.01
				c0.547,0.002,0.922-0.072,1.248-0.631c0.514-0.877,1.561-1.166,2.453-0.798c0.879,0.365,1.367,1.048,1.338,2.021
				c-0.033,1.019-0.57,1.7-1.543,1.968c-0.979,0.271-1.73-0.12-2.348-0.906c-0.217-0.276-0.598-0.591-0.908-0.597
				C501.863,18.391,499.305,18.411,496.746,18.411z"/>
			<path fill-rule="evenodd" clip-rule="evenodd" fill="#FFFFFF" d="M490.141,51.89c2.797,0,5.596,0.022,8.393-0.014
				c0.832-0.012,1.217,0.223,1.148,1.108c-0.059,0.721-0.039,1.452-0.006,2.175c0.031,0.715-0.264,0.98-0.977,0.971
				c-2.211-0.027-4.422-0.009-6.631-0.009c-3.42,0-6.84-0.024-10.258,0.017c-0.896,0.011-1.205-0.263-1.203-1.179
				c0.008-3.068-0.023-3.068,3.006-3.068C485.789,51.89,487.965,51.89,490.141,51.89z"/>
			<path fill-rule="evenodd" clip-rule="evenodd" fill="#FFFFFF" d="M498.098,57.243c0,1.186,0.049,2.319-0.035,3.442
				c-0.02,0.252-0.498,0.67-0.768,0.671c-4.766,0.042-9.531,0.042-14.297,0c-0.27-0.001-0.746-0.419-0.766-0.671
				c-0.084-1.124-0.037-2.257-0.037-3.442C487.535,57.243,492.762,57.243,498.098,57.243z"/>
		</g>
	</g>
	<g>
		<path fill="#7E90E1" d="M252,128.803c0,1.766-1.432,3.197-3.198,3.197h-55.604c-1.766,0-3.198-1.432-3.198-3.197V47.197
			c0-1.766,1.432-3.197,3.198-3.197h55.604c1.766,0,3.198,1.432,3.198,3.197V128.803z"/>
		<g>
			<g>
				<polygon fill="#FFFFFF" points="201.363,64.875 199.944,78.117 205.166,74 211.433,74 				"/>
			</g>
			<g>
				<path fill="#FFFFFF" d="M229,79.104V64.275l11.839,9.477l-7.126,0.411L229,79.104z M230,66.573v9.775l3.166-3.261l4.657-0.27
					L230,66.573z"/>
			</g>
			<g>
				<path fill="#FFFFFF" d="M234.932,101.001c-3.449,0-6.254-2.805-6.254-6.253s2.805-6.252,6.254-6.252
					c3.446,0,6.251,2.805,6.251,6.252S238.378,101.001,234.932,101.001z M234.932,89.538c-2.874,0-5.212,2.337-5.212,5.21
					s2.338,5.211,5.212,5.211c2.872,0,5.21-2.338,5.21-5.211S237.804,89.538,234.932,89.538z"/>
			</g>
			<g>
				
					<rect x="205.137" y="87.878" transform="matrix(0.7071 0.7071 -0.7071 0.7071 126.9817 -117.8008)" fill="#FFFFFF" width="1.103" height="13.004"/>
			</g>
			<g>
				<g>
					<path fill="#FFFFFF" d="M210.033,112.254l0.116,2.493h-0.296c-0.06-0.439-0.137-0.752-0.237-0.94
						c-0.16-0.304-0.376-0.526-0.645-0.67c-0.271-0.144-0.624-0.216-1.063-0.216h-1.499v8.123c0,0.652,0.07,1.061,0.213,1.223
						c0.197,0.219,0.504,0.328,0.917,0.328h0.369v0.291H203.4v-0.291h0.376c0.45,0,0.768-0.134,0.957-0.406
						c0.114-0.168,0.172-0.549,0.172-1.145v-8.123h-1.278c-0.497,0-0.849,0.037-1.057,0.109c-0.273,0.099-0.506,0.29-0.699,0.572
						c-0.193,0.283-0.308,0.664-0.346,1.145h-0.296l0.125-2.493H210.033z"/>
				</g>
			</g>
			<g>
				<path fill="#FFFFFF" d="M230,122.907v-3.181l7.362-7.844l2.774,2.617l-7.16,7.828L230,122.907z M231,120.168v1.408l1.336-0.264
					l6.215-6.752l-1.178-1.13L231,120.168z"/>
			</g>
		</g>
		<path fill="#FFFFFF" d="M252,55h-62V41.979c0-1.766,1.023-3.979,2.789-3.979h55.647c1.767,0,3.563,2.213,3.563,3.979V55z"/>
	</g>
</g>
</svg>
