<?xml version="1.0" encoding="utf-8"?>
<!-- Generator: Adobe Illustrator 16.0.0, SVG Export Plug-In . SVG Version: 6.00 Build 0)  -->
<!DOCTYPE svg PUBLIC "-//W3C//DTD SVG 1.1//EN" "http://www.w3.org/Graphics/SVG/1.1/DTD/svg11.dtd">
<svg version="1.1" id="Layer_1" xmlns="http://www.w3.org/2000/svg" xmlns:xlink="http://www.w3.org/1999/xlink" x="0px" y="0px"
	 width="50px" height="50px" viewBox="0 0 50 50" enable-background="new 0 0 50 50" xml:space="preserve">
<g>
	<g>
		<g>
			<g>
				<path fill="#F69E7B" d="M12,39H8.032C3.604,39,0,35.807,0,31.378V8.03C0,3.602,3.604,0,8.032,0h23.347
					C35.809,0,40,3.602,40,8.03V13h-4V8.03c0-2.416-2.166-4.113-4.583-4.113L10,3.996C6.583,3.871,4,5.72,4,9.75v20.628
					c0,2.416,2.082,4.731,4.494,4.599C10.799,34.848,12,34.834,12,34.834V39z"/>
			</g>
			<g>
				<path fill="#F69E7B" d="M50,41.969C50,46.404,45.915,50,41.479,50H18.325C13.89,50,10,46.404,10,41.969V18.815
					C10,14.38,13.89,11,18.325,11H41.48c4.435,0,8.52,3.38,8.52,7.815V41.969z M46,19.382C46,16.962,44.038,15,41.618,15H18.382
					C15.962,15,14,16.962,14,19.382v22.236C14,44.038,15.962,46,18.382,46h23.236C44.038,46,46,44.038,46,41.618V19.382z"/>
			</g>
		</g>
		<g>
			<path fill="#F69E7B" d="M38.93,31.63h-6.986v6.871h-3.226V31.63H21.73v-3.032h6.987v-6.91h3.225v6.91h6.988V31.63L38.93,31.63z"
				/>
		</g>
	</g>
</g>
</svg>
