<?xml version="1.0" encoding="utf-8"?>
<!-- Generator: Adobe Illustrator 16.0.0, SVG Export Plug-In . SVG Version: 6.00 Build 0)  -->
<!DOCTYPE svg PUBLIC "-//W3C//DTD SVG 1.1//EN" "http://www.w3.org/Graphics/SVG/1.1/DTD/svg11.dtd">
<svg version="1.1" id="Layer_1" xmlns="http://www.w3.org/2000/svg" xmlns:xlink="http://www.w3.org/1999/xlink" x="0px" y="0px"
	 width="50px" height="50px" viewBox="0 0 50 50" enable-background="new 0 0 50 50" xml:space="preserve">
<g>
	<path fill="#F67280" d="M24.896,47.195c-0.731,0-1.396-0.184-1.918-0.535C15.188,41.467,9.545,36.367,5.222,30.615
		c-2.165-2.885-5.06-7.371-5.216-13.021C-0.174,11.192,3.837,5.536,9.988,3.52c1.454-0.475,2.957-0.716,4.47-0.716
		c4.001,0,7.837,1.717,10.58,4.67c2.808-2.987,6.53-4.65,10.571-4.65c1.71,0,3.403,0.296,5.034,0.883
		c7.511,2.699,11.216,11.095,8.434,19.114c-1.798,5.197-5.093,9.832-10.368,14.583c-2.846,2.561-5.92,4.895-8.892,7.15
		c-0.823,0.623-1.646,1.248-2.464,1.877C26.443,47.123,25.333,47.195,24.896,47.195z M14.458,7.444c-1.022,0-2.04,0.163-3.026,0.486
		c-4.182,1.37-6.91,5.202-6.788,9.535c0.092,3.339,1.416,6.536,4.289,10.363c3.891,5.178,8.999,9.824,16.039,14.582
		c0.674-0.516,1.357-1.035,2.04-1.553c2.896-2.197,5.891-4.471,8.592-6.902c4.669-4.203,7.556-8.225,9.089-12.653
		c1.971-5.682-0.445-11.369-5.619-13.229c-1.126-0.404-2.291-0.609-3.465-0.609c-3.495,0-6.552,1.782-8.604,5.02l-1.812,2.858
		l-2.078-2.811c-0.271-0.365-0.466-0.629-0.659-0.901C20.55,8.972,17.633,7.444,14.458,7.444z"/>
	<path fill="#F67280" d="M25,10.721c0,0-12.641-10.708-19.485-1.127S7.125,34.958,25,44.539c0,0,23.431-15.379,22.223-25.926
		C46.015,8.065,36.111,0.414,25,10.721z"/>
</g>
</svg>
