<?xml version="1.0" encoding="utf-8"?>
<!-- Generator: Adobe Illustrator 16.0.0, SVG Export Plug-In . SVG Version: 6.00 Build 0)  -->
<!DOCTYPE svg PUBLIC "-//W3C//DTD SVG 1.1//EN" "http://www.w3.org/Graphics/SVG/1.1/DTD/svg11.dtd">
<svg version="1.1" id="Layer_1" xmlns="http://www.w3.org/2000/svg" xmlns:xlink="http://www.w3.org/1999/xlink" x="0px" y="0px"
	 width="50px" height="50px" viewBox="0 0 50 50" enable-background="new 0 0 50 50" xml:space="preserve">
<g>
	<path fill="#FFFFFF" d="M24.897,46.877c-0.72,0-1.375-0.182-1.89-0.526c-7.679-5.12-13.24-10.146-17.501-15.815
		c-2.133-2.844-4.987-7.266-5.141-12.832C0.188,11.392,4.142,5.817,10.203,3.828c1.434-0.465,2.916-0.705,4.406-0.705
		c3.944,0,7.725,1.694,10.427,4.604c2.769-2.944,6.437-4.584,10.42-4.584c1.685,0,3.354,0.292,4.962,0.87
		c7.403,2.661,11.054,10.937,8.313,18.84c-1.774,5.121-5.021,9.69-10.221,14.372c-2.804,2.527-5.835,4.825-8.764,7.047
		c-0.813,0.618-1.623,1.233-2.43,1.853C26.422,46.805,25.328,46.877,24.897,46.877z M14.609,7.697c-1.008,0-2.01,0.161-2.982,0.479
		c-4.121,1.351-6.811,5.127-6.69,9.398c0.091,3.292,1.395,6.441,4.227,10.213c3.835,5.106,8.869,9.684,15.808,14.374
		c0.665-0.507,1.339-1.021,2.011-1.53c2.854-2.167,5.807-4.406,8.469-6.803c4.602-4.145,7.448-8.107,8.957-12.472
		c1.943-5.601-0.438-11.205-5.537-13.04c-1.109-0.397-2.259-0.599-3.415-0.599c-3.445,0-6.459,1.756-8.482,4.948l-1.785,2.817
		l-2.048-2.771c-0.268-0.359-0.46-0.62-0.65-0.889C20.613,9.205,17.739,7.697,14.609,7.697z"/>
</g>
</svg>
