<?xml version="1.0" encoding="utf-8"?>
<!-- Generator: Adobe Illustrator 16.0.0, SVG Export Plug-In . SVG Version: 6.00 Build 0)  -->
<!DOCTYPE svg PUBLIC "-//W3C//DTD SVG 1.1//EN" "http://www.w3.org/Graphics/SVG/1.1/DTD/svg11.dtd">
<svg version="1.1" id="Layer_1" xmlns="http://www.w3.org/2000/svg" xmlns:xlink="http://www.w3.org/1999/xlink" x="0px" y="0px"
	 width="50px" height="50px" viewBox="0 0 50 50" enable-background="new 0 0 50 50" xml:space="preserve">
<g>
	<g>
		<g>
			<path fill-rule="evenodd" clip-rule="evenodd" fill="#4AD295" d="M7.84,20.282c3.339,0,6.172-0.068,8.999,0.027
				c1.473,0.049,1.982-0.253,1.96-1.632c-0.097-5.729,0-11.457-0.075-17.186c-0.016-1.199,0.382-1.521,1.736-1.479
				c2.917,0.087,5.846,0.107,8.76-0.006c1.583-0.062,2.087,0.275,2.059,1.721c-0.104,5.672,0.006,11.346-0.079,17.017
				c-0.022,1.282,0.396,1.617,1.837,1.564c2.847-0.099,5.698-0.027,8.484-0.027c0.328,0.385,0.058,0.584-0.146,0.791
				c-5.113,5.23-10.23,10.459-15.339,15.692c-0.57,0.585-0.979,1.162-1.895,0.216C18.86,31.513,13.519,26.087,7.84,20.282z"/>
			<path fill-rule="evenodd" clip-rule="evenodd" fill="#4AD295" d="M25.143,41.872c7.727,0,15.456,0.021,23.185-0.022
				c1.224-0.007,1.727,0.227,1.651,1.378c-0.113,1.737-0.137,3.489,0.006,5.224c0.113,1.32-0.454,1.554-1.855,1.549
				c-12.079-0.047-24.16-0.028-36.24-0.028c-3.44,0-6.882-0.038-10.326,0.021c-1.149,0.021-1.617-0.203-1.552-1.29
				c0.107-1.795,0.124-3.601-0.003-5.393c-0.086-1.23,0.435-1.472,1.755-1.463C9.556,41.899,17.35,41.872,25.143,41.872z"/>
		</g>
	</g>
</g>
</svg>
