<?xml version="1.0" encoding="utf-8"?>
<!-- Generator: Adobe Illustrator 16.0.0, SVG Export Plug-In . SVG Version: 6.00 Build 0)  -->
<!DOCTYPE svg PUBLIC "-//W3C//DTD SVG 1.1//EN" "http://www.w3.org/Graphics/SVG/1.1/DTD/svg11.dtd">
<svg version="1.1" id="Layer_1" xmlns="http://www.w3.org/2000/svg" xmlns:xlink="http://www.w3.org/1999/xlink" x="0px" y="0px"
	 width="82px" height="82px" viewBox="0 0 82 82" enable-background="new 0 0 82 82" xml:space="preserve">
<g>
	<circle fill="#DBEFFF" cx="41" cy="41" r="40.86"/>
	<path fill="#60B6FB" d="M50.44,35.73c1.847-2.167,2.978-4.964,2.978-8.033c0-6.856-5.563-12.413-12.418-12.413
		c-6.857,0-12.412,5.556-12.412,12.413c0,3.171,1.196,6.057,3.153,8.25c-6.946,3.369-11.735,8.954-11.735,19.764
		c0,11,41.987,11,41.987,0C61.993,44.998,57.287,39.124,50.44,35.73z"/>
	<path fill="#DBEFFF" d="M42.586,42.471l1.264,4.24c0,0,1.832,0,4.092,0c2.259,0,2.607,0.721,0.781,2.041l-3.311,2.219
		c0,0,0.564,1.65,1.264,3.797c0.698,2.146-0.217,2.764-2.045,1.434l-3.31-2.432c0,0-1.481,1.066-3.31,2.395
		c-1.828,1.326-2.744,0.662-2.045-1.48l1.264-3.883c0,0-1.48-0.723-3.309-2.045s-1.478-2.045,0.78-2.045h4.091
		c0,0,0.566-1.916,1.266-4.064C40.756,40.497,41.887,40.321,42.586,42.471z"/>
</g>
</svg>
