<?xml version="1.0" encoding="utf-8"?>
<!-- Generator: Adobe Illustrator 16.0.0, SVG Export Plug-In . SVG Version: 6.00 Build 0)  -->
<!DOCTYPE svg PUBLIC "-//W3C//DTD SVG 1.1//EN" "http://www.w3.org/Graphics/SVG/1.1/DTD/svg11.dtd">
<svg version="1.1" id="Layer_1" xmlns="http://www.w3.org/2000/svg" xmlns:xlink="http://www.w3.org/1999/xlink" x="0px" y="0px"
	 width="82px" height="82px" viewBox="0 0 82 82" enable-background="new 0 0 82 82" xml:space="preserve">
<g>
	<circle fill="#DCFAF8" cx="41" cy="41" r="40.86"/>
	<g>
		<path fill="#16DBCC" d="M43.251,41.65C44.382,41.174,56.7,33.5,54.065,23.5H28.968c-2.895,12,11.321,18.309,11.321,18.309
			S26.073,46.5,28.968,59.5h25.098C56.7,48.5,44.382,42.123,43.251,41.65z"/>
		<path fill="#16DBCC" d="M56.815,19.989c0,0.804-0.652,1.454-1.455,1.454H27.528c-0.805,0-1.455-0.65-1.455-1.454v-1.551
			c0-0.803,0.65-1.454,1.455-1.454H55.36c0.803,0,1.455,0.651,1.455,1.454V19.989z"/>
		<path fill="#16DBCC" d="M56.815,62.809c0-0.803-0.65-1.455-1.455-1.455H27.528c-0.804,0-1.455,0.652-1.455,1.455v1.551
			c0,0.805,0.651,1.455,1.455,1.455H55.36c0.805,0,1.455-0.65,1.455-1.455V62.809z"/>
	</g>
</g>
</svg>
