<?xml version="1.0" encoding="utf-8"?>
<!-- Generator: Adobe Illustrator 16.0.0, SVG Export Plug-In . SVG Version: 6.00 Build 0)  -->
<!DOCTYPE svg PUBLIC "-//W3C//DTD SVG 1.1//EN" "http://www.w3.org/Graphics/SVG/1.1/DTD/svg11.dtd">
<svg version="1.1" id="Layer_1" xmlns="http://www.w3.org/2000/svg" xmlns:xlink="http://www.w3.org/1999/xlink" x="0px" y="0px"
	 width="50px" height="50px" viewBox="0 0 50 50" enable-background="new 0 0 50 50" xml:space="preserve">
<g>
	<g>
		<path fill-rule="evenodd" clip-rule="evenodd" fill="#FFFFFF" d="M49.527,10.391c-3.05,6.455-5.822,11.788-8.775,17.662
			c-0.733,1.466-2.036,2.14-3.681,2.14c-5.419-0.002-10.839,0.017-16.253-0.02c-0.691-0.006-1.053,0.188-1.328,0.808
			c-0.483,1.091-1.044,2.149-1.638,3.356c0.543,0,0.934,0,1.322,0c7.798,0,15.596-0.006,23.394,0.005
			c0.507,0.002,1.039,0.024,1.508,0.188c0.945,0.324,1.37,1.071,1.284,2.058c-0.081,0.936-0.602,1.559-1.531,1.77
			c-0.352,0.08-0.722,0.087-1.087,0.087c-8.127,0.005-16.255,0.009-24.383,0.003c-3.76-0.004-5.623-2.977-3.986-6.355
			c0.651-1.346,1.379-2.66,1.983-4.028c0.172-0.39,0.187-1.001,0-1.378C13,19.863,9.593,13.068,6.226,6.25
			C5.932,5.654,5.572,5.465,4.953,5.504C4.259,5.546,3.559,5.477,2.866,5.521C1.61,5.604,0.387,5.265,0.09,4.02
			c-0.202-0.856,0-1.759,0-2.636c2.492,0,3.956-0.177,7.473,0c1.544,0.076,1.772,1.959,2.333,3.146
			c0.368,0.779,0.8,1.025,1.659,1.023C22.516,5.52,33.481,5.333,44.442,5.531C49.914,5.629,50.706,7.9,49.527,10.391z M12.543,9.621
			c0.131,0.308,0.189,0.469,0.267,0.622c2.534,5.096,5.06,10.198,7.644,15.27c0.168,0.328,0.774,0.608,1.179,0.611
			c4.831,0.041,9.659,0.011,14.488,0.044c0.757,0.006,1.168-0.218,1.51-0.913c2.456-4.982,4.953-9.941,7.434-14.909
			c0.103-0.206,0.145-0.443,0.23-0.725C34.366,9.621,23.545,9.621,12.543,9.621z"/>
		<circle fill-rule="evenodd" clip-rule="evenodd" fill="#FFFFFF" cx="18.334" cy="44.74" r="3.954"/>
		<circle fill-rule="evenodd" clip-rule="evenodd" fill="#FFFFFF" cx="40.647" cy="44.74" r="3.956"/>
	</g>
</g>
</svg>
