<?xml version="1.0" encoding="utf-8"?>
<!-- Generator: Adobe Illustrator 16.0.0, SVG Export Plug-In . SVG Version: 6.00 Build 0)  -->
<!DOCTYPE svg PUBLIC "-//W3C//DTD SVG 1.1//EN" "http://www.w3.org/Graphics/SVG/1.1/DTD/svg11.dtd">
<svg version="1.1" id="Layer_1" xmlns="http://www.w3.org/2000/svg" xmlns:xlink="http://www.w3.org/1999/xlink" x="0px" y="0px"
	 width="32px" height="32px" viewBox="0 0 32 32" enable-background="new 0 0 32 32" xml:space="preserve">
<g>
	<g>
		<path fill-rule="evenodd" clip-rule="evenodd" fill="#60b6fb" d="M30.718,7.234c-1.831,3.872-3.494,7.072-5.267,10.597
			c-0.44,0.88-1.222,1.285-2.208,1.285c-3.252-0.001-6.504,0.01-9.752-0.013c-0.416-0.003-0.632,0.112-0.797,0.485
			c-0.29,0.653-0.626,1.289-0.983,2.013c0.326,0,0.561,0,0.794,0c4.68,0,9.357-0.003,14.036,0.004
			c0.305,0.001,0.624,0.015,0.906,0.112c0.565,0.194,0.821,0.643,0.77,1.234c-0.049,0.563-0.361,0.936-0.918,1.062
			c-0.211,0.048-0.434,0.053-0.653,0.053c-4.875,0.003-9.753,0.005-14.63,0.002c-2.256-0.003-3.374-1.786-2.392-3.813
			c0.391-0.808,0.828-1.597,1.189-2.417c0.104-0.234,0.112-0.602,0-0.827C8.8,12.918,6.756,8.841,4.735,4.751
			C4.559,4.393,4.342,4.279,3.971,4.303c-0.415,0.024-0.836-0.017-1.252,0.01c-0.753,0.05-1.487-0.154-1.665-0.901
			c-0.121-0.512,0-1.055,0-1.581c1.495,0,2.373-0.105,4.482,0c0.929,0.046,1.064,1.176,1.401,1.888
			c0.221,0.468,0.479,0.615,0.994,0.614C14.509,4.312,21.089,4.2,27.665,4.319C30.949,4.378,31.423,5.741,30.718,7.234z
			 M8.525,6.772c0.078,0.186,0.113,0.282,0.159,0.374c1.521,3.059,3.037,6.118,4.587,9.162c0.102,0.196,0.465,0.364,0.707,0.365
			c2.898,0.026,5.797,0.007,8.693,0.027c0.455,0.003,0.701-0.13,0.906-0.547c1.473-2.989,2.973-5.965,4.46-8.946
			c0.062-0.124,0.087-0.266,0.138-0.436C21.619,6.772,15.126,6.772,8.525,6.772z"/>
		<circle fill-rule="evenodd" clip-rule="evenodd" fill="#60b6fb" cx="11.687" cy="27.87" r="2.373"/>
		<circle fill-rule="evenodd" clip-rule="evenodd" fill="#60b6fb" cx="25.076" cy="27.87" r="2.374"/>
	</g>
</g>
</svg>
