<?xml version="1.0" encoding="utf-8"?>
<!-- Generator: Adobe Illustrator 16.0.0, SVG Export Plug-In . SVG Version: 6.00 Build 0)  -->
<!DOCTYPE svg PUBLIC "-//W3C//DTD SVG 1.1//EN" "http://www.w3.org/Graphics/SVG/1.1/DTD/svg11.dtd">
<svg version="1.1" id="Layer_1" xmlns="http://www.w3.org/2000/svg" xmlns:xlink="http://www.w3.org/1999/xlink" x="0px" y="0px"
	 width="50px" height="50px" viewBox="0 0 50 50" enable-background="new 0 0 50 50" xml:space="preserve">
<g>
	<g>
		<path fill-rule="evenodd" clip-rule="evenodd" fill="#E63946" d="M24.222,0c0.522,0,1.04,0,1.562,0
			c0.093,0.027,0.177,0.073,0.271,0.087c2.805,0.422,5.105,2.657,5.588,5.461c0.058,0.347,0.188,0.443,0.535,0.438
			c2.392-0.015,4.786-0.02,7.176-0.001c2.715,0.02,4.939,1.663,5.642,4.132c0.747,2.626-0.196,5.328-2.519,6.694
			c-0.764,0.446-0.883,0.904-0.883,1.669c0.023,8.528,0.01,17.053,0.016,25.584c0,2.067-0.77,3.765-2.495,4.904
			c-0.736,0.486-1.654,0.697-2.49,1.031c-7.745,0-15.494,0-23.245,0c-0.323-0.087-0.651-0.162-0.973-0.267
			c-2.451-0.771-4.004-2.943-4.008-5.623c-0.005-8.77,0-17.544,0.004-26.314c0-0.319-0.042-0.521-0.374-0.684
			c-2.697-1.335-3.929-4.427-2.925-7.277c0.832-2.369,2.958-3.84,5.599-3.851c2.374-0.012,4.755-0.007,7.128,0.003
			c0.293,0,0.469-0.036,0.531-0.389c0.393-2.192,1.593-3.827,3.569-4.834C22.641,0.403,23.452,0.247,24.222,0z M38.892,17.731
			c-9.288,0-18.506,0-27.777,0c0,0.186,0,0.345,0,0.503c0,8.593-0.004,17.185,0,25.777c0,2.056,1.221,3.271,3.282,3.271
			c7.076,0,14.151,0,21.233-0.007c0.323,0,0.655-0.012,0.97-0.085c1.48-0.374,2.292-1.511,2.292-3.199
			c0.002-8.577,0-17.152,0-25.728C38.892,18.103,38.892,17.939,38.892,17.731z M25.002,8.697c-4.768,0-9.537,0-14.302,0
			c-1.199,0-2.179,0.438-2.776,1.5c-0.624,1.102-0.615,2.256,0.022,3.348c0.648,1.107,1.702,1.467,2.945,1.465
			c9.407-0.01,18.815-0.004,28.22-0.004c0.099,0,0.196,0,0.295-0.001c2.297-0.104,3.665-2.104,2.926-4.282
			c-0.433-1.275-1.561-2.025-3.07-2.025C34.507,8.694,29.753,8.697,25.002,8.697z M28.923,5.956c-0.21-1.921-2.209-3.384-4.36-3.213
			c-1.711,0.135-3.495,1.801-3.437,3.213C23.725,5.956,26.319,5.956,28.923,5.956z"/>
		<path fill-rule="evenodd" clip-rule="evenodd" fill="#E63946" d="M26.359,34.858c0,2.488,0.008,4.98,0,7.466
			c-0.003,1.079-0.876,1.749-1.816,1.418c-0.568-0.202-0.896-0.704-0.9-1.418c-0.005-1.332-0.003-2.668-0.003-4.002
			c0-3.624,0-7.253,0.003-10.881c0-0.868,0.448-1.458,1.164-1.557c0.859-0.117,1.547,0.517,1.553,1.463c0.011,1.511,0,3.022,0,4.536
			C26.359,32.875,26.359,33.869,26.359,34.858z"/>
		<path fill-rule="evenodd" clip-rule="evenodd" fill="#E63946" d="M16.391,34.861c0-2.503-0.003-5.009,0-7.514
			c0.007-0.927,0.604-1.521,1.444-1.469c0.602,0.036,1.115,0.483,1.216,1.078c0.032,0.189,0.042,0.391,0.042,0.582
			c0.001,4.879,0.001,9.755-0.002,14.636c0,0.242-0.014,0.494-0.079,0.723c-0.166,0.584-0.801,0.991-1.394,0.926
			c-0.65-0.073-1.156-0.57-1.213-1.207c-0.018-0.178-0.015-0.356-0.015-0.536C16.391,39.675,16.391,37.268,16.391,34.861z"/>
		<path fill-rule="evenodd" clip-rule="evenodd" fill="#E63946" d="M33.606,34.866c0,2.501,0.01,5.005-0.003,7.512
			c-0.001,1.041-0.88,1.701-1.798,1.359c-0.475-0.177-0.78-0.522-0.859-1.031c-0.031-0.21-0.036-0.422-0.036-0.632
			c-0.001-4.812-0.001-9.628,0-14.44c0-0.147-0.001-0.292,0.008-0.438c0.066-0.814,0.634-1.348,1.401-1.317
			c0.736,0.023,1.281,0.587,1.284,1.377c0.013,2.162,0.003,4.325,0.003,6.485C33.606,34.117,33.606,34.491,33.606,34.866z"/>
	</g>
</g>
</svg>
