<?xml version="1.0" encoding="utf-8"?>
<!-- Generator: Adobe Illustrator 16.0.0, SVG Export Plug-In . SVG Version: 6.00 Build 0)  -->
<!DOCTYPE svg PUBLIC "-//W3C//DTD SVG 1.1//EN" "http://www.w3.org/Graphics/SVG/1.1/DTD/svg11.dtd">
<svg version="1.1" id="Layer_1" xmlns="http://www.w3.org/2000/svg" xmlns:xlink="http://www.w3.org/1999/xlink" x="0px" y="0px"
	 width="50px" height="50px" viewBox="0 0 50 50" enable-background="new 0 0 50 50" xml:space="preserve">
<g>
	<g>
		<g>
			<path fill-rule="evenodd" clip-rule="evenodd" fill="#FFBB38" d="M24.242,0.55c0.511,0,1.018,0,1.524,0
				c0.092,0.028,0.174,0.075,0.266,0.086c2.744,0.417,4.995,2.598,5.465,5.34c0.059,0.344,0.183,0.436,0.522,0.432
				c2.338-0.013,4.683-0.021,7.019-0.002c2.656,0.019,4.831,1.627,5.519,4.041c0.728,2.566-0.193,5.211-2.465,6.547
				c-0.743,0.436-0.861,0.883-0.861,1.63c0.021,8.34,0.011,16.677,0.016,25.02c0,2.022-0.754,3.685-2.441,4.799
				c-0.722,0.475-1.619,0.681-2.438,1.009c-7.573,0-15.15,0-22.732,0c-0.315-0.086-0.636-0.161-0.949-0.262
				c-2.396-0.756-3.914-2.877-3.921-5.497c-0.002-8.58,0-17.16,0.007-25.736c0-0.313-0.041-0.509-0.367-0.67
				c-2.637-1.306-3.842-4.329-2.86-7.116c0.813-2.317,2.893-3.756,5.476-3.767c2.323-0.008,4.648-0.006,6.97,0.004
				c0.288,0,0.459-0.034,0.52-0.38c0.385-2.145,1.557-3.745,3.489-4.729C22.693,0.945,23.488,0.792,24.242,0.55z M38.59,17.893
				c-9.085,0-18.102,0-27.167,0c0,0.183,0,0.335,0,0.492c0,8.401-0.004,16.806,0,25.208c0,2.01,1.196,3.197,3.208,3.197
				c6.921,0,13.843,0,20.766-0.005c0.32,0,0.64-0.013,0.947-0.081c1.449-0.367,2.246-1.478,2.246-3.129c0-8.389,0-16.775,0-25.163
				C38.59,18.254,38.59,18.097,38.59,17.893z M25.004,9.057c-4.661,0-9.327,0-13.989,0c-1.17,0-2.128,0.429-2.712,1.464
				c-0.609,1.08-0.601,2.207,0.021,3.276c0.634,1.082,1.664,1.431,2.88,1.431c9.2-0.009,18.401-0.003,27.601-0.003
				c0.094,0,0.19,0,0.287-0.002c2.244-0.101,3.584-2.055,2.86-4.187c-0.423-1.245-1.524-1.979-3.002-1.979
				C34.3,9.053,29.65,9.057,25.004,9.057z M28.835,6.375c-0.202-1.876-2.156-3.309-4.261-3.141c-1.672,0.133-3.416,1.761-3.36,3.141
				C23.755,6.375,26.292,6.375,28.835,6.375z"/>
			<path fill="#FFBB38" d="M36.473,50l-22.981-0.02l-0.282-0.075c-0.231-0.06-0.463-0.12-0.691-0.193
				c-2.606-0.822-4.296-3.184-4.303-6.019c-0.002-8.582,0-17.162,0.007-25.738c0-0.12-0.009-0.154-0.011-0.163
				c-2.95-1.449-4.269-4.726-3.185-7.805c0.892-2.538,3.187-4.123,5.991-4.133l2.911-0.004c1.351,0,2.701,0.002,4.05,0.008
				c0.451-2.319,1.714-4.002,3.771-5.048c0.53-0.271,1.095-0.43,1.643-0.582c0.229-0.064,0.457-0.129,0.683-0.202L24.242,0
				l1.825,0.075c3.019,0.468,5.449,2.834,5.967,5.778c2.458-0.009,4.704-0.02,7.009,0.002c2.909,0.021,5.279,1.765,6.042,4.44
				c0.812,2.858-0.279,5.739-2.714,7.172c-0.518,0.303-0.591,0.518-0.591,1.155c0.015,5.686,0.015,11.371,0.015,17.06v7.96
				c0,2.31-0.903,4.079-2.688,5.258c-0.555,0.363-1.177,0.578-1.778,0.786c-0.256,0.088-0.509,0.174-0.758,0.274L36.473,50z
				 M13.705,48.9h22.557c0.234-0.09,0.473-0.172,0.709-0.253c0.563-0.195,1.093-0.378,1.531-0.666
				c1.455-0.96,2.194-2.422,2.194-4.339v-7.96c0-5.687,0-11.372-0.016-17.058c0-0.892,0.189-1.553,1.132-2.106
				c1.997-1.173,2.888-3.554,2.216-5.922c-0.625-2.195-2.585-3.625-4.994-3.642c-2.341-0.021-4.681-0.008-7.013,0.002
				c-0.625,0-0.965-0.292-1.065-0.889c-0.43-2.495-2.486-4.507-5.005-4.889c-0.111-0.013-0.215-0.054-0.288-0.082L24.328,1.1
				c-0.211,0.066-0.426,0.126-0.638,0.187c-0.521,0.144-1.01,0.281-1.443,0.502c-1.768,0.9-2.843,2.358-3.197,4.335
				c-0.144,0.833-0.835,0.833-1.061,0.833c-1.355-0.006-2.708-0.009-4.061-0.009l-2.907,0.004c-2.362,0.011-4.215,1.28-4.958,3.399
				c-0.897,2.547,0.189,5.254,2.585,6.441c0.673,0.331,0.673,0.892,0.673,1.162c-0.007,8.576-0.009,17.156-0.007,25.736
				c0.007,2.381,1.361,4.286,3.536,4.973c0.213,0.069,0.423,0.123,0.636,0.179L13.705,48.9z M14.631,47.34
				c-2.316,0-3.758-1.437-3.758-3.747v-26.25H39.14v26.232c0,1.898-0.971,3.234-2.661,3.661c-0.389,0.088-0.764,0.099-1.082,0.099
				L14.631,47.34z M11.973,18.442v25.15c0,1.707,0.944,2.647,2.658,2.647l20.766-0.004c0.258,0,0.559-0.009,0.827-0.069
				c1.498-0.38,1.816-1.619,1.816-2.592V18.442H11.973z M11.204,15.777c-1.587,0-2.685-0.556-3.354-1.702
				c-0.726-1.246-0.734-2.568-0.025-3.824c0.645-1.14,1.748-1.744,3.19-1.744H38.95c1.705,0,3.021,0.88,3.521,2.354
				c0.401,1.179,0.262,2.398-0.382,3.341c-0.645,0.943-1.729,1.516-2.972,1.572l-0.313,0.002l-16.57-0.002L11.204,15.777z
				 M11.015,9.606c-1.052,0-1.784,0.387-2.232,1.186c-0.514,0.908-0.507,1.827,0.017,2.729c0.469,0.801,1.211,1.158,2.405,1.158
				l19.316-0.005l8.284,0.002l0.274-0.002c0.897-0.041,1.649-0.429,2.103-1.093c0.455-0.666,0.543-1.505,0.251-2.368
				c-0.348-1.02-1.252-1.606-2.482-1.606L34.3,9.604L11.015,9.606z M29.446,6.925h-8.76l-0.021-0.528
				c-0.067-1.679,1.883-3.554,3.866-3.71c2.438-0.195,4.617,1.475,4.851,3.631L29.446,6.925z M21.852,5.825h6.29
				c-0.478-1.254-1.931-2.156-3.524-2.044C23.456,3.874,22.191,4.863,21.852,5.825z"/>
		</g>
		<g>
			<path fill-rule="evenodd" clip-rule="evenodd" fill="#FFBB38" d="M26.331,34.641c0,2.434,0.009,4.87,0,7.303
				c-0.002,1.055-0.856,1.71-1.775,1.385c-0.555-0.195-0.879-0.688-0.881-1.385c-0.004-1.306-0.004-2.608-0.004-3.914
				c0-3.545,0-7.092,0.004-10.642c0-0.851,0.438-1.426,1.141-1.522c0.839-0.113,1.512,0.505,1.516,1.428c0.009,1.479,0,2.959,0,4.44
				C26.331,32.702,26.331,33.673,26.331,34.641z"/>
			<path fill="#FFBB38" d="M25.025,43.962c-0.217,0-0.438-0.038-0.652-0.116c-0.779-0.272-1.245-0.983-1.248-1.899l-0.004-3.917
				l0.004-10.642c0-1.121,0.634-1.933,1.615-2.067c1.179-0.136,2.137,0.74,2.141,1.971c0.007,0.985,0.004,1.974,0.002,2.963
				l-0.002,4.387l0.002,2.434c0.002,1.623,0.005,3.248-0.002,4.872C26.879,43.095,26.082,43.962,25.025,43.962z M25.013,26.402
				c-0.702,0.088-0.788,0.654-0.788,0.985l-0.004,10.642l0.004,3.912c0.002,0.457,0.174,0.749,0.514,0.87
				c0.568,0.197,1.041-0.224,1.043-0.87c0.007-1.621,0.005-3.244,0.002-4.865l-0.002-5.343l0.002-1.481
				c0.003-0.985,0.005-1.971-0.002-2.957C25.779,26.761,25.47,26.402,25.013,26.402z"/>
		</g>
		<g>
			<path fill-rule="evenodd" clip-rule="evenodd" fill="#FFBB38" d="M16.581,34.644c0-2.446-0.003-4.9,0-7.351
				c0.008-0.903,0.592-1.483,1.412-1.435c0.589,0.037,1.093,0.473,1.192,1.057c0.029,0.185,0.04,0.378,0.04,0.567
				c0,4.773,0,9.542,0,14.313c0,0.238-0.015,0.482-0.079,0.706c-0.163,0.571-0.786,0.971-1.363,0.906
				c-0.636-0.073-1.13-0.559-1.186-1.181c-0.02-0.172-0.017-0.349-0.017-0.524C16.581,39.35,16.581,36.996,16.581,34.644z"/>
			<path fill="#FFBB38" d="M17.907,43.964l-0.185-0.011c-0.906-0.103-1.593-0.792-1.673-1.677c-0.019-0.165-0.019-0.346-0.019-0.526
				V27.293c0.011-1.172,0.779-1.986,1.865-1.986c0.978,0.057,1.69,0.691,1.83,1.517c0.036,0.217,0.049,0.439,0.049,0.659v14.313
				c0,0.235-0.011,0.547-0.101,0.858C19.462,43.401,18.702,43.964,17.907,43.964z M17.955,26.408c-0.535,0-0.82,0.333-0.825,0.89
				v14.405c0,0.187-0.002,0.326,0.014,0.462c0.034,0.371,0.321,0.652,0.702,0.697l0.062,0.003c0.312,0,0.63-0.23,0.711-0.514
				c0.052-0.183,0.059-0.403,0.059-0.556V27.482c0-0.159-0.009-0.322-0.035-0.479c-0.054-0.321-0.341-0.575-0.683-0.595
				C17.957,26.408,17.957,26.408,17.955,26.408z"/>
		</g>
		<g>
			<path fill-rule="evenodd" clip-rule="evenodd" fill="#FFBB38" d="M33.419,34.649c0,2.446,0.009,4.894-0.002,7.348
				c-0.002,1.016-0.861,1.66-1.759,1.329c-0.464-0.174-0.765-0.513-0.842-1.011c-0.027-0.204-0.034-0.412-0.034-0.619
				c-0.002-4.704-0.002-9.413,0-14.122c0-0.142-0.002-0.283,0.009-0.427c0.064-0.797,0.618-1.314,1.37-1.289
				c0.719,0.026,1.251,0.574,1.256,1.349c0.011,2.115,0.002,4.23,0.002,6.343C33.419,33.917,33.419,34.284,33.419,34.649z"/>
			<path fill="#FFBB38" d="M32.133,43.964c-0.224,0-0.446-0.04-0.663-0.122c-0.668-0.249-1.091-0.763-1.196-1.443
				c-0.032-0.238-0.041-0.47-0.041-0.702V27.574c0-0.195,0-0.33,0.011-0.468c0.086-1.061,0.853-1.797,1.864-1.797
				c1.102,0.036,1.853,0.833,1.859,1.896c0.006,1.465,0.006,2.931,0.004,4.396l-0.002,3.049l0.002,2.257
				c0.002,1.694,0.002,3.393-0.004,5.093C33.965,43.101,33.159,43.964,32.133,43.964z M32.14,26.408
				c-0.475,0-0.761,0.292-0.801,0.784c-0.007,0.105-0.007,0.213-0.007,0.32v14.184c0,0.181,0.004,0.365,0.03,0.544
				c0.043,0.279,0.197,0.464,0.489,0.571c0.514,0.19,1.016-0.202,1.016-0.816c0.007-1.698,0.007-3.395,0.004-5.089l-0.002-3.356
				l0.002-1.949c0.003-1.465,0.003-2.927-0.004-4.391c-0.002-0.471-0.288-0.786-0.726-0.802H32.14z"/>
		</g>
	</g>
</g>
</svg>
