<?xml version="1.0" encoding="utf-8"?>
<!-- Generator: Adobe Illustrator 16.0.0, SVG Export Plug-In . SVG Version: 6.00 Build 0)  -->
<!DOCTYPE svg PUBLIC "-//W3C//DTD SVG 1.1//EN" "http://www.w3.org/Graphics/SVG/1.1/DTD/svg11.dtd">
<svg version="1.1" id="Layer_1" xmlns="http://www.w3.org/2000/svg" xmlns:xlink="http://www.w3.org/1999/xlink" x="0px" y="0px"
	 width="50px" height="50px" viewBox="0 0 50 50" enable-background="new 0 0 50 50" xml:space="preserve">
<g>
	<g>
		<path fill-rule="evenodd" clip-rule="evenodd" fill="#FFFFFF" d="M24.221,0c0.525,0,1.042,0,1.565,0
			c0.094,0.026,0.175,0.074,0.269,0.087c2.807,0.42,5.107,2.655,5.587,5.462c0.059,0.35,0.188,0.441,0.535,0.438
			c2.395-0.014,4.785-0.022,7.178-0.002c2.709,0.02,4.939,1.665,5.64,4.13c0.748,2.629-0.196,5.33-2.518,6.696
			c-0.763,0.445-0.882,0.904-0.882,1.67c0.023,8.526,0.011,17.052,0.015,25.582c0,2.069-0.771,3.766-2.494,4.905
			c-0.738,0.488-1.657,0.698-2.493,1.032c-7.742,0-15.494,0-23.242,0c-0.325-0.088-0.655-0.161-0.976-0.266
			c-2.453-0.772-4.005-2.944-4.005-5.626c-0.004-8.77,0-17.542,0-26.314c0-0.316-0.038-0.519-0.371-0.683
			c-2.696-1.338-3.93-4.427-2.926-7.276C5.938,7.466,8.062,5.994,10.7,5.984c2.375-0.012,4.753-0.008,7.131,0.002
			c0.292,0,0.471-0.035,0.527-0.389c0.394-2.191,1.594-3.826,3.572-4.834C22.641,0.401,23.454,0.244,24.221,0z M38.892,17.73
			c-9.288,0-18.505,0-27.777,0c0,0.188,0,0.344,0,0.504c0,8.591-0.004,17.184,0,25.778c0,2.053,1.224,3.268,3.282,3.268
			c7.078,0,14.154,0,21.231-0.005c0.327,0,0.659-0.012,0.974-0.085c1.479-0.373,2.29-1.511,2.29-3.197
			c0.005-8.575,0-17.153,0-25.729C38.892,18.104,38.892,17.938,38.892,17.73z M25.002,8.698c-4.768,0-9.538,0-14.304,0
			c-1.196,0-2.176,0.437-2.774,1.498c-0.625,1.103-0.615,2.255,0.023,3.346c0.646,1.11,1.703,1.469,2.942,1.469
			c9.414-0.012,18.817-0.006,28.226-0.006c0.096,0,0.193,0.001,0.289-0.002c2.299-0.103,3.668-2.104,2.928-4.283
			c-0.433-1.275-1.559-2.021-3.073-2.021C34.507,8.692,29.756,8.698,25.002,8.698z M28.924,5.954
			c-0.206-1.919-2.211-3.385-4.361-3.214c-1.711,0.137-3.495,1.806-3.438,3.214C23.723,5.954,26.319,5.954,28.924,5.954z"/>
		<path fill-rule="evenodd" clip-rule="evenodd" fill="#FFFFFF" d="M26.358,34.859c0,2.49,0.009,4.977,0,7.465
			c-0.002,1.079-0.873,1.748-1.813,1.417c-0.571-0.2-0.902-0.7-0.905-1.417c-0.006-1.334-0.004-2.668-0.004-4.001
			c0-3.626,0-7.257,0.004-10.882c0-0.871,0.45-1.459,1.165-1.556c0.863-0.118,1.548,0.516,1.552,1.461c0.011,1.511,0,3.023,0,4.537
			C26.358,32.875,26.358,33.867,26.358,34.859z"/>
		<path fill-rule="evenodd" clip-rule="evenodd" fill="#FFFFFF" d="M16.389,34.859c0-2.501,0-5.008,0-7.513
			c0.008-0.926,0.606-1.521,1.448-1.472c0.602,0.036,1.111,0.488,1.213,1.08c0.033,0.193,0.042,0.392,0.042,0.584
			c0,4.878,0,9.755,0,14.635c0,0.244-0.012,0.492-0.079,0.724c-0.167,0.585-0.802,0.989-1.39,0.923
			c-0.656-0.07-1.161-0.568-1.219-1.206c-0.014-0.174-0.014-0.353-0.014-0.532C16.389,39.674,16.389,37.267,16.389,34.859z"/>
		<path fill-rule="evenodd" clip-rule="evenodd" fill="#FFFFFF" d="M33.606,34.868c0,2.5,0.009,5.001-0.002,7.51
			c0,1.038-0.884,1.701-1.798,1.359c-0.472-0.18-0.782-0.521-0.859-1.029c-0.033-0.211-0.039-0.424-0.039-0.636
			c0-4.813,0-9.626,0-14.44c0-0.146,0-0.289,0.011-0.438c0.068-0.814,0.633-1.345,1.4-1.319c0.737,0.026,1.281,0.59,1.285,1.38
			c0.011,2.161,0.002,4.324,0.002,6.487C33.606,34.117,33.606,34.492,33.606,34.868z"/>
	</g>
</g>
</svg>
