<?xml version="1.0" encoding="utf-8"?>
<!-- Generator: Adobe Illustrator 16.0.0, SVG Export Plug-In . SVG Version: 6.00 Build 0)  -->
<!DOCTYPE svg PUBLIC "-//W3C//DTD SVG 1.1//EN" "http://www.w3.org/Graphics/SVG/1.1/DTD/svg11.dtd">
<svg version="1.1" id="Layer_1" xmlns="http://www.w3.org/2000/svg" xmlns:xlink="http://www.w3.org/1999/xlink" x="0px" y="0px"
	 width="50px" height="50px" viewBox="0 0 50 50" enable-background="new 0 0 50 50" xml:space="preserve">
<g>
	<g>
		<path fill="#FFFFFF" d="M25.073,50c-13.785,0-25-11.216-25-25.001C0.073,11.214,11.289,0,25.073,0
			c13.786,0,24.999,11.214,24.999,24.999C50.072,38.784,38.859,50,25.073,50z M25.073,3.669c-11.763,0-21.332,9.569-21.332,21.33
			c0,11.762,9.569,21.331,21.332,21.331c11.76,0,21.329-9.569,21.329-21.331C46.402,13.238,36.833,3.669,25.073,3.669z"/>
	</g>
	<g>
		<path fill="#FFFFFF" d="M23.985,22.077h-3.63v-2.401h6.79v10.445h3.705v2.401H19.914v-2.401h4.071V22.077z M27.398,16.16
			c0,0.279-0.051,0.54-0.151,0.785c-0.102,0.243-0.243,0.457-0.423,0.637c-0.183,0.182-0.396,0.325-0.64,0.432
			c-0.244,0.106-0.51,0.158-0.797,0.158c-0.288,0-0.555-0.052-0.803-0.158c-0.248-0.107-0.465-0.25-0.644-0.432
			c-0.182-0.18-0.322-0.395-0.425-0.637c-0.102-0.245-0.15-0.505-0.15-0.785c0-0.277,0.049-0.54,0.15-0.785
			c0.103-0.244,0.243-0.458,0.425-0.645c0.179-0.183,0.396-0.329,0.644-0.434c0.248-0.106,0.515-0.158,0.803-0.158
			c0.287,0,0.553,0.052,0.797,0.158c0.244,0.105,0.457,0.251,0.64,0.434c0.18,0.187,0.321,0.401,0.423,0.645
			C27.348,15.62,27.398,15.883,27.398,16.16z"/>
	</g>
</g>
</svg>
