<?xml version="1.0" encoding="utf-8"?>
<!-- Generator: Adobe Illustrator 16.0.0, SVG Export Plug-In . SVG Version: 6.00 Build 0)  -->
<!DOCTYPE svg PUBLIC "-//W3C//DTD SVG 1.1//EN" "http://www.w3.org/Graphics/SVG/1.1/DTD/svg11.dtd">
<svg version="1.1" id="Layer_1" xmlns="http://www.w3.org/2000/svg" xmlns:xlink="http://www.w3.org/1999/xlink" x="0px" y="0px"
	 width="32px" height="32px" viewBox="0 0 32 32" enable-background="new 0 0 32 32" xml:space="preserve">
<g>
	<g>
		<g>
			<path fill="#FFFFFF" d="M20.861,22.398c-0.877,0.83-2.147,1.335-3.812,1.513v2.474h-1.813v-2.453
				c-1.09-0.071-2.121-0.271-3.093-0.595c-0.973-0.324-1.745-0.737-2.319-1.237l0.993-2.232c0.546,0.442,1.208,0.813,1.99,1.116
				c0.781,0.302,1.592,0.489,2.43,0.563v-4.419c-1.046-0.251-1.918-0.527-2.618-0.829c-0.699-0.304-1.286-0.743-1.757-1.326
				c-0.471-0.583-0.707-1.351-0.707-2.309c0-1.192,0.435-2.21,1.303-3.049c0.87-0.839,2.13-1.34,3.779-1.503V5.615h1.813v2.454
				c0.824,0.042,1.631,0.184,2.421,0.418c0.786,0.237,1.477,0.546,2.063,0.928l-0.904,2.233c-1.121-0.648-2.313-1.046-3.58-1.194
				v4.462c1.061,0.252,1.941,0.524,2.641,0.818c0.699,0.295,1.288,0.732,1.768,1.315c0.478,0.583,0.718,1.352,0.718,2.309
				C22.176,20.552,21.736,21.566,20.861,22.398z M13.581,13.702c0.383,0.296,0.937,0.545,1.657,0.75v-3.932
				c-0.751,0.118-1.31,0.354-1.679,0.706c-0.367,0.355-0.552,0.789-0.552,1.305C13.006,13.018,13.196,13.407,13.581,13.702z
				 M18.784,20.816c0.376-0.338,0.563-0.758,0.563-1.259c0-0.502-0.198-0.902-0.597-1.205c-0.397-0.302-0.966-0.555-1.701-0.762
				v3.911C17.831,21.384,18.408,21.156,18.784,20.816z"/>
		</g>
	</g>
	<g>
		<path fill="#FFFFFF" d="M16,31C7.729,31,1,24.271,1,16C1,7.729,7.729,1,16,1c8.271,0,15,6.729,15,15C31,24.271,24.271,31,16,31z
			 M16,3.812C9.28,3.812,3.812,9.281,3.812,16c0,6.721,5.468,12.188,12.188,12.188c6.721,0,12.188-5.467,12.188-12.188
			C28.188,9.281,22.721,3.812,16,3.812z"/>
	</g>
</g>
</svg>
