<?xml version="1.0" encoding="utf-8"?>
<!-- Generator: Adobe Illustrator 16.0.0, SVG Export Plug-In . SVG Version: 6.00 Build 0)  -->
<!DOCTYPE svg PUBLIC "-//W3C//DTD SVG 1.1//EN" "http://www.w3.org/Graphics/SVG/1.1/DTD/svg11.dtd">
<svg version="1.1" id="Layer_1" xmlns="http://www.w3.org/2000/svg" xmlns:xlink="http://www.w3.org/1999/xlink" x="0px" y="0px"
	 width="50px" height="50px" viewBox="0 0 50 50" enable-background="new 0 0 50 50" xml:space="preserve">
<g>
	<path fill="#60b6fb" d="M25.153,0C11.367,0,0.154,11.214,0.154,24.999C0.154,38.783,11.367,50,25.153,50
		c13.786,0,24.999-11.217,24.999-25.001C50.152,11.214,38.939,0,25.153,0z M25.153,46.869c-12.06,0-21.873-9.808-21.873-21.87
		c0-12.061,9.813-21.873,21.873-21.873c12.06,0,21.873,9.813,21.873,21.873C47.026,37.062,37.213,46.869,25.153,46.869z"/>
	<circle fill="#FFBB38" cx="25.153" cy="25" r="17.611"/>
	<g>
		<g>
			<path fill="#FFFFFF" d="M23.419,23.174h-3.55v-2.349h6.638v10.213h3.624v2.346H19.438v-2.346h3.98V23.174z M26.756,17.388
				c0,0.271-0.05,0.527-0.148,0.768c-0.101,0.237-0.239,0.446-0.414,0.623c-0.18,0.18-0.386,0.318-0.626,0.422
				c-0.238,0.103-0.498,0.154-0.778,0.154c-0.282,0-0.54-0.052-0.785-0.154c-0.242-0.104-0.453-0.242-0.628-0.422
				c-0.179-0.177-0.316-0.386-0.417-0.623c-0.099-0.24-0.148-0.496-0.148-0.768s0.049-0.526,0.148-0.767
				c0.101-0.235,0.238-0.448,0.417-0.633c0.175-0.177,0.386-0.318,0.628-0.421c0.245-0.105,0.502-0.157,0.785-0.157
				c0.28,0,0.541,0.052,0.778,0.157c0.24,0.103,0.446,0.244,0.626,0.421c0.175,0.185,0.313,0.397,0.414,0.633
				C26.706,16.861,26.756,17.116,26.756,17.388z"/>
		</g>
	</g>
</g>
</svg>
