<?xml version="1.0" encoding="utf-8"?>
<!-- Generator: Adobe Illustrator 16.0.0, SVG Export Plug-In . SVG Version: 6.00 Build 0)  -->
<!DOCTYPE svg PUBLIC "-//W3C//DTD SVG 1.1//EN" "http://www.w3.org/Graphics/SVG/1.1/DTD/svg11.dtd">
<svg version="1.1" id="Layer_1" xmlns="http://www.w3.org/2000/svg" xmlns:xlink="http://www.w3.org/1999/xlink" x="0px" y="0px"
	 width="744px" height="190.543px" viewBox="0 0 744 190.543" enable-background="new 0 0 744 190.543" xml:space="preserve">
<g>
	<g>
		<g>
			<path fill="#FFFFFF" d="M134.148,182.146H38.367c-13.09,0-28.693-5.086-28.693-29.314v-95.17c0-4.259,3.453-7.711,7.711-7.711
				s7.711,3.453,7.711,7.711v95.17c0,10.646,3.102,13.892,13.271,13.892h95.781c4.258,0,7.711,3.451,7.711,7.711
				C141.859,178.693,138.406,182.146,134.148,182.146z"/>
		</g>
	</g>
	<g>
		<g>
			<path fill="#FFFFFF" d="M174.059,150.106H63.453c-11.055,0-20.049-8.994-20.049-20.051V19.455c0-4.259,3.451-7.711,7.711-7.711
				s7.713,3.452,7.713,7.711v110.601c0,2.552,2.074,4.628,4.625,4.628h110.605c4.26,0,7.713,3.453,7.713,7.712
				C181.771,146.653,178.318,150.106,174.059,150.106z"/>
		</g>
	</g>
	<g>
		<g>
			<path fill="#FFFFFF" d="M174.059,88.653c-4.258,0-7.711-3.453-7.711-7.712V31.794c0-2.552-2.076-4.627-4.627-4.627h-49.633
				c-4.26,0-7.713-3.452-7.713-7.712c0-4.259,3.453-7.711,7.713-7.711h49.633c11.057,0,20.051,8.994,20.051,20.05v49.147
				C181.771,85.2,178.318,88.653,174.059,88.653z"/>
		</g>
	</g>
	<path fill="#FFFFFF" d="M134.197,88.317c0,11.13-9.021,20.155-20.154,20.155c-11.129,0-20.154-9.024-20.154-20.155
		c0-11.13,20.154-33.732,20.154-33.732S134.197,77.187,134.197,88.317z"/>
	<g>
		<g>
			<path fill="#FFFFFF" d="M262.816,67.979c-1.68,1.381-2.518,3.208-2.518,5.482c0,2.276,1.023,4.084,3.076,5.427
				c2.051,1.343,6.787,2.928,14.211,4.755c7.42,1.829,13.184,4.57,17.285,8.224c4.102,3.656,6.154,8.99,6.154,16
				c0,7.012-2.629,12.699-7.887,17.063c-5.26,4.363-12.18,6.546-20.756,6.546c-12.383,0-23.535-4.588-33.455-13.763l10.406-12.755
				c8.428,7.385,16.223,11.076,23.385,11.076c3.205,0,5.723-0.688,7.553-2.069c1.826-1.38,2.74-3.245,2.74-5.595
				s-0.971-4.213-2.908-5.595c-1.941-1.379-5.783-2.777-11.525-4.195c-9.102-2.163-15.758-4.979-19.973-8.448
				c-4.215-3.468-6.32-8.913-6.32-16.335c0-7.421,2.666-13.147,8-17.175c5.332-4.028,11.988-6.042,19.971-6.042
				c5.221,0,10.443,0.895,15.666,2.685c5.219,1.791,9.77,4.327,13.65,7.608l-8.84,12.755c-6.789-5.147-13.801-7.72-21.035-7.72
				C266.787,65.91,264.494,66.6,262.816,67.979z"/>
			<path fill="#FFFFFF" d="M332.689,82.469v26.965c0,2.313,0.596,4.122,1.791,5.426c1.191,1.307,2.609,1.958,4.25,1.958
				c3.133,0,5.781-1.416,7.945-4.251l6.266,11.748c-5.223,4.774-10.725,7.161-16.504,7.161c-5.781,0-10.668-1.902-14.658-5.707
				c-3.99-3.804-5.984-8.987-5.984-15.552V82.469h-7.049V70.385h7.049V52.371h16.895v18.014h14.545v12.084H332.689z"/>
			<path fill="#FFFFFF" d="M400.717,102.833V70.385h16.895v60.196h-16.895v-7.944c-4.18,5.894-9.566,8.84-16.168,8.84
				s-12.141-2.07-16.615-6.21c-4.477-4.14-6.715-10.274-6.715-18.406V70.385h16.896v32.783c0,9.25,3.393,13.875,10.182,13.875
				c3.355,0,6.266-1.212,8.727-3.637C399.484,110.983,400.717,107.459,400.717,102.833z"/>
			<path fill="#FFFFFF" d="M457.611,131.477c-7.125,0-13.482-3.021-19.076-9.063c-5.596-6.042-8.393-13.538-8.393-22.489
				s2.723-16.28,8.168-21.986c5.443-5.706,11.822-8.559,19.133-8.559c7.309,0,13.275,2.573,17.902,7.72V47.56h16.783v83.021h-16.783
				v-7.944C470.646,128.53,464.734,131.477,457.611,131.477z M447.037,100.595c0,4.85,1.455,8.822,4.363,11.916
				c2.91,3.097,6.303,4.644,10.184,4.644c3.877,0,7.178-1.547,9.9-4.644c2.723-3.094,4.084-7.085,4.084-11.972
				c0-4.885-1.361-8.951-4.084-12.196s-6.061-4.867-10.014-4.867s-7.348,1.642-10.182,4.923
				C448.453,91.683,447.037,95.747,447.037,100.595z"/>
			<path fill="#FFFFFF" d="M509.414,62.721c-1.902-1.902-2.854-4.232-2.854-6.993c0-2.759,0.951-5.091,2.854-6.993
				c1.902-1.902,4.232-2.853,6.992-2.853s5.092,0.951,6.994,2.853c1.9,1.902,2.852,4.234,2.852,6.993
				c0,2.76-0.951,5.091-2.852,6.993c-1.902,1.902-4.234,2.854-6.994,2.854S511.316,64.623,509.414,62.721z M524.799,130.581h-16.783
				V70.385h16.783V130.581z"/>
			<path fill="#FFFFFF" d="M600.881,100.483c0,8.727-3.02,16.075-9.063,22.042c-6.041,5.968-13.633,8.951-22.77,8.951
				s-16.727-2.983-22.77-8.951c-6.041-5.967-9.063-13.315-9.063-22.042c0-8.728,3.021-16.093,9.063-22.098
				c6.043-6.003,13.633-9.007,22.77-9.007s16.729,3.003,22.77,9.007C597.861,84.391,600.881,91.756,600.881,100.483z
				 M554.113,100.483c0,4.923,1.398,8.934,4.195,12.027c2.797,3.097,6.377,4.644,10.74,4.644s7.945-1.547,10.742-4.644
				c2.797-3.094,4.195-7.104,4.195-12.027c0-4.923-1.398-8.951-4.195-12.084c-2.797-3.133-6.379-4.7-10.742-4.7
				s-7.943,1.566-10.74,4.7C555.512,91.532,554.113,95.56,554.113,100.483z"/>
			<path fill="#FFFFFF" d="M630.082,130.581h-16.783V47.56h16.783v42.629l18.686-19.916h21.146l-22.938,24.392l23.834,35.916
				h-19.918l-15.328-23.049l-5.482,5.706V130.581z"/>
			<path fill="#FFFFFF" d="M718.697,102.833V70.385h16.895v60.196h-16.895v-7.944c-4.18,5.894-9.566,8.84-16.168,8.84
				s-12.141-2.07-16.615-6.21c-4.477-4.14-6.715-10.274-6.715-18.406V70.385h16.896v32.783c0,9.25,3.393,13.875,10.182,13.875
				c3.355,0,6.266-1.212,8.727-3.637C717.465,110.983,718.697,107.459,718.697,102.833z"/>
		</g>
	</g>
</g>
</svg>
