<?xml version="1.0" encoding="utf-8"?>
<!-- Generator: Adobe Illustrator 16.0.0, SVG Export Plug-In . SVG Version: 6.00 Build 0)  -->
<!DOCTYPE svg PUBLIC "-//W3C//DTD SVG 1.1//EN" "http://www.w3.org/Graphics/SVG/1.1/DTD/svg11.dtd">
<svg version="1.1" id="Layer_1" xmlns="http://www.w3.org/2000/svg" xmlns:xlink="http://www.w3.org/1999/xlink" x="0px" y="0px"
	 width="32px" height="32px" viewBox="0 0 32 32" enable-background="new 0 0 32 32" xml:space="preserve">
<g>
	<g>
		<path fill="#60b6fb" d="M28.865,28H3.135C1.436,28,0,26.514,0,24.754V5.991C0,4.314,1.377,3,3.135,3h25.73
			C30.623,3,32,4.314,32,5.991v18.763C32,26.514,30.564,28,28.865,28z M3.135,6C3.04,6,2.986,6.029,2.975,6.039L3,24.754
			c0,0.097,0.102,0.229,0.162,0.25L28.847,25C28.906,24.971,29,24.847,29,24.754V6.007C28.988,6.018,28.941,6,28.865,6H3.135z"/>
	</g>
	<g>
		<rect x="1" y="9" fill="#60b6fb" width="30" height="3"/>
	</g>
	<g>
		<path fill="#60b6fb" d="M31,23h-9.372C19.995,23,18,21.459,18,19.66v-2.681C18,15.197,19.876,14,21.628,14H31v3h-9.372
			c-0.214,0-0.483,0.101-0.628,0.193v2.369C21.109,19.734,21.465,20,21.643,20H31V23z"/>
	</g>
</g>
</svg>
