<?xml version="1.0" encoding="utf-8"?>
<!-- Generator: Adobe Illustrator 16.0.0, SVG Export Plug-In . SVG Version: 6.00 Build 0)  -->
<!DOCTYPE svg PUBLIC "-//W3C//DTD SVG 1.1//EN" "http://www.w3.org/Graphics/SVG/1.1/DTD/svg11.dtd">
<svg version="1.1" id="Layer_1" xmlns="http://www.w3.org/2000/svg" xmlns:xlink="http://www.w3.org/1999/xlink" x="0px" y="0px"
	 width="50px" height="50px" viewBox="0 0 50 50" enable-background="new 0 0 50 50" xml:space="preserve">
<g>
	<path fill="#FFBB38" d="M24.742,49.5c-13.507,0-24.5-10.992-24.5-24.5c0-13.507,10.993-24.5,24.5-24.5
		c13.508,0,24.5,10.993,24.5,24.5C49.242,38.508,38.25,49.5,24.742,49.5z M24.742,4.403C13.384,4.403,4.145,13.642,4.145,25
		c0,11.358,9.239,20.6,20.597,20.6c11.358,0,20.598-9.241,20.598-20.6C45.34,13.642,36.101,4.403,24.742,4.403z"/>
</g>
<g>
	<g>
		<path fill="#FFBB38" d="M31.488,33.538c-1.171,1.107-2.867,1.781-5.09,2.019v3.3h-2.417v-3.272
			c-1.455-0.1-2.829-0.364-4.127-0.797c-1.295-0.431-2.329-0.978-3.095-1.649l1.324-2.979c0.728,0.592,1.614,1.085,2.653,1.489
			c1.041,0.404,2.125,0.654,3.244,0.754v-5.898c-1.396-0.335-2.561-0.701-3.493-1.104c-0.934-0.406-1.715-0.993-2.345-1.769
			c-0.628-0.779-0.942-1.807-0.942-3.084c0-1.592,0.578-2.947,1.74-4.069c1.16-1.119,2.836-1.787,5.04-2.002v-3.332h2.417v3.272
			c1.101,0.06,2.179,0.245,3.228,0.56c1.055,0.313,1.974,0.726,2.76,1.238l-1.211,2.977c-1.491-0.865-3.086-1.396-4.776-1.591v5.954
			c1.415,0.337,2.59,0.699,3.522,1.094c0.936,0.392,1.723,0.978,2.36,1.753c0.641,0.776,0.959,1.803,0.959,3.081
			C33.24,31.072,32.658,32.424,31.488,33.538z M21.771,21.931c0.513,0.398,1.248,0.729,2.211,1.007v-5.252
			c-0.999,0.159-1.75,0.475-2.239,0.947c-0.492,0.471-0.737,1.049-0.737,1.736C21.005,21.02,21.262,21.541,21.771,21.931z
			 M28.715,31.427c0.502-0.45,0.75-1.013,0.75-1.679c0-0.672-0.262-1.204-0.794-1.608c-0.53-0.403-1.288-0.738-2.272-1.016v5.216
			C27.442,32.187,28.216,31.878,28.715,31.427z"/>
	</g>
</g>
</svg>
