<?xml version="1.0" encoding="utf-8"?>
<!-- Generator: Adobe Illustrator 16.0.0, SVG Export Plug-In . SVG Version: 6.00 Build 0)  -->
<!DOCTYPE svg PUBLIC "-//W3C//DTD SVG 1.1//EN" "http://www.w3.org/Graphics/SVG/1.1/DTD/svg11.dtd">
<svg version="1.1" id="Layer_1" xmlns="http://www.w3.org/2000/svg" xmlns:xlink="http://www.w3.org/1999/xlink" x="0px" y="0px"
	 width="50px" height="50px" viewBox="0 0 50 50" enable-background="new 0 0 50 50" xml:space="preserve">
<g>
	<g>
		<path fill="#EA4642" d="M25,50C11.216,50,0,38.784,0,25.003C0,11.218,11.216,0,25,0s25,11.218,25,25.003
			C50,38.784,38.784,50,25,50z M25,3.999c-11.582,0-21.001,9.424-21.001,21.004c0,11.579,9.419,20.998,21.001,20.998
			c11.579,0,21.001-9.419,21.001-20.998C46.001,13.423,36.579,3.999,25,3.999z"/>
	</g>
	<g>
		<path fill="#EA4642" d="M35.723,17.897l-7.409,7.408l7.287,7.282l-3.418,3.418l-7.285-7.282l-7.405,7.404l-3.215-3.215
			l7.407-7.408l-7.324-7.324l3.418-3.418l7.324,7.324l7.404-7.404L35.723,17.897z"/>
	</g>
</g>
</svg>
