<?xml version="1.0" encoding="utf-8"?>
<!-- Generator: Adobe Illustrator 16.0.0, SVG Export Plug-In . SVG Version: 6.00 Build 0)  -->
<!DOCTYPE svg PUBLIC "-//W3C//DTD SVG 1.1//EN" "http://www.w3.org/Graphics/SVG/1.1/DTD/svg11.dtd">
<svg version="1.1" id="Layer_1" xmlns="http://www.w3.org/2000/svg" xmlns:xlink="http://www.w3.org/1999/xlink" x="0px" y="0px"
	 width="299px" height="150px" viewBox="0 0 299 150" enable-background="new 0 0 299 150" xml:space="preserve">
<rect fill="#7E90E1" width="299" height="150"/>
<g>
	<defs>
		<rect id="SVGID_1_" width="299" height="150"/>
	</defs>
	<clipPath id="SVGID_2_">
		<use xlink:href="#SVGID_1_"  overflow="visible"/>
	</clipPath>
	<circle clip-path="url(#SVGID_2_)" fill="#2D3674" cx="253.435" cy="74.722" r="90.538"/>
</g>
<g>
	<path fill-rule="evenodd" clip-rule="evenodd" fill="#FFFFFF" d="M216.77,42.333c0-2.237-0.005-4.312,0.001-6.387
		c0.005-2.136,0.492-2.623,2.611-2.625c2.527-0.001,5.051-0.004,7.577,0.001c1.941,0.004,2.46,0.537,2.463,2.515
		c0.004,2.117,0.001,4.23,0.001,6.42c4.838,0,9.552,0,14.465,0c0-0.692-0.001-1.396,0-2.1c0-1.604-0.028-3.208,0.011-4.81
		c0.029-1.304,0.668-1.999,1.889-2.011c2.967-0.032,5.934-0.034,8.899-0.001c1.268,0.015,1.875,0.731,1.888,2.13
		c0.018,2.238,0.004,4.472,0.004,6.868c1.532,0,2.959-0.002,4.387,0c2.367,0.001,2.84,0.464,2.84,2.785c0,17.236,0,34.477,0,51.715
		c0,0.479,0,0.956,0,1.604c1.539,0,3.011,0.015,4.48-0.002c4.537-0.056,4.692-0.181,4.567,4.651c-0.03,1.154-0.11,2.334-0.384,3.448
		c-1.164,4.745-5.32,8.11-10.217,8.128c-14.03,0.049-28.063,0.061-42.093-0.004c-6.072-0.029-10.575-4.846-10.629-11.188
		c-0.044-5.05-0.01-10.102-0.01-15.154c0-14.352-0.001-28.705,0-43.057c0-2.499,0.434-2.925,2.955-2.926
		C213.835,42.331,215.191,42.333,216.77,42.333z M213.144,46.038c0,0.565,0,1.036,0,1.508c0,18.439,0,36.88,0.004,55.32
		c0,0.6,0.016,1.203,0.083,1.799c0.408,3.648,3.437,6.379,7.079,6.4c3.687,0.023,6.77-2.608,7.206-6.242
		c0.148-1.226,0.11-2.478,0.123-3.719c0.021-2.221,0.452-2.666,2.688-2.667c9.46-0.002,18.921-0.001,28.381-0.001
		c0.47,0,0.938,0,1.438,0c0-17.549,0-34.937,0-52.398C244.518,46.038,228.939,46.038,213.144,46.038z M269.118,102.119
		c-12.607,0-25.164,0-37.868,0c0.169,3.256-0.466,6.243-2.755,8.95c0.655,0,1.039,0,1.423,0c10.532,0,21.065,0.004,31.599-0.002
		C266.61,111.064,269.818,107.344,269.118,102.119z M247.593,36.987c0,1.838,0,3.538,0,5.242c1.823,0,3.559,0,5.29,0
		c0-1.803,0-3.503,0-5.242C251.093,36.987,249.383,36.987,247.593,36.987z M220.439,42.238c1.839,0,3.562,0,5.304,0
		c0-1.792,0-3.488,0-5.216c-1.796,0-3.527,0-5.304,0C220.439,38.774,220.439,40.442,220.439,42.238z"/>
	<path fill-rule="evenodd" clip-rule="evenodd" fill="#FFFFFF" d="M236.671,62.118c0.779-1.434,1.453-2.658,2.114-3.891
		c0.698-1.307,1.741-2.085,3.253-2.101c1.56-0.019,2.646,0.745,3.376,2.098c2.814,5.213,5.661,10.412,8.455,15.638
		c1.476,2.761-0.13,5.539-3.255,5.554c-9.3,0.041-18.601,0.044-27.901-0.002c-3.116-0.013-4.703-2.798-3.227-5.557
		c2.798-5.224,5.639-10.424,8.453-15.639c0.704-1.307,1.745-2.077,3.255-2.092c1.562-0.015,2.648,0.75,3.369,2.109
		C235.217,59.465,235.892,60.685,236.671,62.118z M222.579,75.715c5.861,0,11.514,0,17.33,0c-2.916-5.385-5.751-10.619-8.664-15.999
		C228.325,65.106,225.492,70.337,222.579,75.715z M250.783,75.747c-2.948-5.441-5.78-10.666-8.686-16.025
		c-1.031,1.902-1.934,3.643-2.915,5.337c-0.365,0.632-0.355,1.108-0.004,1.749c1.613,2.933,3.167,5.897,4.789,8.94
		C246.008,75.747,248.274,75.747,250.783,75.747z"/>
	<path fill-rule="evenodd" clip-rule="evenodd" fill="#FFFFFF" d="M236.744,88.456c-3.767,0-7.532,0.004-11.298-0.001
		c-1.529-0.003-2.325-0.634-2.313-1.809c0.011-1.166,0.816-1.795,2.345-1.797c7.493-0.003,14.985-0.004,22.477,0.002
		c1.361,0.001,2.158,0.602,2.259,1.651c0.107,1.133-0.713,1.944-2.05,1.948C244.356,88.464,240.55,88.456,236.744,88.456z"/>
</g>
<text transform="matrix(1 0 0 1 22.2314 85.6748)" fill="#FFFFFF" font-family="'Montserrat-SemiBold'" font-size="29">POSTER</text>
</svg>
