<?xml version="1.0" encoding="utf-8"?>
<!-- Generator: Adobe Illustrator 16.0.0, SVG Export Plug-In . SVG Version: 6.00 Build 0)  -->
<!DOCTYPE svg PUBLIC "-//W3C//DTD SVG 1.1//EN" "http://www.w3.org/Graphics/SVG/1.1/DTD/svg11.dtd">
<svg version="1.1" id="Layer_1" xmlns="http://www.w3.org/2000/svg" xmlns:xlink="http://www.w3.org/1999/xlink" x="0px" y="0px"
	 width="299px" height="150px" viewBox="0 0 299 150" enable-background="new 0 0 299 150" xml:space="preserve">
<rect fill="#F4B247" width="299" height="150"/>
<g>
	<defs>
		<rect id="SVGID_1_" width="299" height="150"/>
	</defs>
	<clipPath id="SVGID_2_">
		<use xlink:href="#SVGID_1_"  overflow="visible"/>
	</clipPath>
	<circle clip-path="url(#SVGID_2_)" fill="#ED8D24" cx="253.435" cy="74.722" r="90.538"/>
</g>
<g>
	<g>
		<path fill="#FFFFFF" d="M29.104,76.789c0.543,0.712,0.816,1.596,0.816,2.652c0,1.456-0.561,2.579-1.68,3.371
			c-1.12,0.792-2.752,1.188-4.896,1.188h-8.352v-16.8h7.872c1.984,0,3.512,0.388,4.584,1.164c1.072,0.776,1.608,1.844,1.608,3.204
			c0,0.832-0.192,1.568-0.576,2.208c-0.384,0.64-0.912,1.136-1.584,1.488C27.823,75.569,28.559,76.077,29.104,76.789z
			 M18.111,69.649v4.632h4.416c1.088,0,1.924-0.195,2.508-0.588c0.584-0.392,0.876-0.964,0.876-1.716
			c0-0.768-0.292-1.348-0.876-1.74c-0.584-0.392-1.42-0.588-2.508-0.588H18.111z M26.775,79.129c0-1.616-1.208-2.424-3.624-2.424
			h-5.04v4.848h5.04C25.567,81.553,26.775,80.745,26.775,79.129z"/>
		<path fill="#FFFFFF" d="M44.151,80.113h-8.4l-1.656,3.888h-3.216l7.56-16.8h3.072l7.584,16.8h-3.264L44.151,80.113z
			 M43.119,77.665l-3.168-7.344l-3.144,7.344H43.119z"/>
		<path fill="#FFFFFF" d="M54.171,83.125c-1.368-0.744-2.44-1.771-3.216-3.084c-0.776-1.312-1.164-2.792-1.164-4.44
			s0.392-3.128,1.176-4.44c0.784-1.312,1.86-2.34,3.228-3.084c1.368-0.744,2.9-1.116,4.596-1.116c1.375,0,2.632,0.24,3.768,0.72
			c1.136,0.48,2.096,1.176,2.88,2.088l-2.016,1.896c-1.216-1.312-2.712-1.968-4.488-1.968c-1.152,0-2.184,0.252-3.096,0.756
			s-1.624,1.204-2.136,2.1c-0.512,0.896-0.768,1.913-0.768,3.048c0,1.136,0.255,2.152,0.768,3.048
			c0.512,0.896,1.224,1.596,2.136,2.1s1.944,0.756,3.096,0.756c1.776,0,3.271-0.664,4.488-1.992l2.016,1.92
			c-0.784,0.912-1.749,1.608-2.892,2.088c-1.144,0.48-2.404,0.721-3.78,0.721C57.071,84.241,55.539,83.869,54.171,83.125z"/>
		<path fill="#FFFFFF" d="M74.223,76.969l-2.664,2.736v4.296h-3.12v-16.8h3.12v8.616l8.304-8.616h3.504l-7.056,7.512l7.488,9.288
			H80.15L74.223,76.969z"/>
		<path fill="#FFFFFF" d="M96.807,75.409h2.952v6.695c-0.864,0.688-1.872,1.217-3.024,1.585c-1.152,0.367-2.336,0.552-3.552,0.552
			c-1.712,0-3.256-0.372-4.632-1.116c-1.376-0.744-2.457-1.771-3.24-3.084c-0.784-1.312-1.176-2.792-1.176-4.44
			s0.392-3.128,1.176-4.44c0.784-1.312,1.868-2.34,3.252-3.084c1.384-0.744,2.94-1.116,4.668-1.116c1.408,0,2.688,0.232,3.84,0.696
			c1.152,0.464,2.12,1.145,2.904,2.04l-1.968,1.92c-1.28-1.28-2.824-1.92-4.632-1.92c-1.184,0-2.236,0.249-3.156,0.744
			c-0.92,0.496-1.641,1.192-2.16,2.088c-0.52,0.896-0.78,1.92-0.78,3.072c0,1.12,0.26,2.128,0.78,3.024
			c0.52,0.896,1.24,1.601,2.16,2.112c0.92,0.512,1.964,0.768,3.132,0.768c1.312,0,2.464-0.288,3.456-0.864V75.409z"/>
		<path fill="#FFFFFF" d="M114.854,84.001l-3.432-4.92c-0.144,0.016-0.36,0.023-0.648,0.023h-3.792v4.896h-3.12v-16.8h6.912
			c1.456,0,2.724,0.24,3.804,0.72c1.08,0.48,1.908,1.168,2.484,2.064c0.576,0.896,0.864,1.96,0.864,3.192
			c0,1.264-0.308,2.352-0.924,3.265c-0.616,0.911-1.5,1.592-2.652,2.04l3.864,5.52H114.854z M113.727,70.705
			c-0.705-0.576-1.736-0.864-3.096-0.864h-3.648v6.696h3.648c1.36,0,2.392-0.292,3.096-0.876c0.704-0.584,1.056-1.412,1.056-2.484
			C114.782,72.105,114.43,71.281,113.727,70.705z"/>
		<path fill="#FFFFFF" d="M124.622,83.125c-1.376-0.744-2.457-1.776-3.24-3.096c-0.784-1.32-1.176-2.796-1.176-4.428
			s0.392-3.108,1.176-4.428c0.784-1.32,1.864-2.352,3.24-3.096c1.375-0.744,2.919-1.116,4.632-1.116
			c1.712,0,3.256,0.372,4.632,1.116c1.376,0.744,2.456,1.772,3.24,3.084c0.784,1.312,1.176,2.792,1.176,4.44
			s-0.392,3.128-1.176,4.44c-0.784,1.313-1.864,2.34-3.24,3.084s-2.92,1.116-4.632,1.116
			C127.542,84.241,125.998,83.869,124.622,83.125z M132.278,80.749c0.896-0.504,1.6-1.208,2.112-2.112
			c0.512-0.903,0.768-1.916,0.768-3.036s-0.256-2.132-0.768-3.036c-0.513-0.904-1.216-1.608-2.112-2.112s-1.904-0.756-3.024-0.756
			c-1.12,0-2.128,0.252-3.024,0.756c-0.896,0.504-1.6,1.208-2.112,2.112c-0.512,0.904-0.768,1.917-0.768,3.036
			s0.255,2.132,0.768,3.036c0.512,0.904,1.216,1.608,2.112,2.112c0.896,0.504,1.904,0.756,3.024,0.756
			C130.374,81.505,131.382,81.253,132.278,80.749z"/>
		<path fill="#FFFFFF" d="M143.414,82.285c-1.296-1.304-1.944-3.172-1.944-5.604v-9.479h3.12v9.359c0,3.297,1.424,4.944,4.272,4.944
			c2.833,0,4.249-1.647,4.249-4.944v-9.359h3.072v9.479c0,2.433-0.645,4.301-1.933,5.604s-3.092,1.956-5.412,1.956
			S144.71,83.589,143.414,82.285z"/>
		<path fill="#FFFFFF" d="M175.478,67.201v16.8h-2.567l-9.265-11.376v11.376h-3.096v-16.8h2.568l9.264,11.376V67.201H175.478z"/>
		<path fill="#FFFFFF" d="M179.99,67.201h7.344c1.792,0,3.385,0.348,4.776,1.044c1.392,0.696,2.472,1.68,3.24,2.952
			c0.768,1.272,1.151,2.74,1.151,4.404c0,1.665-0.384,3.132-1.151,4.404c-0.769,1.272-1.849,2.256-3.24,2.952
			s-2.984,1.044-4.776,1.044h-7.344V67.201z M187.19,81.361c1.231,0,2.316-0.236,3.252-0.708s1.656-1.145,2.16-2.017
			s0.756-1.884,0.756-3.036s-0.252-2.164-0.756-3.036s-1.225-1.544-2.16-2.016c-0.936-0.472-2.021-0.708-3.252-0.708h-4.08v11.521
			H187.19z"/>
	</g>
</g>
<g>
	<path fill-rule="evenodd" clip-rule="evenodd" fill="#FFFFFF" d="M246.889,114.526c-9.219,0-18.439,0.001-27.663,0
		c-2.818,0-4.445-1.627-4.445-4.443c-0.003-15.361-0.003-52.411,0-67.772c0-2.917,1.6-4.518,4.516-4.518c18.417,0,36.836,0,55.258,0
		c2.816,0,4.447,1.627,4.447,4.443c0,15.384,0,52.456,0,67.842c0,2.814-1.634,4.448-4.442,4.448
		C265.335,114.527,256.114,114.526,246.889,114.526z M274.413,103.113c0-0.359,0-0.518,0-0.676
		c-0.011-12.085-0.022-45.859-0.033-57.946c-0.003-1.436-0.712-2.111-2.192-2.111c-16.864-0.001-33.729-0.001-50.596,0
		c-1.527,0-2.227,0.7-2.227,2.228c0,11.969,0,45.622,0,57.59c0,0.229,0,0.455,0,0.849c0.313-0.358,0.514-0.58,0.706-0.813
		c5.67-6.839,11.377-13.649,16.986-20.539c1.62-1.992,3.991-2.038,5.603-0.185c2.445,2.812,5.026,5.505,7.587,8.21
		c1.209,1.274,2.364,1.296,3.725,0.187c0.924-0.755,1.813-1.558,2.748-2.298c1.261-1.002,2.457-0.898,3.548,0.274
		c2.003,2.15,3.998,4.307,5.998,6.46C268.931,97.213,271.596,100.082,274.413,103.113z"/>
	<path fill-rule="evenodd" clip-rule="evenodd" fill="#FFFFFF" d="M262.479,64.344c-0.014,5.392-4.43,9.774-9.834,9.76
		c-5.395-0.015-9.772-4.425-9.761-9.833c0.016-5.396,4.425-9.773,9.833-9.76C258.112,54.524,262.495,58.939,262.479,64.344z"/>
</g>
</svg>
