<?xml version="1.0" encoding="utf-8"?>
<!-- Generator: Adobe Illustrator 16.0.0, SVG Export Plug-In . SVG Version: 6.00 Build 0)  -->
<!DOCTYPE svg PUBLIC "-//W3C//DTD SVG 1.1//EN" "http://www.w3.org/Graphics/SVG/1.1/DTD/svg11.dtd">
<svg version="1.1" id="Layer_1" xmlns="http://www.w3.org/2000/svg" xmlns:xlink="http://www.w3.org/1999/xlink" x="0px" y="0px"
	 width="299px" height="150px" viewBox="0 0 299 150" enable-background="new 0 0 299 150" xml:space="preserve">
<rect fill="#A082CB" width="299" height="150"/>
<g>
	<defs>
		<rect id="SVGID_1_" width="299" height="150"/>
	</defs>
	<clipPath id="SVGID_2_">
		<use xlink:href="#SVGID_1_"  overflow="visible"/>
	</clipPath>
	<circle clip-path="url(#SVGID_2_)" fill="#5E5B8F" cx="253.435" cy="74.722" r="90.538"/>
</g>
<g>
	<g>
		<path fill="#FFFFFF" d="M76.701,63.558l-6.728,20.3h-4.002l-5.017-15.022L55.85,83.857h-4.031l-6.728-20.3h3.915l5.046,15.428
			l5.249-15.428h3.48l5.133,15.515l5.191-15.515H76.701z"/>
		<path fill="#FFFFFF" d="M95,80.696v3.161H79.775v-20.3h14.819v3.161H83.545v5.277h9.802V75.1h-9.802v5.597H95z"/>
		<path fill="#FFFFFF" d="M116.257,75.143c0.657,0.86,0.986,1.929,0.986,3.205c0,1.759-0.677,3.117-2.03,4.074
			c-1.354,0.957-3.325,1.436-5.916,1.436H99.205v-20.3h9.512c2.397,0,4.244,0.469,5.539,1.406c1.295,0.938,1.943,2.229,1.943,3.871
			c0,1.006-0.232,1.896-0.696,2.669s-1.102,1.372-1.914,1.798C114.71,73.669,115.6,74.283,116.257,75.143z M102.975,66.516v5.597
			h5.336c1.314,0,2.325-0.236,3.03-0.71s1.059-1.165,1.059-2.074c0-0.928-0.353-1.628-1.059-2.103
			c-0.706-0.474-1.716-0.71-3.03-0.71H102.975z M113.444,77.971c0-1.953-1.46-2.93-4.379-2.93h-6.09v5.858h6.09
			C111.984,80.899,113.444,79.924,113.444,77.971z"/>
	</g>
</g>
<g>
	<path fill="#FFFFFF" d="M276,90.549c0,2.458-1.993,4.451-4.451,4.451h-71.098c-2.458,0-4.451-1.993-4.451-4.451V48.451
		c0-2.458,1.993-4.451,4.451-4.451h71.098c2.458,0,4.451,1.993,4.451,4.451V90.549z"/>
	<path fill="#5E5B8F" d="M270,85.922c0,1.925-0.687,3.078-2.608,3.078h-62.779c-1.923,0-3.612-1.153-3.612-3.078V52.268
		c0-1.925,1.689-3.268,3.612-3.268h62.779c1.922,0,2.608,1.343,2.608,3.268V85.922z"/>
	<path fill="#FFFFFF" d="M227,95v12h-7.135c-1.23,0-2.865,0.373-2.865,1.603V113h39v-4.397c0-1.229-0.407-1.603-1.635-1.603H247V94"
		/>
</g>
</svg>
