<?xml version="1.0" encoding="utf-8"?>
<!-- Generator: Adobe Illustrator 16.0.0, SVG Export Plug-In . SVG Version: 6.00 Build 0)  -->
<!DOCTYPE svg PUBLIC "-//W3C//DTD SVG 1.1//EN" "http://www.w3.org/Graphics/SVG/1.1/DTD/svg11.dtd">
<svg version="1.1" id="Layer_1" xmlns="http://www.w3.org/2000/svg" xmlns:xlink="http://www.w3.org/1999/xlink" x="0px" y="0px"
	 width="299px" height="150px" viewBox="0 0 299 150" enable-background="new 0 0 299 150" xml:space="preserve">
<rect fill="#D275C7" width="299" height="150"/>
<g>
	<defs>
		<rect id="SVGID_1_" width="299" height="150"/>
	</defs>
	<clipPath id="SVGID_2_">
		<use xlink:href="#SVGID_1_"  overflow="visible"/>
	</clipPath>
	<circle clip-path="url(#SVGID_2_)" fill="#654494" cx="253.435" cy="74.722" r="90.538"/>
</g>
<g>
	<path fill="#FFFFFF" d="M15.141,64.83h3.38v18.2h-3.38V64.83z"/>
	<path fill="#FFFFFF" d="M23.435,64.83h3.38v15.34h9.516v2.86H23.435V64.83z"/>
	<path fill="#FFFFFF" d="M40.697,81.171c-1.403-1.412-2.105-3.436-2.105-6.07V64.83h3.38v10.141c0,3.57,1.543,5.355,4.628,5.355
		c3.068,0,4.603-1.785,4.603-5.355V64.83h3.327v10.271c0,2.635-0.697,4.658-2.093,6.07c-1.396,1.413-3.35,2.119-5.863,2.119
		C44.061,83.29,42.102,82.584,40.697,81.171z"/>
	<path fill="#FFFFFF" d="M60.834,82.692c-1.309-0.398-2.344-0.927-3.106-1.586l1.17-2.626c0.745,0.589,1.659,1.07,2.743,1.442
		c1.083,0.373,2.171,0.56,3.263,0.56c1.353,0,2.361-0.217,3.029-0.65c0.667-0.433,1.001-1.005,1.001-1.716
		c0-0.52-0.187-0.949-0.56-1.287s-0.845-0.602-1.417-0.793c-0.571-0.19-1.352-0.407-2.34-0.649
		c-1.387-0.329-2.509-0.659-3.367-0.988c-0.857-0.329-1.595-0.845-2.21-1.547s-0.923-1.651-0.923-2.848
		c0-1.005,0.273-1.919,0.819-2.742s1.369-1.478,2.47-1.964c1.101-0.484,2.448-0.728,4.043-0.728c1.109,0,2.201,0.139,3.276,0.416
		c1.074,0.277,2.002,0.676,2.782,1.196l-1.066,2.626c-0.798-0.469-1.63-0.823-2.496-1.066c-0.867-0.242-1.707-0.364-2.521-0.364
		c-1.335,0-2.327,0.226-2.978,0.677c-0.65,0.45-0.975,1.049-0.975,1.794c0,0.52,0.186,0.944,0.559,1.273
		c0.373,0.33,0.845,0.59,1.417,0.78s1.353,0.407,2.34,0.65c1.353,0.312,2.461,0.637,3.328,0.975
		c0.866,0.338,1.607,0.854,2.224,1.547c0.614,0.693,0.923,1.63,0.923,2.808c0,1.006-0.273,1.916-0.819,2.73s-1.374,1.465-2.483,1.95
		c-1.109,0.484-2.461,0.728-4.056,0.728C63.499,83.29,62.143,83.091,60.834,82.692z"/>
	<path fill="#FFFFFF" d="M79.048,67.69h-6.032v-2.86H88.46v2.86h-6.032v15.34h-3.38V67.69z"/>
	<path fill="#FFFFFF" d="M102.915,83.03l-3.718-5.33c-0.156,0.018-0.39,0.026-0.702,0.026h-4.107v5.304h-3.38v-18.2h7.487
		c1.577,0,2.951,0.26,4.121,0.78c1.17,0.52,2.067,1.266,2.691,2.236s0.936,2.123,0.936,3.458c0,1.369-0.334,2.548-1.001,3.535
		c-0.667,0.988-1.625,1.726-2.873,2.21l4.187,5.98H102.915z M101.693,68.626c-0.763-0.624-1.881-0.936-3.354-0.936h-3.952v7.254
		h3.952c1.473,0,2.591-0.316,3.354-0.949s1.145-1.529,1.145-2.69S102.456,69.25,101.693,68.626z"/>
	<path fill="#FFFFFF" d="M121.817,78.818h-9.1l-1.795,4.212h-3.483l8.189-18.2h3.328l8.216,18.2h-3.535L121.817,78.818z
		 M120.699,76.166l-3.432-7.956l-3.406,7.956H120.699z"/>
	<path fill="#FFFFFF" d="M131.06,82.692c-1.309-0.398-2.344-0.927-3.106-1.586l1.17-2.626c0.745,0.589,1.659,1.07,2.743,1.442
		c1.083,0.373,2.171,0.56,3.263,0.56c1.353,0,2.361-0.217,3.029-0.65c0.667-0.433,1.001-1.005,1.001-1.716
		c0-0.52-0.187-0.949-0.56-1.287s-0.845-0.602-1.417-0.793c-0.571-0.19-1.352-0.407-2.34-0.649
		c-1.387-0.329-2.509-0.659-3.367-0.988c-0.857-0.329-1.595-0.845-2.21-1.547s-0.923-1.651-0.923-2.848
		c0-1.005,0.273-1.919,0.819-2.742s1.369-1.478,2.47-1.964c1.101-0.484,2.448-0.728,4.043-0.728c1.109,0,2.201,0.139,3.276,0.416
		c1.074,0.277,2.002,0.676,2.782,1.196l-1.066,2.626c-0.798-0.469-1.63-0.823-2.496-1.066c-0.867-0.242-1.707-0.364-2.521-0.364
		c-1.335,0-2.327,0.226-2.978,0.677c-0.65,0.45-0.975,1.049-0.975,1.794c0,0.52,0.186,0.944,0.559,1.273
		c0.373,0.33,0.845,0.59,1.417,0.78s1.353,0.407,2.34,0.65c1.353,0.312,2.461,0.637,3.328,0.975
		c0.866,0.338,1.607,0.854,2.224,1.547c0.614,0.693,0.923,1.63,0.923,2.808c0,1.006-0.273,1.916-0.819,2.73s-1.374,1.465-2.483,1.95
		c-1.109,0.484-2.461,0.728-4.056,0.728C133.725,83.29,132.368,83.091,131.06,82.692z"/>
	<path fill="#FFFFFF" d="M145.841,64.83h3.38v18.2h-3.38V64.83z"/>
</g>
<g>
	<path fill-rule="evenodd" clip-rule="evenodd" fill="#FFFFFF" d="M198.528,76.821c0.156-1.162,0.295-2.326,0.472-3.484
		c0.549-3.643,1.679-7.102,3.304-10.407c1.209-2.46,2.687-4.746,4.431-6.846c2.362-2.848,5.128-5.253,8.284-7.205
		c5.21-3.219,10.918-4.826,16.983-5.301c3.961-0.31,7.896-0.144,11.771,0.768c2.761,0.651,5.405,1.645,7.893,3.04
		c2.176,1.217,4.147,2.698,5.973,4.386c0.394,0.364,0.52,0.662,0.282,1.208c-1.798,4.146-3.558,8.313-5.328,12.474
		c-0.531,1.254-1.031,2.522-1.608,3.756c-0.267,0.572-0.711,1.057-1.021,1.613c-1.508,2.719-2.105,5.568-0.984,8.568
		c1.262,3.396,4.495,4.358,7.464,2.264c0.536-0.378,1.014-0.85,1.467-1.324c1.063-1.117,2.181-2.204,3.129-3.415
		c1.728-2.212,3.348-4.508,5.018-6.766c0.118-0.162,0.257-0.306,0.498-0.584c0.081,1.017,0.186,1.888,0.214,2.764
		c0.083,2.779-0.122,5.539-0.889,8.223c-0.921,3.228-2.354,6.185-4.815,8.529c-1.92,1.835-4.218,3.021-6.8,3.646
		c-2.314,0.558-4.653,0.641-7.021,0.45c-1.935-0.153-3.45,0.583-4.443,2.319c-1.736,3.032-3.607,5.973-5.963,8.576
		c-1.586,1.755-3.354,3.295-5.442,4.439c-3.046,1.666-6.271,1.986-9.614,1.247c-3.071-0.677-5.8-2.125-8.369-3.895
		c-2.611-1.796-5.055-3.795-7.175-6.161c-2.599-2.894-4.511-6.19-5.819-9.851c-0.991-2.764-1.535-5.61-1.783-8.525
		c-0.015-0.179-0.068-0.356-0.104-0.536C198.528,79.47,198.528,78.147,198.528,76.821z M223.44,57.603
		c0.088,3.409,2.902,6.148,6.238,6.072c3.385-0.078,6.154-2.921,6.084-6.243c-0.073-3.374-2.931-6.153-6.251-6.077
		C226.105,51.433,223.354,54.267,223.44,57.603z M222.242,68.278c0.079-3.355-2.647-6.16-6.063-6.237
		c-3.376-0.076-6.131,2.59-6.241,6.046c-0.111,3.321,2.628,6.149,6.047,6.245C219.321,74.427,222.161,71.678,222.242,68.278z
		 M224.831,102.53c3.425-0.189,6.086-3.028,5.94-6.295c-0.16-3.629-3.106-6.118-6.363-6.001c-3.413,0.124-6.125,3.086-5.949,6.359
		C218.646,100.111,221.521,102.635,224.831,102.53z M212.388,77.904c-3.556,0.156-6.08,2.964-6.01,6.28
		c0.07,3.444,3.022,6.187,6.317,6.028c3.598-0.173,6.092-3.063,5.979-6.306C218.555,80.456,215.683,77.766,212.388,77.904z"/>
	<path fill-rule="evenodd" clip-rule="evenodd" fill="#FFFFFF" d="M276.185,49.158c-0.169,0.913-0.335,1.826-0.513,2.735
		c-0.835,4.216-4.794,6.869-9.005,6.036c-5.58-1.1-7.993-7.903-4.385-12.296c1.23-1.498,2.569-2.842,4.304-3.754
		c1.129-0.591,2.313-0.975,3.598-1.028c1.395-0.057,2.74-0.332,4.068-0.985c0.647,1.016,1.042,2.135,1.324,3.291
		c0.245,0.997,0.41,2.016,0.608,3.026C276.185,47.174,276.185,48.167,276.185,49.158z"/>
	<path fill-rule="evenodd" clip-rule="evenodd" fill="#FFFFFF" d="M256.139,62.637c2.656,2.184,5.433,4.088,8.916,4.947
		c-0.453,0.638-0.865,1.238-1.297,1.822c-1.987,2.688-3.957,5.394-5.981,8.054c-1.033,1.358-2.289,2.46-4.108,2.599
		c-1.39,0.107-2.334-0.585-2.703-1.937c-0.346-1.256-0.329-2.538,0.153-3.721c1.572-3.841,3.214-7.65,4.833-11.472
		C255.989,62.84,256.056,62.762,256.139,62.637z"/>
	<path fill-rule="evenodd" clip-rule="evenodd" fill="#FFFFFF" d="M259.959,53.541c1.006,2.4,2.597,4.054,4.833,5.008
		c2.237,0.955,4.529,0.929,6.88,0.128c-0.61,0.838-1.219,1.683-1.834,2.517c-0.576,0.78-1.143,1.568-1.755,2.317
		c-0.147,0.182-0.466,0.325-0.696,0.317c-2.029-0.061-3.831-0.859-5.479-1.933c-1.342-0.875-2.555-1.953-3.802-2.965
		c-0.139-0.114-0.243-0.447-0.18-0.604C258.557,56.781,259.225,55.253,259.959,53.541z"/>
</g>
</svg>
