<?xml version="1.0" encoding="utf-8"?>
<!-- Generator: Adobe Illustrator 16.0.0, SVG Export Plug-In . SVG Version: 6.00 Build 0)  -->
<!DOCTYPE svg PUBLIC "-//W3C//DTD SVG 1.1//EN" "http://www.w3.org/Graphics/SVG/1.1/DTD/svg11.dtd">
<svg version="1.1" id="Layer_1" xmlns="http://www.w3.org/2000/svg" xmlns:xlink="http://www.w3.org/1999/xlink" x="0px" y="0px"
	 width="299px" height="150px" viewBox="0 0 299 150" enable-background="new 0 0 299 150" xml:space="preserve">
<rect fill="#66B6D1" width="299" height="150"/>
<g>
	<defs>
		<rect id="SVGID_1_" width="299" height="150"/>
	</defs>
	<clipPath id="SVGID_2_">
		<use xlink:href="#SVGID_1_"  overflow="visible"/>
	</clipPath>
	<circle clip-path="url(#SVGID_2_)" fill="#3777A0" cx="253.435" cy="74.722" r="90.538"/>
</g>
<g>
	<g>
		<path fill="#FFFFFF" d="M16.726,63.895h3.771v17.109h10.614v3.19H16.726V63.895z"/>
		<path fill="#FFFFFF" d="M47.408,79.496H37.258l-2.001,4.698h-3.886l9.135-20.299h3.712l9.164,20.299h-3.944L47.408,79.496z
			 M46.161,76.538l-3.827-8.874l-3.8,8.874H46.161z"/>
		<path fill="#FFFFFF" d="M55.962,63.895h3.771v20.299h-3.771V63.895z"/>
		<path fill="#FFFFFF" d="M83.251,63.895v20.299h-3.103L68.955,70.449v13.746h-3.741V63.895h3.104l11.194,13.746V63.895H83.251z"/>
		<path fill="#FFFFFF" d="M106.741,63.895v20.299h-3.103L92.444,70.449v13.746h-3.741V63.895h3.104L103,77.641V63.895H106.741z"/>
		<path fill="#FFFFFF" d="M120.952,77.031v7.163h-3.771v-7.105l-7.975-13.194h4.03l5.945,9.889l6.003-9.889h3.712L120.952,77.031z"
			/>
		<path fill="#FFFFFF" d="M143.31,79.496h-10.149l-2.001,4.698h-3.886l9.135-20.299h3.712l9.164,20.299h-3.944L143.31,79.496z
			 M142.063,76.538l-3.827-8.874l-3.8,8.874H142.063z"/>
	</g>
</g>
<g>
	<g>
		<path fill-rule="evenodd" clip-rule="evenodd" fill="#FFFFFF" d="M272.733,77.061c-0.186,1.344-0.313,2.699-0.563,4.033
			c-1.818,9.693-6.834,17.332-15.021,22.795c-7.377,4.924-15.566,6.711-24.303,5.334c-10.705-1.686-18.938-7.285-24.553-16.555
			c-4.281-7.066-5.773-14.799-4.455-22.932c1.842-11.363,7.963-19.832,18.043-25.38c4.193-2.308,8.73-3.567,13.514-3.91
			c0.156-0.012,0.311-0.078,0.465-0.118c1.461,0,2.922,0,4.381,0c0.156,0.039,0.311,0.104,0.469,0.117
			c4.732,0.335,9.227,1.568,13.391,3.829c9.887,5.368,15.945,13.584,18.076,24.652c0.248,1.286,0.373,2.595,0.557,3.895
			C272.733,74.234,272.733,75.646,272.733,77.061z M238.106,43.332c-17.402-0.061-31.574,14.073-31.664,31.583
			c-0.088,17.453,14.068,31.658,31.594,31.701c17.439,0.045,31.561-14.02,31.689-31.559
			C269.851,57.682,255.612,43.394,238.106,43.332z"/>
		<path fill-rule="evenodd" clip-rule="evenodd" fill="#FFFFFF" d="M262.169,74.965c0.01,3.337-2.654,6.035-5.975,6.048
			c-3.352,0.016-6.068-2.693-6.063-6.042c0.002-3.325,2.686-5.997,6.02-6C259.495,68.971,262.159,71.625,262.169,74.965z"/>
		<path fill-rule="evenodd" clip-rule="evenodd" fill="#FFFFFF" d="M226.003,75.037c-0.004,3.307-2.719,5.991-6.045,5.977
			c-3.281-0.014-5.986-2.707-5.994-5.966c-0.006-3.38,2.66-6.07,6.02-6.072C223.351,68.971,226.005,71.645,226.003,75.037z"/>
		<path fill-rule="evenodd" clip-rule="evenodd" fill="#FFFFFF" d="M238.155,68.973c3.313,0.018,5.959,2.729,5.93,6.077
			c-0.029,3.327-2.727,5.983-6.059,5.963c-3.309-0.02-6.006-2.748-5.979-6.052C232.075,71.595,234.767,68.956,238.155,68.973z"/>
	</g>
</g>
</svg>
