<?xml version="1.0" encoding="utf-8"?>
<!-- Generator: Adobe Illustrator 16.0.0, SVG Export Plug-In . SVG Version: 6.00 Build 0)  -->
<!DOCTYPE svg PUBLIC "-//W3C//DTD SVG 1.1//EN" "http://www.w3.org/Graphics/SVG/1.1/DTD/svg11.dtd">
<svg version="1.1" id="Layer_1" xmlns="http://www.w3.org/2000/svg" xmlns:xlink="http://www.w3.org/1999/xlink" x="0px" y="0px"
	 width="299px" height="150px" viewBox="0 0 299 150" enable-background="new 0 0 299 150" xml:space="preserve">
<rect fill="#F79257" width="299" height="150"/>
<g>
	<defs>
		<rect id="SVGID_1_" width="299" height="150"/>
	</defs>
	<clipPath id="SVGID_2_">
		<use xlink:href="#SVGID_1_"  overflow="visible"/>
	</clipPath>
	<circle clip-path="url(#SVGID_2_)" fill="#F74545" cx="253.435" cy="74.722" r="90.538"/>
</g>
<g>
	<path fill="#FFFFFF" d="M37.982,63.287h3.737v16.959H52.24v3.162H37.982V63.287z"/>
	<path fill="#FFFFFF" d="M58.679,82.359c-1.648-0.892-2.942-2.128-3.88-3.708c-0.939-1.581-1.409-3.35-1.409-5.304
		s0.469-3.723,1.409-5.303c0.938-1.581,2.232-2.817,3.88-3.708c1.648-0.891,3.497-1.336,5.548-1.336c2.05,0,3.899,0.446,5.548,1.336
		c1.647,0.891,2.941,2.123,3.88,3.694c0.938,1.572,1.408,3.344,1.408,5.318c0,1.974-0.47,3.748-1.408,5.318
		c-0.939,1.572-2.233,2.803-3.88,3.694c-1.648,0.891-3.498,1.336-5.548,1.336C62.176,83.695,60.327,83.25,58.679,82.359z
		 M67.848,79.514c1.073-0.604,1.916-1.447,2.53-2.53c0.613-1.083,0.92-2.295,0.92-3.636s-0.307-2.553-0.92-3.636
		c-0.614-1.083-1.457-1.926-2.53-2.53c-1.073-0.604-2.281-0.905-3.622-0.905c-1.342,0-2.549,0.302-3.622,0.905
		c-1.073,0.604-1.917,1.447-2.529,2.53c-0.614,1.083-0.92,2.295-0.92,3.636s0.306,2.554,0.92,3.636
		c0.613,1.083,1.456,1.927,2.529,2.53s2.28,0.905,3.622,0.905C65.567,80.419,66.775,80.117,67.848,79.514z"/>
	<path fill="#FFFFFF" d="M92.77,73.117h3.536v8.021c-1.035,0.824-2.242,1.456-3.622,1.896c-1.379,0.441-2.798,0.661-4.254,0.661
		c-2.051,0-3.9-0.445-5.548-1.336c-1.648-0.892-2.942-2.122-3.88-3.694c-0.939-1.57-1.409-3.344-1.409-5.318
		c0-1.974,0.469-3.746,1.409-5.318c0.938-1.571,2.237-2.803,3.895-3.694c1.657-0.891,3.521-1.336,5.591-1.336
		c1.686,0,3.219,0.278,4.599,0.833c1.379,0.556,2.539,1.371,3.478,2.443l-2.357,2.3c-1.533-1.533-3.382-2.3-5.547-2.3
		c-1.418,0-2.678,0.297-3.78,0.891c-1.103,0.594-1.965,1.428-2.587,2.501s-0.934,2.299-0.934,3.679c0,1.341,0.312,2.549,0.934,3.623
		c0.623,1.073,1.485,1.916,2.587,2.529c1.102,0.613,2.352,0.92,3.751,0.92c1.571,0,2.951-0.345,4.139-1.035V73.117z"/>
	<path fill="#FFFFFF" d="M105.072,82.359c-1.648-0.892-2.942-2.128-3.88-3.708c-0.939-1.581-1.409-3.35-1.409-5.304
		s0.469-3.723,1.409-5.303c0.938-1.581,2.232-2.817,3.88-3.708c1.648-0.891,3.497-1.336,5.548-1.336c2.05,0,3.899,0.446,5.548,1.336
		c1.647,0.891,2.941,2.123,3.88,3.694c0.938,1.572,1.408,3.344,1.408,5.318c0,1.974-0.47,3.748-1.408,5.318
		c-0.939,1.572-2.233,2.803-3.88,3.694c-1.648,0.891-3.498,1.336-5.548,1.336C108.569,83.695,106.72,83.25,105.072,82.359z
		 M114.241,79.514c1.073-0.604,1.916-1.447,2.53-2.53c0.613-1.083,0.92-2.295,0.92-3.636s-0.307-2.553-0.92-3.636
		c-0.614-1.083-1.457-1.926-2.53-2.53c-1.073-0.604-2.281-0.905-3.622-0.905c-1.342,0-2.549,0.302-3.622,0.905
		c-1.073,0.604-1.917,1.447-2.529,2.53c-0.614,1.083-0.92,2.295-0.92,3.636s0.306,2.554,0.92,3.636
		c0.613,1.083,1.456,1.927,2.529,2.53s2.28,0.905,3.622,0.905C111.96,80.419,113.168,80.117,114.241,79.514z"/>
</g>
<g>
	<path fill-rule="evenodd" clip-rule="evenodd" fill="#FFFFFF" d="M235.232,62.399c0,4.599,0.049,9.196-0.049,13.791
		c-0.016,0.739-0.506,1.663-1.077,2.149c-1.843,1.581-2.211,3.792-0.724,5.5c1.468,1.686,4.035,1.701,5.522,0.031
		c1.503-1.686,1.154-3.929-0.673-5.505c-0.573-0.495-1.097-1.41-1.104-2.136c-0.073-9.258-0.063-18.513-0.011-27.766
		c0.002-0.593,0.504-1.182,0.772-1.773c0.438,0.431,1.028,0.78,1.29,1.298c5.522,10.965,11,21.954,16.521,32.923
		c0.49,0.99,0.562,1.806,0.028,2.833c-1.898,3.646-3.719,7.337-5.516,11.036c-0.441,0.917-0.97,1.295-2.036,1.288
		c-8-0.049-16.003-0.045-24.005-0.003c-1.035,0.003-1.597-0.309-2.055-1.254c-1.81-3.757-3.755-7.454-5.524-11.231
		c-0.319-0.68-0.331-1.776-0.002-2.44c5.48-11.121,11.029-22.207,16.606-33.282c0.24-0.479,0.896-0.75,1.359-1.116
		c0.225,0.561,0.64,1.12,0.648,1.682C235.255,53.083,235.232,57.742,235.232,62.399z"/>
	<path fill-rule="evenodd" clip-rule="evenodd" fill="#FFFFFF" d="M247.552,40.155c11.507,5.579,17.859,14.572,18.883,27.448
		c0.509,0.035,1.081-0.062,1.517,0.146c0.448,0.213,1.051,0.697,1.079,1.102c0.122,1.662,0.12,3.344,0.002,5.007
		c-0.026,0.385-0.673,1.005-1.065,1.034c-1.604,0.121-3.22,0.033-4.834,0.06c-1.026,0.017-1.359-0.506-1.326-1.45
		c0.034-0.955,0.007-1.914,0.007-2.864c0-2.75,0-2.75,2.54-3.073c0.486-10.675-8.455-25.038-24.221-27.032
		c-0.759,2.423-0.759,2.423-3.471,2.423c-0.479,0-0.963-0.057-1.43,0.01c-1.829,0.25-3.093-0.165-2.822-2.367
		c-13.218,1.176-24.561,13.394-24.534,26.874c2.627,0.547,2.627,0.547,2.627,3.401c0,4.075,0,4.092-4.072,4.07
		c-3.464-0.021-3.202,0.527-3.217-3.294c-0.003-0.477-0.003-0.956,0-1.431c0.006-2.424,0.006-2.424,2.636-2.6
		c0.987-12.731,7.31-21.881,18.951-27.458c-4.569,0-9.137-0.022-13.702,0.04c-0.376,0.006-0.824,0.535-1.1,0.921
		c-1.077,1.507-2.598,2.162-4.165,1.665c-1.67-0.529-2.574-1.694-2.607-3.443c-0.031-1.683,0.84-2.854,2.36-3.458
		c1.621-0.641,3.193,0.009,4.384,1.555c0.309,0.402,0.856,0.884,1.299,0.885c6.926,0.041,13.851,0.013,20.776-0.008
		c0.106-0.002,0.211-0.098,0.313-0.15c0.315-2.464,0.315-2.464,2.929-2.465c0.659,0,1.314,0,1.974,0
		c2.438,0.002,2.438,0.002,2.654,2.537c0.473,0.039,0.979,0.119,1.482,0.119c6.333,0.01,12.659-0.003,18.99,0.018
		c0.941,0.003,1.592-0.125,2.153-1.09c0.886-1.514,2.695-2.012,4.236-1.377c1.52,0.629,2.36,1.809,2.31,3.492
		c-0.058,1.755-0.985,2.933-2.662,3.396c-1.694,0.467-2.989-0.21-4.055-1.565c-0.375-0.478-1.032-1.021-1.57-1.032
		C256.387,40.118,251.968,40.155,247.552,40.155z"/>
	<path fill-rule="evenodd" clip-rule="evenodd" fill="#FFFFFF" d="M236.146,97.962c4.831,0,9.663,0.038,14.49-0.024
		c1.439-0.021,2.103,0.384,1.983,1.912c-0.101,1.248-0.067,2.507-0.009,3.757c0.055,1.234-0.458,1.689-1.688,1.677
		c-3.817-0.047-7.635-0.016-11.449-0.016c-5.904,0-11.811-0.043-17.713,0.028c-1.548,0.021-2.078-0.455-2.076-2.038
		c0.014-5.296-0.04-5.296,5.189-5.296C228.631,97.962,232.391,97.962,236.146,97.962z"/>
	<path fill-rule="evenodd" clip-rule="evenodd" fill="#FFFFFF" d="M249.89,107.206c0,2.042,0.085,4.003-0.062,5.941
		c-0.034,0.434-0.859,1.157-1.324,1.157c-8.229,0.073-16.458,0.073-24.687,0c-0.464,0-1.288-0.724-1.321-1.157
		c-0.145-1.938-0.063-3.899-0.063-5.941C231.651,107.206,240.675,107.206,249.89,107.206z"/>
</g>
</svg>
