<?xml version="1.0" encoding="utf-8"?>
<!-- Generator: Adobe Illustrator 16.0.0, SVG Export Plug-In . SVG Version: 6.00 Build 0)  -->
<!DOCTYPE svg PUBLIC "-//W3C//DTD SVG 1.1//EN" "http://www.w3.org/Graphics/SVG/1.1/DTD/svg11.dtd">
<svg version="1.1" id="Layer_1" xmlns="http://www.w3.org/2000/svg" xmlns:xlink="http://www.w3.org/1999/xlink" x="0px" y="0px"
	 width="299px" height="150px" viewBox="0 0 299 150" enable-background="new 0 0 299 150" xml:space="preserve">
<rect fill="#4BD0D0" width="299" height="150"/>
<g>
	<defs>
		<rect id="SVGID_1_" width="299" height="150"/>
	</defs>
	<clipPath id="SVGID_2_">
		<use xlink:href="#SVGID_1_"  overflow="visible"/>
	</clipPath>
	<circle clip-path="url(#SVGID_2_)" fill="#1F9C9C" cx="253.435" cy="74.722" r="90.538"/>
</g>
<g>
	<path fill="#FFFFFF" d="M38.418,75.462c0.657,0.86,0.986,1.929,0.986,3.205c0,1.759-0.677,3.117-2.03,4.074
		c-1.354,0.957-3.325,1.436-5.916,1.436H21.367v-20.3h9.512c2.397,0,4.244,0.469,5.539,1.406c1.295,0.938,1.943,2.229,1.943,3.871
		c0,1.006-0.232,1.896-0.696,2.669s-1.102,1.372-1.914,1.798C36.872,73.988,37.761,74.603,38.418,75.462z M25.137,66.835v5.597
		h5.336c1.314,0,2.325-0.236,3.03-0.71s1.059-1.165,1.059-2.074c0-0.928-0.353-1.628-1.059-2.103c-0.706-0.474-1.716-0.71-3.03-0.71
		H25.137z M35.605,78.29c0-1.953-1.46-2.93-4.379-2.93h-6.09v5.858h6.09C34.146,81.219,35.605,80.243,35.605,78.29z"/>
	<path fill="#FFFFFF" d="M56.717,84.177l-4.147-5.945c-0.174,0.02-0.435,0.029-0.783,0.029h-4.582v5.916h-3.77v-20.3h8.352
		c1.759,0,3.292,0.29,4.596,0.87c1.305,0.58,2.306,1.411,3.001,2.494c0.696,1.082,1.044,2.368,1.044,3.856
		c0,1.527-0.373,2.842-1.117,3.944c-0.745,1.102-1.813,1.924-3.205,2.465l4.669,6.67H56.717z M55.354,68.11
		c-0.851-0.695-2.098-1.044-3.741-1.044h-4.408v8.092h4.408c1.643,0,2.89-0.353,3.741-1.059c0.851-0.706,1.276-1.706,1.276-3.002
		C56.63,69.803,56.205,68.807,55.354,68.11z"/>
	<path fill="#FFFFFF" d="M68.52,83.118c-1.663-0.898-2.968-2.146-3.915-3.741c-0.947-1.595-1.421-3.378-1.421-5.351
		c0-1.972,0.474-3.755,1.421-5.351c0.947-1.595,2.252-2.842,3.915-3.74c1.663-0.899,3.528-1.349,5.597-1.349
		c2.068,0,3.934,0.449,5.597,1.349c1.663,0.898,2.967,2.142,3.915,3.727c0.947,1.585,1.421,3.374,1.421,5.364
		c0,1.992-0.474,3.78-1.421,5.365c-0.948,1.586-2.252,2.828-3.915,3.727c-1.663,0.899-3.529,1.349-5.597,1.349
		C72.048,84.467,70.182,84.018,68.52,83.118z M77.771,80.247c1.083-0.608,1.933-1.459,2.552-2.552
		c0.619-1.092,0.928-2.315,0.928-3.669c0-1.353-0.309-2.575-0.928-3.668c-0.619-1.092-1.47-1.943-2.552-2.552
		c-1.083-0.609-2.301-0.914-3.654-0.914c-1.354,0-2.571,0.305-3.654,0.914c-1.083,0.608-1.934,1.46-2.552,2.552
		c-0.619,1.093-0.928,2.315-0.928,3.668c0,1.354,0.309,2.577,0.928,3.669c0.619,1.093,1.469,1.943,2.552,2.552
		c1.083,0.609,2.3,0.914,3.654,0.914C75.47,81.161,76.688,80.856,77.771,80.247z"/>
	<path fill="#FFFFFF" d="M90.806,83.8c-1.46-0.444-2.615-1.034-3.465-1.77l1.305-2.929c0.831,0.657,1.851,1.194,3.06,1.609
		c1.208,0.416,2.421,0.624,3.64,0.624c1.508,0,2.634-0.242,3.378-0.726c0.744-0.482,1.117-1.121,1.117-1.914
		c0-0.579-0.208-1.058-0.624-1.435c-0.416-0.378-0.942-0.672-1.581-0.885s-1.508-0.454-2.61-0.726
		c-1.547-0.366-2.799-0.734-3.756-1.102s-1.779-0.942-2.465-1.726c-0.687-0.783-1.029-1.842-1.029-3.176
		c0-1.121,0.304-2.141,0.913-3.06c0.609-0.918,1.527-1.647,2.755-2.189c1.228-0.541,2.73-0.812,4.509-0.812
		c1.237,0,2.455,0.155,3.654,0.464c1.198,0.31,2.233,0.754,3.103,1.334l-1.189,2.929c-0.889-0.521-1.817-0.918-2.784-1.188
		c-0.967-0.271-1.905-0.406-2.813-0.406c-1.489,0-2.596,0.252-3.321,0.754c-0.725,0.503-1.087,1.17-1.087,2.001
		c0,0.58,0.208,1.054,0.624,1.421c0.416,0.368,0.942,0.657,1.581,0.87s1.508,0.455,2.61,0.726c1.508,0.348,2.745,0.71,3.712,1.087
		s1.793,0.952,2.479,1.726s1.03,1.817,1.03,3.132c0,1.122-0.305,2.137-0.914,3.045c-0.609,0.909-1.532,1.634-2.77,2.175
		s-2.746,0.813-4.524,0.813C93.779,84.467,92.266,84.244,90.806,83.8z"/>
	<path fill="#FFFFFF" d="M109.468,82.104c-1.566-1.576-2.349-3.833-2.349-6.771V63.877h3.77v11.31c0,3.983,1.721,5.975,5.162,5.975
		c3.422,0,5.133-1.991,5.133-5.975v-11.31h3.712v11.455c0,2.938-0.779,5.195-2.334,6.771c-1.557,1.576-3.737,2.363-6.54,2.363
		C113.218,84.467,111.034,83.68,109.468,82.104z"/>
	<path fill="#FFFFFF" d="M143.455,84.177l-4.147-5.945c-0.174,0.02-0.435,0.029-0.783,0.029h-4.582v5.916h-3.77v-20.3h8.352
		c1.759,0,3.292,0.29,4.596,0.87c1.305,0.58,2.306,1.411,3.001,2.494c0.696,1.082,1.044,2.368,1.044,3.856
		c0,1.527-0.373,2.842-1.117,3.944c-0.745,1.102-1.813,1.924-3.205,2.465l4.669,6.67H143.455z M142.092,68.11
		c-0.851-0.695-2.098-1.044-3.741-1.044h-4.408v8.092h4.408c1.643,0,2.89-0.353,3.741-1.059c0.851-0.706,1.276-1.706,1.276-3.002
		C143.368,69.803,142.943,68.807,142.092,68.11z"/>
</g>
<g>
	<path fill="#FFFFFF" d="M246.428,64.696l-10.898-3.929c-1.268-0.46-1.131,0.569-1.131,1.266v33.659
		c0,0.697,0.083,1.307,1.215,1.678c2.992,0.983,10.839,3.395,10.839,3.395c0.704,0,1.068-0.568,1.068-1.266V66.497
		C247.521,65.277,247.208,64.965,246.428,64.696z"/>
	<path fill="#FFFFFF" d="M274.268,35.447c-0.7-0.579-1.251-0.563-2.48-0.117c0,0-13.76,5.601-18.334,7.497
		c-0.843,0.35-1.354,0.555-2.746,0.047c-4.192-1.531-16.828-5.87-21.413-7.563c-0.449-0.165-1.206-0.394-2.199-0.024
		c-0.427,0.16-22.625,7.855-22.625,7.855c-1.634,0.564-3.968,1.434-3.968,4.634v64.35c0,2.545,1.256,5.19,4.989,4.191
		c0.136-0.034,16.719-5.303,21.982-7.027c1.663-0.544,2.158-0.339,3.05-0.027c5.216,1.826,15.695,5.354,20.76,6.866
		c1.979,0.591,3.079-0.331,4.621-0.958c0.822-0.334,13.941-6.181,16.241-6.937c2.928-0.964,2.71-2.86,2.71-4.407v-64.93
		C274.855,37.919,274.897,35.966,274.268,35.447z M227.599,104.681c0,0.948-0.099,2.111-1.736,2.649
		c-5.402,1.777-19.336,5.794-21.166,6.297c-1.306,0.359-2.008-0.803-2.008-2.533V47.777c0-1.705,1.227-1.965,2.47-2.395
		l21.253-7.296c0.346-0.126,1.054-0.026,1.017,0.864L227.599,104.681z M229.61,104.74c0.23-7.933-0.095-57.292-0.139-65.334
		c-0.007-1.093,0.893-1.302,1.601-1.048c4.922,1.766,18.921,6.855,18.921,6.855c1.128,0.386,1.9,0.615,1.9,2.389v63.97
		c0.034,1.134-1.418,1.625-2.196,1.352c-2.703-0.952-13.099-4.221-18.898-6.044C230.218,106.698,229.569,106.198,229.61,104.74z
		 M272.669,104.614c0,0.994-0.374,1.628-1.968,2.15c-3.871,1.275-9.823,3.975-15.039,5.719c-0.458,0.155-1.561,0.091-1.561-1.23
		c0-7.519-0.184-49.671-0.184-64.275c0-1.719,0.535-1.945,1.499-2.333c4.566-1.841,14.845-5.83,14.845-5.83
		c2.044-0.821,2.407,0.009,2.407,0.869V104.614z"/>
	<path fill="#FFFFFF" d="M219.92,65.829l-11.143,3.824c-0.637,0.215-0.975,0.91-0.756,1.547c0.174,0.505,0.646,0.821,1.152,0.821
		c0.132,0,0.266-0.021,0.395-0.066l11.14-3.821c0.639-0.218,0.979-0.912,0.76-1.549C221.25,65.95,220.556,65.611,219.92,65.829z"/>
	<path fill="#FFFFFF" d="M219.92,73.663l-11.143,3.822c-0.637,0.219-0.975,0.911-0.756,1.548c0.174,0.506,0.646,0.822,1.152,0.822
		c0.132,0,0.266-0.02,0.395-0.066l11.14-3.82c0.639-0.22,0.979-0.912,0.76-1.548C221.25,73.783,220.556,73.445,219.92,73.663z"/>
	<path fill="#FFFFFF" d="M219.92,80.8l-11.143,3.821c-0.637,0.219-0.975,0.911-0.756,1.548c0.174,0.506,0.646,0.822,1.152,0.822
		c0.132,0,0.266-0.021,0.395-0.065l11.14-3.822c0.639-0.217,0.979-0.911,0.76-1.547C221.25,80.919,220.556,80.58,219.92,80.8z"/>
	<path fill="#FFFFFF" d="M268.887,50.337l-11.142,3.821c-0.637,0.219-0.975,0.912-0.756,1.547c0.173,0.506,0.646,0.824,1.152,0.824
		c0.131,0,0.264-0.021,0.396-0.066l11.14-3.823c0.639-0.22,0.979-0.91,0.759-1.548C270.216,50.456,269.522,50.118,268.887,50.337z"
		/>
	<path fill="#FFFFFF" d="M246.305,59.598c0.131,0.044,0.266,0.067,0.395,0.067c0.507,0,0.98-0.318,1.154-0.824
		c0.217-0.639-0.12-1.331-0.756-1.549l-11.144-3.823c-0.637-0.217-1.329,0.122-1.549,0.758c-0.216,0.637,0.12,1.331,0.758,1.549
		L246.305,59.598z"/>
	<path fill="#FFFFFF" d="M268.887,58.17l-11.142,3.823c-0.637,0.218-0.975,0.912-0.756,1.546c0.173,0.507,0.646,0.825,1.152,0.825
		c0.131,0,0.264-0.022,0.396-0.067l11.14-3.82c0.639-0.22,0.979-0.912,0.759-1.551C270.216,58.29,269.522,57.952,268.887,58.17z"/>
	<path fill="#FFFFFF" d="M268.887,65.307l-11.142,3.823c-0.637,0.215-0.975,0.912-0.756,1.546c0.173,0.506,0.646,0.824,1.152,0.824
		c0.131,0,0.264-0.021,0.396-0.067l11.14-3.821c0.639-0.218,0.979-0.911,0.759-1.55C270.216,65.428,269.522,65.089,268.887,65.307z"
		/>
</g>
</svg>
