<?xml version="1.0" encoding="utf-8"?>
<!-- Generator: Adobe Illustrator 16.0.0, SVG Export Plug-In . SVG Version: 6.00 Build 0)  -->
<!DOCTYPE svg PUBLIC "-//W3C//DTD SVG 1.1//EN" "http://www.w3.org/Graphics/SVG/1.1/DTD/svg11.dtd">
<svg version="1.1" id="Layer_1" xmlns="http://www.w3.org/2000/svg" xmlns:xlink="http://www.w3.org/1999/xlink" x="0px" y="0px"
	 width="299px" height="150px" viewBox="0 0 299 150" enable-background="new 0 0 299 150" xml:space="preserve">
<rect fill="#FFA150" width="299" height="150"/>
<g>
	<defs>
		<rect id="SVGID_1_" width="299" height="150"/>
	</defs>
	<clipPath id="SVGID_2_">
		<use xlink:href="#SVGID_1_"  overflow="visible"/>
	</clipPath>
	<circle clip-path="url(#SVGID_2_)" fill="#FF643D" cx="253.435" cy="74.722" r="90.538"/>
</g>
<g>
	<path fill-rule="evenodd" clip-rule="evenodd" fill="#FFFFFF" d="M240.821,31.327c1.516,0.622,2.063,1.771,2.021,3.378
		c-0.065,2.667-0.004,5.34-0.022,8.011c-0.009,1.599-1.002,2.722-2.425,2.808c-1.512,0.095-2.758-0.937-2.788-2.498
		c-0.063-3.058-0.041-6.118-0.007-9.177c0.016-1.299,0.872-2.032,1.977-2.523C239.992,31.327,240.407,31.327,240.821,31.327z"/>
	<path fill-rule="evenodd" clip-rule="evenodd" fill="#FFFFFF" d="M236.151,111.056c-0.113-0.057-0.223-0.118-0.338-0.168
		c-1.198-0.515-1.858-1.648-1.661-2.854c0.197-1.213,1.149-2.13,2.473-2.166c2.328-0.061,4.66-0.06,6.988-0.006
		c1.338,0.031,2.326,0.945,2.506,2.125c0.202,1.334-0.438,2.402-1.754,2.93c-0.095,0.036-0.184,0.091-0.273,0.14
		C241.444,111.056,238.798,111.056,236.151,111.056z"/>
	<path fill-rule="evenodd" clip-rule="evenodd" fill="#FFFFFF" d="M240.173,99.135c-2.153,0-4.308,0.009-6.46-0.003
		c-2.021-0.012-3.163-1.021-2.982-3.012c0.359-3.938-1.292-7.011-3.723-9.878c-1.62-1.915-3.274-3.844-4.596-5.966
		c-4.19-6.723-3.637-16.068,1.121-22.422c3.163-4.223,7.276-7.012,12.441-8.047c6.665-1.333,12.667,0.231,17.817,4.705
		c4.053,3.517,6.372,8.024,6.908,13.344c0.576,5.706-1.017,10.821-4.656,15.281c-1.506,1.849-3.023,3.691-4.461,5.593
		c-1.45,1.925-2.186,4.106-2.004,6.547c0.229,3.077-1.079,4.013-3.881,3.875C243.86,99.061,242.017,99.135,240.173,99.135z
		 M236.165,93.86c2.627,0,5.413,0,8.232,0c0.011-3.41,1.456-6.222,3.406-8.808c1.326-1.759,2.74-3.453,4.144-5.151
		c2.201-2.663,3.459-5.701,3.631-9.157c0.463-9.291-7.306-16.812-16.618-16.109c-11.281,0.851-17.857,13.507-11.96,23.15
		c1.139,1.864,2.685,3.483,4.062,5.203c1.475,1.846,2.977,3.694,3.785,5.939C235.41,90.49,235.718,92.146,236.165,93.86z"/>
	<path fill-rule="evenodd" clip-rule="evenodd" fill="#FFFFFF" d="M240.201,99.867c2.203,0,4.405-0.025,6.608,0.008
		c2.041,0.029,3.319,1.854,2.565,3.615c-0.455,1.066-1.321,1.604-2.449,1.61c-4.511,0.023-9.02,0.029-13.528-0.001
		c-1.588-0.01-2.704-1.166-2.694-2.63c0.01-1.461,1.143-2.572,2.733-2.594C235.69,99.844,237.946,99.868,240.201,99.867z"/>
	<path fill-rule="evenodd" clip-rule="evenodd" fill="#FFFFFF" d="M208.646,72.585c-1.425,0-2.85,0.012-4.277-0.004
		c-1.61-0.018-2.751-1.06-2.794-2.523c-0.043-1.513,1.048-2.67,2.692-2.697c2.928-0.045,5.858-0.042,8.786-0.001
		c1.654,0.023,2.743,1.153,2.713,2.672c-0.03,1.504-1.172,2.537-2.843,2.55C211.5,72.593,210.073,72.585,208.646,72.585z"/>
	<path fill-rule="evenodd" clip-rule="evenodd" fill="#FFFFFF" d="M271.716,72.585c-1.425,0-2.852,0.011-4.276-0.003
		c-1.657-0.015-2.795-1.073-2.809-2.585c-0.016-1.513,1.084-2.62,2.748-2.64c2.903-0.037,5.808-0.038,8.711,0.001
		c1.651,0.023,2.755,1.149,2.734,2.657c-0.024,1.498-1.175,2.553-2.832,2.567C274.567,72.596,273.142,72.585,271.716,72.585z"/>
	<path fill-rule="evenodd" clip-rule="evenodd" fill="#FFFFFF" d="M259.294,53.453c-1.014-0.032-1.792-0.474-2.273-1.37
		c-0.482-0.898-0.428-1.796,0.121-2.651c0.15-0.239,0.352-0.449,0.552-0.648c1.978-1.982,3.955-3.965,5.94-5.938
		c1.209-1.2,2.784-1.274,3.865-0.205c1.082,1.069,1.026,2.666-0.163,3.867c-1.987,2.006-3.994,3.995-5.987,5.997
		C260.778,53.08,260.135,53.472,259.294,53.453z"/>
	<path fill-rule="evenodd" clip-rule="evenodd" fill="#FFFFFF" d="M215.069,41.862c0.337,0.184,1.062,0.407,1.548,0.875
		c2.115,2.023,4.172,4.108,6.228,6.195c1.116,1.133,1.134,2.706,0.097,3.755c-1.028,1.042-2.632,1.046-3.754-0.058
		c-2.109-2.071-4.192-4.166-6.269-6.267c-0.83-0.838-1.028-1.854-0.558-2.934C212.793,42.438,213.609,41.948,215.069,41.862z"/>
	<path fill-rule="evenodd" clip-rule="evenodd" fill="#FFFFFF" d="M223.718,89.457c-0.17,0.314-0.374,0.992-0.811,1.446
		c-2.084,2.165-4.216,4.288-6.366,6.389c-1.051,1.027-2.644,0.988-3.642,0.001c-1-0.988-1.072-2.589-0.05-3.641
		c2.132-2.194,4.299-4.354,6.49-6.485c0.814-0.793,1.835-0.935,2.878-0.429C223.195,87.214,223.657,88.034,223.718,89.457z"/>
	<path fill-rule="evenodd" clip-rule="evenodd" fill="#FFFFFF" d="M268.265,95.482c-0.04,1.082-0.546,1.89-1.532,2.322
		c-1.014,0.445-2.005,0.314-2.813-0.46c-1.274-1.218-2.505-2.48-3.754-3.723c-0.862-0.861-1.734-1.712-2.581-2.588
		c-1.144-1.183-1.177-2.752-0.105-3.811c1.074-1.064,2.629-1.021,3.81,0.147c2.047,2.023,4.073,4.067,6.105,6.103
		C267.948,94.028,268.293,94.672,268.265,95.482z"/>
</g>
<g>
	<g>
		<path fill="#FFFFFF" d="M43.654,63.108h3.77v20.3h-3.77V63.108z"/>
		<path fill="#FFFFFF" d="M56.747,82.35c-1.653-0.898-2.948-2.141-3.886-3.727c-0.938-1.585-1.407-3.373-1.407-5.365
			c0-1.99,0.474-3.779,1.421-5.364s2.248-2.828,3.901-3.727c1.653-0.899,3.504-1.349,5.553-1.349c1.663,0,3.18,0.29,4.553,0.87
			c1.373,0.58,2.532,1.421,3.48,2.522l-2.436,2.291c-1.47-1.585-3.277-2.378-5.423-2.378c-1.392,0-2.639,0.305-3.741,0.914
			c-1.102,0.608-1.962,1.455-2.581,2.537c-0.619,1.083-0.928,2.311-0.928,3.683c0,1.373,0.309,2.601,0.928,3.684
			c0.619,1.083,1.479,1.929,2.581,2.537c1.102,0.609,2.349,0.914,3.741,0.914c2.146,0,3.953-0.803,5.423-2.407l2.436,2.32
			c-0.948,1.102-2.113,1.942-3.495,2.522c-1.382,0.58-2.905,0.87-4.567,0.87C60.251,83.698,58.4,83.249,56.747,82.35z"/>
		<path fill="#FFFFFF" d="M77.438,82.35c-1.663-0.898-2.968-2.146-3.915-3.741c-0.947-1.595-1.421-3.378-1.421-5.351
			c0-1.972,0.474-3.755,1.421-5.351c0.947-1.595,2.252-2.842,3.915-3.74c1.663-0.899,3.528-1.349,5.597-1.349
			c2.068,0,3.934,0.449,5.597,1.349c1.663,0.898,2.967,2.142,3.915,3.727c0.947,1.585,1.421,3.374,1.421,5.364
			c0,1.992-0.474,3.78-1.421,5.365c-0.948,1.586-2.252,2.828-3.915,3.727c-1.663,0.899-3.529,1.349-5.597,1.349
			C80.967,83.698,79.101,83.249,77.438,82.35z M86.689,79.479c1.083-0.608,1.933-1.459,2.552-2.552
			c0.619-1.092,0.928-2.315,0.928-3.669c0-1.353-0.309-2.575-0.928-3.668c-0.619-1.092-1.47-1.943-2.552-2.552
			c-1.083-0.609-2.301-0.914-3.654-0.914c-1.354,0-2.571,0.305-3.654,0.914c-1.083,0.608-1.934,1.46-2.552,2.552
			c-0.619,1.093-0.928,2.315-0.928,3.668c0,1.354,0.309,2.577,0.928,3.669c0.619,1.093,1.469,1.943,2.552,2.552
			c1.083,0.609,2.3,0.914,3.654,0.914C84.389,80.393,85.607,80.088,86.689,79.479z"/>
		<path fill="#FFFFFF" d="M116.008,63.108v20.3h-3.103l-11.194-13.746v13.746H97.97v-20.3h3.103l11.194,13.746V63.108H116.008z"/>
	</g>
</g>
</svg>
